%TF.GenerationSoftware,KiCad,Pcbnew,7.0.7*%
%TF.CreationDate,2024-03-25T16:43:20-04:00*%
%TF.ProjectId,MicBoard,4d696342-6f61-4726-942e-6b696361645f,rev?*%
%TF.SameCoordinates,Original*%
%TF.FileFunction,Copper,L1,Top*%
%TF.FilePolarity,Positive*%
%FSLAX46Y46*%
G04 Gerber Fmt 4.6, Leading zero omitted, Abs format (unit mm)*
G04 Created by KiCad (PCBNEW 7.0.7) date 2024-03-25 16:43:20*
%MOMM*%
%LPD*%
G01*
G04 APERTURE LIST*
G04 Aperture macros list*
%AMRoundRect*
0 Rectangle with rounded corners*
0 $1 Rounding radius*
0 $2 $3 $4 $5 $6 $7 $8 $9 X,Y pos of 4 corners*
0 Add a 4 corners polygon primitive as box body*
4,1,4,$2,$3,$4,$5,$6,$7,$8,$9,$2,$3,0*
0 Add four circle primitives for the rounded corners*
1,1,$1+$1,$2,$3*
1,1,$1+$1,$4,$5*
1,1,$1+$1,$6,$7*
1,1,$1+$1,$8,$9*
0 Add four rect primitives between the rounded corners*
20,1,$1+$1,$2,$3,$4,$5,0*
20,1,$1+$1,$4,$5,$6,$7,0*
20,1,$1+$1,$6,$7,$8,$9,0*
20,1,$1+$1,$8,$9,$2,$3,0*%
G04 Aperture macros list end*
%TA.AperFunction,SMDPad,CuDef*%
%ADD10RoundRect,0.250000X-0.262500X-0.450000X0.262500X-0.450000X0.262500X0.450000X-0.262500X0.450000X0*%
%TD*%
%TA.AperFunction,SMDPad,CuDef*%
%ADD11RoundRect,0.250000X-0.250000X-0.475000X0.250000X-0.475000X0.250000X0.475000X-0.250000X0.475000X0*%
%TD*%
%TA.AperFunction,SMDPad,CuDef*%
%ADD12RoundRect,0.250000X0.250000X0.475000X-0.250000X0.475000X-0.250000X-0.475000X0.250000X-0.475000X0*%
%TD*%
%TA.AperFunction,SMDPad,CuDef*%
%ADD13RoundRect,0.250000X-0.475000X0.250000X-0.475000X-0.250000X0.475000X-0.250000X0.475000X0.250000X0*%
%TD*%
%TA.AperFunction,ComponentPad*%
%ADD14R,1.378000X1.378000*%
%TD*%
%TA.AperFunction,ComponentPad*%
%ADD15C,1.378000*%
%TD*%
%TA.AperFunction,SMDPad,CuDef*%
%ADD16C,1.000000*%
%TD*%
%TA.AperFunction,SMDPad,CuDef*%
%ADD17R,1.117600X0.228600*%
%TD*%
%TA.AperFunction,SMDPad,CuDef*%
%ADD18R,0.774700X0.457200*%
%TD*%
%TA.AperFunction,SMDPad,CuDef*%
%ADD19RoundRect,0.250000X-0.450000X0.262500X-0.450000X-0.262500X0.450000X-0.262500X0.450000X0.262500X0*%
%TD*%
%TA.AperFunction,SMDPad,CuDef*%
%ADD20R,1.600000X0.800000*%
%TD*%
%TA.AperFunction,SMDPad,CuDef*%
%ADD21R,3.000000X2.100000*%
%TD*%
%TA.AperFunction,ComponentPad*%
%ADD22R,1.700000X1.700000*%
%TD*%
%TA.AperFunction,ComponentPad*%
%ADD23O,1.700000X1.700000*%
%TD*%
%TA.AperFunction,ViaPad*%
%ADD24C,0.800000*%
%TD*%
%TA.AperFunction,ViaPad*%
%ADD25C,4.318000*%
%TD*%
%TA.AperFunction,Conductor*%
%ADD26C,0.250000*%
%TD*%
G04 APERTURE END LIST*
D10*
%TO.P,R7,1*%
%TO.N,GND*%
X86313000Y-61595000D03*
%TO.P,R7,2*%
%TO.N,Net-(U3-CKS)*%
X88138000Y-61595000D03*
%TD*%
D11*
%TO.P,C10,1*%
%TO.N,Net-(U3-REGO)*%
X88905000Y-75184000D03*
%TO.P,C10,2*%
%TO.N,GND*%
X90805000Y-75184000D03*
%TD*%
%TO.P,C4,1*%
%TO.N,Net-(U2--IN)*%
X66426000Y-83947000D03*
%TO.P,C4,2*%
%TO.N,Net-(U2-OUT)*%
X68326000Y-83947000D03*
%TD*%
D12*
%TO.P,C1,1*%
%TO.N,Net-(C1-Pad1)*%
X61975293Y-61467293D03*
%TO.P,C1,2*%
%TO.N,GND*%
X60075293Y-61467293D03*
%TD*%
D13*
%TO.P,C2,1*%
%TO.N,Net-(C2-Pad1)*%
X64325500Y-65405000D03*
%TO.P,C2,2*%
%TO.N,Net-(U2-+IN)*%
X64325500Y-67305000D03*
%TD*%
D10*
%TO.P,R1,1*%
%TO.N,Net-(C1-Pad1)*%
X60277293Y-55879293D03*
%TO.P,R1,2*%
%TO.N,+3V3*%
X62102293Y-55879293D03*
%TD*%
D14*
%TO.P,MK1,1*%
%TO.N,Net-(C2-Pad1)*%
X58057800Y-71374000D03*
D15*
%TO.P,MK1,2*%
%TO.N,GND*%
X58057800Y-68834000D03*
%TD*%
D12*
%TO.P,C5,1*%
%TO.N,GND*%
X80772000Y-70866000D03*
%TO.P,C5,2*%
%TO.N,+3V3*%
X78872000Y-70866000D03*
%TD*%
D16*
%TO.P,TP3,1,1*%
%TO.N,Net-(U2-OUT)*%
X77724000Y-61595000D03*
%TD*%
D10*
%TO.P,R5,1*%
%TO.N,Net-(U2--IN)*%
X61167000Y-79883000D03*
%TO.P,R5,2*%
%TO.N,Net-(C3-Pad2)*%
X62992000Y-79883000D03*
%TD*%
D17*
%TO.P,U3,1,VCOM*%
%TO.N,Net-(U3-VCOM)*%
X84226400Y-67194001D03*
%TO.P,U3,2,RIN*%
%TO.N,Net-(U3-LIN)*%
X84226400Y-67843999D03*
%TO.P,U3,3,LIN*%
X84226400Y-68494001D03*
%TO.P,U3,4,VSS*%
%TO.N,GND*%
X84226400Y-69143999D03*
%TO.P,U3,5,VA*%
%TO.N,+3V3*%
X84226400Y-69793998D03*
%TO.P,U3,6,VD*%
X84226400Y-70443999D03*
%TO.P,U3,7,GSEL*%
%TO.N,Net-(U3-GSEL)*%
X84226400Y-71093998D03*
%TO.P,U3,8,REGO*%
%TO.N,Net-(U3-REGO)*%
X84226400Y-71743999D03*
%TO.P,U3,9,SDTO*%
%TO.N,Net-(U3-SDTO)*%
X90017600Y-71743999D03*
%TO.P,U3,10,LRCK*%
%TO.N,Net-(U3-LRCK)*%
X90017600Y-71094001D03*
%TO.P,U3,11,MCLK*%
%TO.N,Net-(U3-MCLK)*%
X90017600Y-70443999D03*
%TO.P,U3,12,BICK*%
%TO.N,Net-(U3-BICK)*%
X90017600Y-69794001D03*
%TO.P,U3,13,PDN*%
%TO.N,Net-(J1-Pin_1)*%
X90017600Y-69144002D03*
%TO.P,U3,14,DIF/TDMI*%
%TO.N,Net-(J1-Pin_2)*%
X90017600Y-68494001D03*
%TO.P,U3,15,FSEL*%
%TO.N,Net-(J1-Pin_3)*%
X90017600Y-67844002D03*
%TO.P,U3,16,CKS*%
%TO.N,Net-(U3-CKS)*%
X90017600Y-67194001D03*
%TD*%
D12*
%TO.P,C6,2*%
%TO.N,GND*%
X78872000Y-73152000D03*
%TO.P,C6,1*%
%TO.N,+3V3*%
X80772000Y-73152000D03*
%TD*%
D18*
%TO.P,U2,1,OUT*%
%TO.N,Net-(U2-OUT)*%
X71380350Y-65470999D03*
%TO.P,U2,2,V-*%
%TO.N,GND*%
X71380350Y-66421000D03*
%TO.P,U2,3,+IN*%
%TO.N,Net-(U2-+IN)*%
X71380350Y-67371001D03*
%TO.P,U2,4,-IN*%
%TO.N,Net-(U2--IN)*%
X73907650Y-67371001D03*
%TO.P,U2,5,V+*%
%TO.N,+3V3*%
X73907650Y-65470999D03*
%TD*%
D12*
%TO.P,C11,1*%
%TO.N,Net-(U3-VCOM)*%
X82677000Y-61468000D03*
%TO.P,C11,2*%
%TO.N,GND*%
X80777000Y-61468000D03*
%TD*%
D19*
%TO.P,R3,1*%
%TO.N,Net-(U2-+IN)*%
X64325500Y-69850000D03*
%TO.P,R3,2*%
%TO.N,GND*%
X64325500Y-71675000D03*
%TD*%
%TO.P,R2,1*%
%TO.N,Net-(C1-Pad1)*%
X66548000Y-55278000D03*
%TO.P,R2,2*%
%TO.N,Net-(C2-Pad1)*%
X66548000Y-57103000D03*
%TD*%
D16*
%TO.P,TP2,1,1*%
%TO.N,Net-(U2-+IN)*%
X68580000Y-67437000D03*
%TD*%
D12*
%TO.P,C8,1*%
%TO.N,GND*%
X80883000Y-67968999D03*
%TO.P,C8,2*%
%TO.N,+3V3*%
X78983000Y-67968999D03*
%TD*%
D10*
%TO.P,R6,1*%
%TO.N,Net-(U2-OUT)*%
X65659000Y-76200000D03*
%TO.P,R6,2*%
%TO.N,Net-(U2--IN)*%
X67484000Y-76200000D03*
%TD*%
D20*
%TO.P,J2,1,1*%
%TO.N,Net-(U3-SDTO)*%
X95144000Y-72330000D03*
%TO.P,J2,2,2*%
%TO.N,Net-(U3-LRCK)*%
X95144000Y-71080000D03*
%TO.P,J2,3,3*%
%TO.N,Net-(U3-MCLK)*%
X95144000Y-69830000D03*
%TO.P,J2,4,4*%
%TO.N,Net-(U3-BICK)*%
X95144000Y-68580000D03*
%TO.P,J2,5,5*%
%TO.N,+3V3*%
X95144000Y-67330000D03*
%TO.P,J2,6,6*%
%TO.N,GND*%
X95144000Y-66080000D03*
%TO.P,J2,7,7*%
%TO.N,unconnected-(J2-Pad7)*%
X95144000Y-64830000D03*
D21*
%TO.P,J2,S1,SHIELD1*%
%TO.N,GND*%
X98044000Y-74880000D03*
%TO.P,J2,S2,SHIELD2*%
X98044000Y-62280000D03*
%TD*%
D11*
%TO.P,C3,1*%
%TO.N,GND*%
X57028000Y-79756000D03*
%TO.P,C3,2*%
%TO.N,Net-(C3-Pad2)*%
X58928000Y-79756000D03*
%TD*%
%TO.P,C7,1*%
%TO.N,Net-(U2-OUT)*%
X78872000Y-65532000D03*
%TO.P,C7,2*%
%TO.N,Net-(U3-LIN)*%
X80772000Y-65532000D03*
%TD*%
D22*
%TO.P,J1,1,Pin_1*%
%TO.N,Net-(J1-Pin_1)*%
X83820000Y-55626000D03*
D23*
%TO.P,J1,2,Pin_2*%
%TO.N,Net-(J1-Pin_2)*%
X86360000Y-55626000D03*
%TO.P,J1,3,Pin_3*%
%TO.N,Net-(J1-Pin_3)*%
X88900000Y-55626000D03*
%TD*%
D19*
%TO.P,R4,1*%
%TO.N,Net-(C1-Pad1)*%
X71755000Y-55325000D03*
%TO.P,R4,2*%
%TO.N,Net-(U2-+IN)*%
X71755000Y-57150000D03*
%TD*%
D11*
%TO.P,C9,1*%
%TO.N,Net-(U3-GSEL)*%
X84394000Y-75184000D03*
%TO.P,C9,2*%
%TO.N,GND*%
X86294000Y-75184000D03*
%TD*%
D24*
%TO.N,GND*%
X58928000Y-63500000D03*
X57404000Y-81280000D03*
D25*
X54610000Y-54610000D03*
X97790000Y-54610000D03*
D24*
X92837000Y-65278000D03*
X70104000Y-64516000D03*
D25*
X54610000Y-85090000D03*
D24*
X97155000Y-78486000D03*
X86934000Y-77470000D03*
X82169000Y-69342000D03*
X85598000Y-58547000D03*
X80137000Y-58547000D03*
D25*
X97790000Y-85090000D03*
D24*
X97409000Y-58674000D03*
X91506000Y-77470000D03*
X63436500Y-73660000D03*
%TO.N,+3V3*%
X82423000Y-74803000D03*
X75819000Y-68072000D03*
%TD*%
D26*
%TO.N,GND*%
X60075293Y-62352707D02*
X58928000Y-63500000D01*
X60075293Y-61467293D02*
X60075293Y-62352707D01*
%TO.N,Net-(C3-Pad2)*%
X58928000Y-79756000D02*
X60080000Y-80908000D01*
X60080000Y-80908000D02*
X61967000Y-80908000D01*
X61967000Y-80908000D02*
X62992000Y-79883000D01*
%TO.N,GND*%
X57028000Y-80904000D02*
X57404000Y-81280000D01*
X57028000Y-79756000D02*
X57028000Y-80904000D01*
%TO.N,Net-(C1-Pad1)*%
X61975293Y-61467293D02*
X61975293Y-59850707D01*
X61975293Y-59850707D02*
X66548000Y-55278000D01*
%TO.N,GND*%
X78872000Y-73152000D02*
X82169000Y-69855000D01*
X82169000Y-69855000D02*
X82169000Y-69342000D01*
X80772000Y-70866000D02*
X80772000Y-70739000D01*
X80772000Y-70739000D02*
X82169000Y-69342000D01*
X80883000Y-67968999D02*
X80883000Y-68056000D01*
X80883000Y-68056000D02*
X82169000Y-69342000D01*
%TO.N,Net-(U3-LIN)*%
X80772000Y-65532000D02*
X81105601Y-65532000D01*
X81105601Y-65532000D02*
X83417600Y-67843999D01*
X83417600Y-67843999D02*
X84226400Y-67843999D01*
%TO.N,Net-(U2-OUT)*%
X78872000Y-65532000D02*
X77724000Y-64384000D01*
X77724000Y-64384000D02*
X77724000Y-61595000D01*
%TO.N,Net-(C1-Pad1)*%
X71708000Y-55278000D02*
X71755000Y-55325000D01*
X60277293Y-59769293D02*
X60277293Y-55879293D01*
X66548000Y-55278000D02*
X71708000Y-55278000D01*
X61975293Y-61467293D02*
X60277293Y-59769293D01*
X61975293Y-61467293D02*
X62262293Y-61467293D01*
%TO.N,GND*%
X86313000Y-61595000D02*
X86313000Y-59262000D01*
X70104000Y-65303400D02*
X70104000Y-64516000D01*
X90805000Y-75184000D02*
X90805000Y-76769000D01*
X80777000Y-61468000D02*
X80777000Y-59187000D01*
X63436500Y-73660000D02*
X63436500Y-72564000D01*
X82367001Y-69143999D02*
X82169000Y-69342000D01*
X98044000Y-77597000D02*
X98044000Y-74880000D01*
X90805000Y-76769000D02*
X91506000Y-77470000D01*
X71221600Y-66421000D02*
X70104000Y-65303400D01*
X95144000Y-66080000D02*
X93639000Y-66080000D01*
X86313000Y-59262000D02*
X85598000Y-58547000D01*
X93639000Y-66080000D02*
X92837000Y-65278000D01*
X98044000Y-62280000D02*
X98044000Y-59309000D01*
X98044000Y-59309000D02*
X97409000Y-58674000D01*
X84226400Y-69143999D02*
X82367001Y-69143999D01*
X63436500Y-72564000D02*
X64325500Y-71675000D01*
X97155000Y-78486000D02*
X98044000Y-77597000D01*
X86934000Y-77470000D02*
X86294000Y-76830000D01*
X71380350Y-66421000D02*
X71221600Y-66421000D01*
X71380350Y-66421000D02*
X71247000Y-66421000D01*
X80777000Y-59187000D02*
X80137000Y-58547000D01*
X86294000Y-76830000D02*
X86294000Y-75184000D01*
%TO.N,Net-(U2-+IN)*%
X64457500Y-67437000D02*
X64325500Y-67305000D01*
X64325500Y-67305000D02*
X64325500Y-69850000D01*
X72136000Y-57531000D02*
X71755000Y-57150000D01*
X71314351Y-67437000D02*
X71380350Y-67371001D01*
X69342000Y-67437000D02*
X71314351Y-67437000D01*
X71755000Y-57150000D02*
X71755000Y-59875500D01*
X69342000Y-67437000D02*
X64457500Y-67437000D01*
X71755000Y-59875500D02*
X64325500Y-67305000D01*
%TO.N,Net-(U2--IN)*%
X73907650Y-67371001D02*
X74422000Y-67885351D01*
X74422000Y-67885351D02*
X74422000Y-71780173D01*
X64826000Y-78858000D02*
X62192000Y-78858000D01*
X69151000Y-84660173D02*
X68814173Y-84997000D01*
X61167000Y-79803000D02*
X61167000Y-79883000D01*
X74422000Y-71780173D02*
X69151000Y-77051173D01*
X68814173Y-84997000D02*
X67476000Y-84997000D01*
X67476000Y-84997000D02*
X66426000Y-83947000D01*
X66426000Y-81791327D02*
X63492673Y-78858000D01*
X62192000Y-78858000D02*
X61167000Y-79883000D01*
X63492673Y-78858000D02*
X62192000Y-78858000D01*
X69151000Y-77051173D02*
X69151000Y-84660173D01*
X67484000Y-76200000D02*
X64826000Y-78858000D01*
X66426000Y-83947000D02*
X66426000Y-81791327D01*
%TO.N,Net-(U2-OUT)*%
X71380350Y-65470999D02*
X71539100Y-65470999D01*
X74104350Y-62747000D02*
X71380350Y-65470999D01*
X71380350Y-65470999D02*
X71696299Y-65470999D01*
X67984673Y-75175000D02*
X66684000Y-75175000D01*
X71380350Y-65470999D02*
X71933950Y-64917399D01*
X68326000Y-83947000D02*
X68326000Y-75516327D01*
X71380350Y-65470999D02*
X71221600Y-65470999D01*
X76572000Y-62747000D02*
X74104350Y-62747000D01*
X72092700Y-66024599D02*
X72092700Y-69766300D01*
X68326000Y-75516327D02*
X67984673Y-75175000D01*
X77724000Y-61595000D02*
X76572000Y-62747000D01*
X72092700Y-69766300D02*
X65659000Y-76200000D01*
X66684000Y-75175000D02*
X65659000Y-76200000D01*
X71539100Y-65470999D02*
X72092700Y-66024599D01*
X71380350Y-65470999D02*
X71155828Y-65470999D01*
%TO.N,+3V3*%
X82677000Y-74549000D02*
X82423000Y-74803000D01*
X84226400Y-69793998D02*
X83781900Y-69793998D01*
X83781900Y-69793998D02*
X82677000Y-70898898D01*
X75819000Y-68072000D02*
X75819000Y-67382349D01*
X75819000Y-67382349D02*
X73907650Y-65470999D01*
X82677000Y-70898898D02*
X82677000Y-74549000D01*
X84226400Y-70443999D02*
X84226400Y-69793998D01*
X84899501Y-70443999D02*
X84226400Y-70443999D01*
%TO.N,Net-(U3-LIN)*%
X84226400Y-67843999D02*
X84226400Y-68494001D01*
%TO.N,Net-(U3-GSEL)*%
X84394000Y-75184000D02*
X83342600Y-74132600D01*
X83342600Y-74132600D02*
X83342600Y-71168998D01*
X83342600Y-71168998D02*
X83417600Y-71093998D01*
X83417600Y-71093998D02*
X84226400Y-71093998D01*
%TO.N,Net-(U3-REGO)*%
X85464999Y-71743999D02*
X88905000Y-75184000D01*
X88905000Y-75184000D02*
X88905000Y-74964599D01*
X84226400Y-71743999D02*
X85464999Y-71743999D01*
%TO.N,Net-(U3-VCOM)*%
X84226400Y-63017400D02*
X84226400Y-67194001D01*
X82677000Y-61468000D02*
X84226400Y-63017400D01*
%TO.N,Net-(U3-CKS)*%
X88138000Y-61595000D02*
X90017600Y-63474600D01*
X90017600Y-63474600D02*
X90017600Y-67194001D01*
%TO.N,Net-(J1-Pin_1)*%
X91226398Y-69144002D02*
X90017600Y-69144002D01*
X85445000Y-54001000D02*
X90959396Y-54001000D01*
X91801400Y-68569000D02*
X91226398Y-69144002D01*
X90959396Y-54001000D02*
X91801400Y-54843004D01*
X83820000Y-55626000D02*
X85445000Y-54001000D01*
X91801400Y-54843004D02*
X91801400Y-68569000D01*
%TO.N,Net-(J1-Pin_2)*%
X91351400Y-67969001D02*
X90826400Y-68494001D01*
X90826400Y-68494001D02*
X90017600Y-68494001D01*
X87535000Y-54451000D02*
X90773000Y-54451000D01*
X86360000Y-55626000D02*
X87535000Y-54451000D01*
X91351400Y-55029400D02*
X91351400Y-67969001D01*
X90773000Y-54451000D02*
X91351400Y-55029400D01*
%TO.N,Net-(J1-Pin_3)*%
X90901400Y-57627400D02*
X90901400Y-67769002D01*
X90826400Y-67844002D02*
X90017600Y-67844002D01*
X88900000Y-55626000D02*
X90901400Y-57627400D01*
X90901400Y-67769002D02*
X90826400Y-67844002D01*
%TO.N,Net-(C2-Pad1)*%
X64325500Y-65405000D02*
X64026800Y-65405000D01*
X64325500Y-59325500D02*
X66548000Y-57103000D01*
X64026800Y-65405000D02*
X58057800Y-71374000D01*
X64325500Y-65405000D02*
X64325500Y-59325500D01*
%TO.N,Net-(U3-BICK)*%
X94544000Y-68580000D02*
X95144000Y-68580000D01*
X93329999Y-69794001D02*
X94544000Y-68580000D01*
X90017600Y-69794001D02*
X93329999Y-69794001D01*
%TO.N,Net-(U3-MCLK)*%
X94094000Y-69830000D02*
X95144000Y-69830000D01*
X93480001Y-70443999D02*
X94094000Y-69830000D01*
X90017600Y-70443999D02*
X93480001Y-70443999D01*
X95144000Y-69830000D02*
X94784001Y-70189999D01*
%TO.N,Net-(U3-LRCK)*%
X95129999Y-71094001D02*
X95144000Y-71080000D01*
X90017600Y-71094001D02*
X95129999Y-71094001D01*
X95144000Y-71080000D02*
X94904001Y-70840001D01*
%TO.N,Net-(U3-SDTO)*%
X90603601Y-72330000D02*
X95144000Y-72330000D01*
X90017600Y-71743999D02*
X90603601Y-72330000D01*
%TD*%
%TA.AperFunction,Conductor*%
%TO.N,+3V3*%
G36*
X97791513Y-50800575D02*
G01*
X97854875Y-50803687D01*
X97942455Y-50807989D01*
X98168034Y-50819812D01*
X98173842Y-50820393D01*
X98353383Y-50847025D01*
X98550138Y-50878188D01*
X98555449Y-50879271D01*
X98736852Y-50924711D01*
X98897397Y-50967730D01*
X98924283Y-50974934D01*
X98929127Y-50976446D01*
X99107420Y-51040240D01*
X99286749Y-51109078D01*
X99290992Y-51110893D01*
X99463402Y-51192437D01*
X99633703Y-51279210D01*
X99637403Y-51281259D01*
X99801713Y-51379743D01*
X99961623Y-51483590D01*
X99964789Y-51485789D01*
X100119105Y-51600237D01*
X100267201Y-51720162D01*
X100269820Y-51722407D01*
X100411313Y-51850648D01*
X100413517Y-51852747D01*
X100547251Y-51986481D01*
X100549350Y-51988685D01*
X100677591Y-52130178D01*
X100679836Y-52132797D01*
X100799762Y-52280894D01*
X100914209Y-52435209D01*
X100916408Y-52438375D01*
X101020260Y-52598292D01*
X101118730Y-52762579D01*
X101120794Y-52766307D01*
X101207567Y-52936609D01*
X101289094Y-53108982D01*
X101290930Y-53113274D01*
X101359762Y-53292588D01*
X101423552Y-53470873D01*
X101425064Y-53475715D01*
X101475295Y-53663174D01*
X101520721Y-53844524D01*
X101521816Y-53849893D01*
X101552980Y-54046660D01*
X101579602Y-54226131D01*
X101580188Y-54231987D01*
X101592014Y-54457627D01*
X101599425Y-54608487D01*
X101599500Y-54611530D01*
X101599500Y-85088469D01*
X101599425Y-85091512D01*
X101592014Y-85242372D01*
X101580188Y-85468011D01*
X101579602Y-85473867D01*
X101552980Y-85653339D01*
X101521816Y-85850105D01*
X101520721Y-85855474D01*
X101475295Y-86036825D01*
X101425064Y-86224283D01*
X101423552Y-86229124D01*
X101359762Y-86407411D01*
X101290930Y-86586725D01*
X101289094Y-86591016D01*
X101207567Y-86763390D01*
X101120793Y-86933691D01*
X101118730Y-86937419D01*
X101020260Y-87101707D01*
X100916408Y-87261623D01*
X100914209Y-87264789D01*
X100799762Y-87419105D01*
X100679835Y-87567201D01*
X100677591Y-87569820D01*
X100549350Y-87711313D01*
X100547251Y-87713517D01*
X100413517Y-87847251D01*
X100411313Y-87849350D01*
X100269820Y-87977591D01*
X100267201Y-87979835D01*
X100119105Y-88099762D01*
X99964789Y-88214209D01*
X99961623Y-88216408D01*
X99801707Y-88320260D01*
X99637419Y-88418730D01*
X99633691Y-88420793D01*
X99463390Y-88507567D01*
X99291016Y-88589094D01*
X99286725Y-88590930D01*
X99107411Y-88659762D01*
X98929124Y-88723552D01*
X98924283Y-88725064D01*
X98736825Y-88775295D01*
X98555474Y-88820721D01*
X98550105Y-88821816D01*
X98353339Y-88852980D01*
X98173868Y-88879602D01*
X98168012Y-88880188D01*
X97974989Y-88890304D01*
X97971590Y-88890389D01*
X53687788Y-88780775D01*
X53660011Y-88777553D01*
X53596862Y-88762869D01*
X53591981Y-88761521D01*
X53478281Y-88725064D01*
X53411602Y-88703683D01*
X53229979Y-88640823D01*
X53225629Y-88639132D01*
X53050539Y-88563352D01*
X52877329Y-88482248D01*
X52873534Y-88480310D01*
X52705983Y-88387326D01*
X52542574Y-88288787D01*
X52539336Y-88286695D01*
X52475221Y-88242377D01*
X52381239Y-88177414D01*
X52229099Y-88062387D01*
X52226407Y-88060231D01*
X52128884Y-87977591D01*
X52080670Y-87936734D01*
X52078429Y-87934737D01*
X51940169Y-87805397D01*
X51937998Y-87803264D01*
X51805078Y-87666085D01*
X51802748Y-87663542D01*
X51677860Y-87519414D01*
X51634456Y-87464793D01*
X51558264Y-87368909D01*
X51556003Y-87365874D01*
X51446794Y-87209380D01*
X51342850Y-87048378D01*
X51340663Y-87044721D01*
X51313205Y-86995000D01*
X51248212Y-86877310D01*
X51160919Y-86707615D01*
X51158968Y-86703441D01*
X51084157Y-86526420D01*
X51014404Y-86350213D01*
X51012751Y-86345479D01*
X50956271Y-86159688D01*
X50904782Y-85979789D01*
X50903526Y-85974532D01*
X50865811Y-85778852D01*
X50833190Y-85600179D01*
X50832413Y-85594370D01*
X50813078Y-85369274D01*
X50800709Y-85219516D01*
X50800500Y-85214429D01*
X50800500Y-85090000D01*
X51945639Y-85090000D01*
X51965064Y-85411147D01*
X51965064Y-85411152D01*
X51965065Y-85411153D01*
X52023060Y-85727623D01*
X52023061Y-85727627D01*
X52023062Y-85727631D01*
X52118772Y-86034776D01*
X52118776Y-86034787D01*
X52118777Y-86034790D01*
X52118779Y-86034795D01*
X52250825Y-86328190D01*
X52370639Y-86526386D01*
X52417273Y-86603528D01*
X52417279Y-86603537D01*
X52615699Y-86856801D01*
X52843198Y-87084300D01*
X53002835Y-87209368D01*
X53096470Y-87282726D01*
X53371810Y-87449175D01*
X53665205Y-87581221D01*
X53665215Y-87581224D01*
X53665223Y-87581227D01*
X53741132Y-87604881D01*
X53972377Y-87676940D01*
X54288847Y-87734935D01*
X54610000Y-87754361D01*
X54931153Y-87734935D01*
X55247623Y-87676940D01*
X55554795Y-87581221D01*
X55848190Y-87449175D01*
X56123530Y-87282726D01*
X56376798Y-87084303D01*
X56604303Y-86856798D01*
X56802726Y-86603530D01*
X56969175Y-86328190D01*
X57101221Y-86034795D01*
X57196940Y-85727623D01*
X57254935Y-85411153D01*
X57274361Y-85090000D01*
X57254935Y-84768847D01*
X57196940Y-84452377D01*
X57101221Y-84145205D01*
X56969175Y-83851810D01*
X56802726Y-83576470D01*
X56681699Y-83421991D01*
X56604300Y-83323198D01*
X56376801Y-83095699D01*
X56123537Y-82897279D01*
X56123532Y-82897276D01*
X56123530Y-82897274D01*
X55848190Y-82730825D01*
X55554795Y-82598779D01*
X55554790Y-82598777D01*
X55554787Y-82598776D01*
X55554776Y-82598772D01*
X55247631Y-82503062D01*
X55247627Y-82503061D01*
X55247623Y-82503060D01*
X54931153Y-82445065D01*
X54931152Y-82445064D01*
X54931147Y-82445064D01*
X54637847Y-82427323D01*
X54610000Y-82425639D01*
X54609999Y-82425639D01*
X54288852Y-82445064D01*
X54288846Y-82445065D01*
X54288847Y-82445065D01*
X53972377Y-82503060D01*
X53972374Y-82503060D01*
X53972368Y-82503062D01*
X53665223Y-82598772D01*
X53665212Y-82598776D01*
X53665206Y-82598778D01*
X53665205Y-82598779D01*
X53539172Y-82655501D01*
X53371814Y-82730823D01*
X53371812Y-82730824D01*
X53096471Y-82897273D01*
X53096462Y-82897279D01*
X52843198Y-83095699D01*
X52615699Y-83323198D01*
X52417279Y-83576462D01*
X52417273Y-83576471D01*
X52250824Y-83851812D01*
X52250823Y-83851814D01*
X52118776Y-84145212D01*
X52118772Y-84145223D01*
X52023062Y-84452368D01*
X52023060Y-84452374D01*
X52023060Y-84452377D01*
X51990922Y-84627750D01*
X51965064Y-84768852D01*
X51945639Y-85090000D01*
X50800500Y-85090000D01*
X50800500Y-80281001D01*
X56027500Y-80281001D01*
X56027501Y-80281019D01*
X56038000Y-80383796D01*
X56038001Y-80383799D01*
X56093185Y-80550331D01*
X56093186Y-80550334D01*
X56102807Y-80565932D01*
X56121973Y-80597005D01*
X56126014Y-80604720D01*
X56128189Y-80609693D01*
X56128190Y-80609697D01*
X56425818Y-81089666D01*
X56439511Y-81120417D01*
X56449382Y-81154391D01*
X56459579Y-81171634D01*
X56468137Y-81189102D01*
X56478385Y-81214983D01*
X56477103Y-81215490D01*
X56486548Y-81243157D01*
X56503052Y-81348425D01*
X56505457Y-81362469D01*
X56506266Y-81365663D01*
X56509378Y-81383129D01*
X56518326Y-81468256D01*
X56518327Y-81468258D01*
X56518327Y-81468260D01*
X56576818Y-81648277D01*
X56576821Y-81648284D01*
X56671467Y-81812216D01*
X56727160Y-81874069D01*
X56798129Y-81952888D01*
X56951265Y-82064148D01*
X56951270Y-82064151D01*
X57124192Y-82141142D01*
X57124197Y-82141144D01*
X57309354Y-82180500D01*
X57309355Y-82180500D01*
X57498644Y-82180500D01*
X57498646Y-82180500D01*
X57683803Y-82141144D01*
X57856730Y-82064151D01*
X58009871Y-81952888D01*
X58136533Y-81812216D01*
X58231179Y-81648284D01*
X58289674Y-81468256D01*
X58309460Y-81280000D01*
X58289674Y-81091744D01*
X58289669Y-81091731D01*
X58289173Y-81089392D01*
X58289279Y-81087996D01*
X58288994Y-81085281D01*
X58289490Y-81085228D01*
X58294488Y-81019725D01*
X58336624Y-80963990D01*
X58402203Y-80939883D01*
X58449464Y-80945901D01*
X58525203Y-80970999D01*
X58627991Y-80981500D01*
X58840077Y-80981499D01*
X58874213Y-80986290D01*
X59403139Y-81137747D01*
X59456684Y-81169274D01*
X59579199Y-81291790D01*
X59589022Y-81304051D01*
X59589243Y-81303869D01*
X59594214Y-81309878D01*
X59613698Y-81328174D01*
X59644635Y-81357226D01*
X59665529Y-81378120D01*
X59671011Y-81382373D01*
X59675443Y-81386157D01*
X59709418Y-81418062D01*
X59726976Y-81427714D01*
X59743233Y-81438393D01*
X59759064Y-81450673D01*
X59778737Y-81459186D01*
X59801833Y-81469182D01*
X59807077Y-81471750D01*
X59847908Y-81494197D01*
X59860523Y-81497435D01*
X59867305Y-81499177D01*
X59885719Y-81505481D01*
X59904104Y-81513438D01*
X59950157Y-81520732D01*
X59955826Y-81521906D01*
X60000981Y-81533500D01*
X60021016Y-81533500D01*
X60040413Y-81535026D01*
X60060196Y-81538160D01*
X60106583Y-81533775D01*
X60112422Y-81533500D01*
X61884257Y-81533500D01*
X61899877Y-81535224D01*
X61899904Y-81534939D01*
X61907660Y-81535671D01*
X61907667Y-81535673D01*
X61976814Y-81533500D01*
X62006350Y-81533500D01*
X62013228Y-81532630D01*
X62019041Y-81532172D01*
X62065627Y-81530709D01*
X62084869Y-81525117D01*
X62103912Y-81521174D01*
X62123792Y-81518664D01*
X62167122Y-81501507D01*
X62172646Y-81499617D01*
X62176396Y-81498527D01*
X62217390Y-81486618D01*
X62234629Y-81476422D01*
X62252103Y-81467862D01*
X62270727Y-81460488D01*
X62270727Y-81460487D01*
X62270732Y-81460486D01*
X62308449Y-81433082D01*
X62313305Y-81429892D01*
X62353420Y-81406170D01*
X62367589Y-81391999D01*
X62382379Y-81379368D01*
X62398587Y-81367594D01*
X62428299Y-81331676D01*
X62432212Y-81327376D01*
X62454154Y-81305434D01*
X62504492Y-81274873D01*
X63092310Y-81089253D01*
X63129649Y-81083499D01*
X63304502Y-81083499D01*
X63304508Y-81083499D01*
X63407297Y-81072999D01*
X63573834Y-81017814D01*
X63723156Y-80925712D01*
X63847212Y-80801656D01*
X63939314Y-80652334D01*
X63991343Y-80495321D01*
X64031113Y-80437879D01*
X64095629Y-80411055D01*
X64164405Y-80423370D01*
X64196728Y-80446646D01*
X65764180Y-82014097D01*
X65797665Y-82075420D01*
X65800499Y-82101778D01*
X65800499Y-82552659D01*
X65785424Y-82611916D01*
X65504793Y-83127762D01*
X65503417Y-83130637D01*
X65503322Y-83130591D01*
X65496007Y-83144847D01*
X65491185Y-83152665D01*
X65491184Y-83152667D01*
X65479456Y-83188059D01*
X65477826Y-83192421D01*
X65464749Y-83223775D01*
X65464744Y-83223791D01*
X65463365Y-83228380D01*
X65459534Y-83241789D01*
X65458570Y-83246549D01*
X65458265Y-83246487D01*
X65454415Y-83263629D01*
X65436001Y-83319199D01*
X65425500Y-83421983D01*
X65425500Y-84472001D01*
X65425501Y-84472019D01*
X65436000Y-84574796D01*
X65436001Y-84574799D01*
X65455482Y-84633588D01*
X65491186Y-84741334D01*
X65583288Y-84890656D01*
X65707344Y-85014712D01*
X65856666Y-85106814D01*
X66023203Y-85161999D01*
X66125991Y-85172500D01*
X66338077Y-85172499D01*
X66372213Y-85177290D01*
X66505505Y-85215458D01*
X66901138Y-85328747D01*
X66954684Y-85360275D01*
X66975197Y-85380788D01*
X66985022Y-85393051D01*
X66985243Y-85392869D01*
X66990214Y-85398878D01*
X67011044Y-85418438D01*
X67040635Y-85446226D01*
X67061529Y-85467120D01*
X67067011Y-85471373D01*
X67071443Y-85475157D01*
X67105418Y-85507062D01*
X67122976Y-85516714D01*
X67139235Y-85527395D01*
X67155064Y-85539673D01*
X67197838Y-85558182D01*
X67203056Y-85560738D01*
X67243908Y-85583197D01*
X67263316Y-85588180D01*
X67281717Y-85594480D01*
X67300104Y-85602437D01*
X67343488Y-85609308D01*
X67346119Y-85609725D01*
X67351839Y-85610909D01*
X67396981Y-85622500D01*
X67417016Y-85622500D01*
X67436414Y-85624026D01*
X67456194Y-85627159D01*
X67456195Y-85627160D01*
X67456195Y-85627159D01*
X67456196Y-85627160D01*
X67502583Y-85622775D01*
X67508422Y-85622500D01*
X68731430Y-85622500D01*
X68747050Y-85624224D01*
X68747077Y-85623939D01*
X68754833Y-85624671D01*
X68754840Y-85624673D01*
X68823987Y-85622500D01*
X68853523Y-85622500D01*
X68860401Y-85621630D01*
X68866214Y-85621172D01*
X68912800Y-85619709D01*
X68932042Y-85614117D01*
X68951085Y-85610174D01*
X68970965Y-85607664D01*
X69014295Y-85590507D01*
X69019819Y-85588617D01*
X69023569Y-85587527D01*
X69064563Y-85575618D01*
X69081802Y-85565422D01*
X69099276Y-85556862D01*
X69117900Y-85549488D01*
X69117900Y-85549487D01*
X69117905Y-85549486D01*
X69155622Y-85522082D01*
X69160478Y-85518892D01*
X69200593Y-85495170D01*
X69214759Y-85481003D01*
X69229554Y-85468368D01*
X69245757Y-85456596D01*
X69245756Y-85456596D01*
X69245760Y-85456594D01*
X69275472Y-85420676D01*
X69279384Y-85416378D01*
X69534785Y-85160976D01*
X69547046Y-85151156D01*
X69546862Y-85150934D01*
X69552870Y-85145963D01*
X69552877Y-85145959D01*
X69600227Y-85095536D01*
X69605763Y-85090000D01*
X95125639Y-85090000D01*
X95145064Y-85411147D01*
X95145064Y-85411152D01*
X95145065Y-85411153D01*
X95203060Y-85727623D01*
X95203061Y-85727627D01*
X95203062Y-85727631D01*
X95298772Y-86034776D01*
X95298776Y-86034787D01*
X95298777Y-86034790D01*
X95298779Y-86034795D01*
X95430825Y-86328190D01*
X95550639Y-86526386D01*
X95597273Y-86603528D01*
X95597279Y-86603537D01*
X95795699Y-86856801D01*
X96023198Y-87084300D01*
X96182835Y-87209368D01*
X96276470Y-87282726D01*
X96551810Y-87449175D01*
X96845205Y-87581221D01*
X96845215Y-87581224D01*
X96845223Y-87581227D01*
X96921132Y-87604881D01*
X97152377Y-87676940D01*
X97468847Y-87734935D01*
X97790000Y-87754361D01*
X98111153Y-87734935D01*
X98427623Y-87676940D01*
X98734795Y-87581221D01*
X99028190Y-87449175D01*
X99303530Y-87282726D01*
X99556798Y-87084303D01*
X99784303Y-86856798D01*
X99982726Y-86603530D01*
X100149175Y-86328190D01*
X100281221Y-86034795D01*
X100376940Y-85727623D01*
X100434935Y-85411153D01*
X100454361Y-85090000D01*
X100434935Y-84768847D01*
X100376940Y-84452377D01*
X100281221Y-84145205D01*
X100149175Y-83851810D01*
X99982726Y-83576470D01*
X99861699Y-83421991D01*
X99784300Y-83323198D01*
X99556801Y-83095699D01*
X99303537Y-82897279D01*
X99303532Y-82897276D01*
X99303530Y-82897274D01*
X99028190Y-82730825D01*
X98734795Y-82598779D01*
X98734790Y-82598777D01*
X98734787Y-82598776D01*
X98734776Y-82598772D01*
X98427631Y-82503062D01*
X98427627Y-82503061D01*
X98427623Y-82503060D01*
X98111153Y-82445065D01*
X98111152Y-82445064D01*
X98111147Y-82445064D01*
X97790000Y-82425639D01*
X97468852Y-82445064D01*
X97468846Y-82445065D01*
X97468847Y-82445065D01*
X97152377Y-82503060D01*
X97152374Y-82503060D01*
X97152368Y-82503062D01*
X96845223Y-82598772D01*
X96845212Y-82598776D01*
X96845206Y-82598778D01*
X96845205Y-82598779D01*
X96719172Y-82655501D01*
X96551814Y-82730823D01*
X96551812Y-82730824D01*
X96276471Y-82897273D01*
X96276462Y-82897279D01*
X96023198Y-83095699D01*
X95795699Y-83323198D01*
X95597279Y-83576462D01*
X95597273Y-83576471D01*
X95430824Y-83851812D01*
X95430823Y-83851814D01*
X95298776Y-84145212D01*
X95298772Y-84145223D01*
X95203062Y-84452368D01*
X95203060Y-84452374D01*
X95203060Y-84452377D01*
X95170922Y-84627750D01*
X95145064Y-84768852D01*
X95125639Y-85090000D01*
X69605763Y-85090000D01*
X69621120Y-85074644D01*
X69625379Y-85069151D01*
X69629152Y-85064734D01*
X69661062Y-85030755D01*
X69670713Y-85013197D01*
X69681396Y-84996934D01*
X69693673Y-84981109D01*
X69712185Y-84938326D01*
X69714738Y-84933114D01*
X69737197Y-84892265D01*
X69742180Y-84872853D01*
X69748481Y-84854453D01*
X69756437Y-84836069D01*
X69763729Y-84790025D01*
X69764906Y-84784344D01*
X69776500Y-84739192D01*
X69776500Y-84719156D01*
X69778027Y-84699755D01*
X69781160Y-84679977D01*
X69776775Y-84633588D01*
X69776500Y-84627750D01*
X69776500Y-77361624D01*
X69796185Y-77294585D01*
X69812814Y-77273948D01*
X74805786Y-72280975D01*
X74818048Y-72271153D01*
X74817865Y-72270932D01*
X74823867Y-72265965D01*
X74823877Y-72265959D01*
X74871241Y-72215521D01*
X74892120Y-72194643D01*
X74896373Y-72189159D01*
X74900150Y-72184736D01*
X74932062Y-72150755D01*
X74941714Y-72133196D01*
X74952389Y-72116945D01*
X74964674Y-72101109D01*
X74983186Y-72058325D01*
X74985742Y-72053108D01*
X75008197Y-72012265D01*
X75013180Y-71992853D01*
X75019477Y-71974464D01*
X75027438Y-71956068D01*
X75034729Y-71910026D01*
X75035908Y-71904335D01*
X75047500Y-71859192D01*
X75047500Y-71839155D01*
X75049027Y-71819755D01*
X75052160Y-71799977D01*
X75047775Y-71753588D01*
X75047500Y-71747750D01*
X75047500Y-70616000D01*
X77872000Y-70616000D01*
X78622000Y-70616000D01*
X78622000Y-69641000D01*
X78621999Y-69640999D01*
X78572029Y-69641000D01*
X78572011Y-69641001D01*
X78469302Y-69651494D01*
X78302880Y-69706641D01*
X78302875Y-69706643D01*
X78153654Y-69798684D01*
X78029684Y-69922654D01*
X77937643Y-70071875D01*
X77937641Y-70071880D01*
X77882494Y-70238302D01*
X77882493Y-70238309D01*
X77872000Y-70341013D01*
X77872000Y-70616000D01*
X75047500Y-70616000D01*
X75047500Y-68218999D01*
X77983001Y-68218999D01*
X77983001Y-68493985D01*
X77993494Y-68596696D01*
X78048641Y-68763118D01*
X78048643Y-68763123D01*
X78140684Y-68912344D01*
X78264654Y-69036314D01*
X78413875Y-69128355D01*
X78413880Y-69128357D01*
X78580302Y-69183504D01*
X78580309Y-69183505D01*
X78683019Y-69193998D01*
X78732999Y-69193997D01*
X78733000Y-69193997D01*
X78733000Y-68218999D01*
X77983001Y-68218999D01*
X75047500Y-68218999D01*
X75047500Y-67968093D01*
X75049224Y-67952473D01*
X75048939Y-67952446D01*
X75049673Y-67944684D01*
X75047500Y-67875523D01*
X75047500Y-67846007D01*
X75047500Y-67846001D01*
X75046631Y-67839130D01*
X75046173Y-67833303D01*
X75045832Y-67822454D01*
X75044710Y-67786724D01*
X75039119Y-67767481D01*
X75035173Y-67748429D01*
X75032664Y-67728559D01*
X75015504Y-67685218D01*
X75013624Y-67679730D01*
X75000618Y-67634961D01*
X74990422Y-67617721D01*
X74981861Y-67600245D01*
X74974487Y-67581621D01*
X74974486Y-67581619D01*
X74947079Y-67543896D01*
X74943888Y-67539037D01*
X74920172Y-67498934D01*
X74920165Y-67498925D01*
X74906006Y-67484766D01*
X74893368Y-67469970D01*
X74881594Y-67453764D01*
X74869780Y-67443991D01*
X74851049Y-67428495D01*
X74814325Y-67377388D01*
X74803735Y-67349800D01*
X74795499Y-67305363D01*
X74795499Y-67094530D01*
X74795498Y-67094524D01*
X74794646Y-67086601D01*
X74789091Y-67034918D01*
X74787941Y-67031836D01*
X74738797Y-66900072D01*
X74738793Y-66900065D01*
X74652547Y-66784856D01*
X74652544Y-66784853D01*
X74537335Y-66698607D01*
X74537328Y-66698603D01*
X74402482Y-66648309D01*
X74402483Y-66648309D01*
X74342883Y-66641902D01*
X74342881Y-66641901D01*
X74342873Y-66641901D01*
X74342864Y-66641901D01*
X73472429Y-66641901D01*
X73472423Y-66641902D01*
X73412816Y-66648309D01*
X73277971Y-66698603D01*
X73277964Y-66698607D01*
X73162755Y-66784853D01*
X73162752Y-66784856D01*
X73076506Y-66900065D01*
X73076502Y-66900072D01*
X73026210Y-67034914D01*
X73026209Y-67034918D01*
X73019800Y-67094528D01*
X73019800Y-67094535D01*
X73019800Y-67094536D01*
X73019800Y-67647471D01*
X73019801Y-67647477D01*
X73026208Y-67707084D01*
X73076502Y-67841929D01*
X73076506Y-67841936D01*
X73162752Y-67957145D01*
X73162755Y-67957148D01*
X73277964Y-68043394D01*
X73277971Y-68043398D01*
X73322918Y-68060161D01*
X73412817Y-68093692D01*
X73472427Y-68100101D01*
X73623139Y-68100100D01*
X73689275Y-68119209D01*
X73738635Y-68150331D01*
X73784845Y-68202737D01*
X73796500Y-68255222D01*
X73796500Y-71469720D01*
X73776815Y-71536759D01*
X73760181Y-71557401D01*
X69163181Y-76154401D01*
X69101858Y-76187886D01*
X69032166Y-76182902D01*
X68976233Y-76141030D01*
X68951816Y-76075566D01*
X68951500Y-76066720D01*
X68951500Y-75599064D01*
X68953224Y-75583450D01*
X68952938Y-75583423D01*
X68953672Y-75575660D01*
X68951500Y-75506530D01*
X68951500Y-75476978D01*
X68951500Y-75476977D01*
X68950629Y-75470086D01*
X68950172Y-75464272D01*
X68948709Y-75417699D01*
X68943122Y-75398471D01*
X68939174Y-75379411D01*
X68936664Y-75359535D01*
X68919507Y-75316202D01*
X68917619Y-75310686D01*
X68904619Y-75265939D01*
X68894418Y-75248690D01*
X68885860Y-75231221D01*
X68878486Y-75212595D01*
X68878483Y-75212591D01*
X68878483Y-75212590D01*
X68851098Y-75174898D01*
X68847890Y-75170014D01*
X68824172Y-75129909D01*
X68824163Y-75129898D01*
X68810005Y-75115740D01*
X68797370Y-75100947D01*
X68785593Y-75084739D01*
X68749693Y-75055040D01*
X68745381Y-75051117D01*
X68485476Y-74791212D01*
X68475653Y-74778950D01*
X68475432Y-74779134D01*
X68470459Y-74773123D01*
X68451831Y-74755630D01*
X68420037Y-74725773D01*
X68409592Y-74715328D01*
X68399148Y-74704883D01*
X68393659Y-74700625D01*
X68389234Y-74696847D01*
X68355255Y-74664938D01*
X68355253Y-74664936D01*
X68355250Y-74664935D01*
X68337702Y-74655288D01*
X68321435Y-74644603D01*
X68307293Y-74633633D01*
X68266387Y-74576990D01*
X68262599Y-74507223D01*
X68295612Y-74447976D01*
X72476486Y-70267102D01*
X72488748Y-70257280D01*
X72488565Y-70257059D01*
X72494567Y-70252092D01*
X72494577Y-70252086D01*
X72541941Y-70201648D01*
X72562820Y-70180770D01*
X72567070Y-70175289D01*
X72570851Y-70170861D01*
X72602762Y-70136882D01*
X72612413Y-70119324D01*
X72623096Y-70103061D01*
X72635373Y-70087236D01*
X72653883Y-70044458D01*
X72656443Y-70039232D01*
X72678897Y-69998392D01*
X72683878Y-69978987D01*
X72690182Y-69960579D01*
X72692109Y-69956127D01*
X72698138Y-69942195D01*
X72705429Y-69896153D01*
X72706608Y-69890462D01*
X72718200Y-69845319D01*
X72718200Y-69825283D01*
X72719727Y-69805882D01*
X72722860Y-69786104D01*
X72718475Y-69739715D01*
X72718200Y-69733877D01*
X72718200Y-66107341D01*
X72719924Y-66091721D01*
X72719639Y-66091694D01*
X72720373Y-66083932D01*
X72718200Y-66014771D01*
X72718200Y-65985255D01*
X72718200Y-65985249D01*
X72717331Y-65978378D01*
X72716873Y-65972551D01*
X72715410Y-65925972D01*
X72709819Y-65906729D01*
X72705873Y-65887677D01*
X72703364Y-65867807D01*
X72686204Y-65824466D01*
X72684324Y-65818978D01*
X72671318Y-65774209D01*
X72668013Y-65768621D01*
X72661123Y-65756970D01*
X72652561Y-65739493D01*
X72645187Y-65720869D01*
X72645186Y-65720867D01*
X72629734Y-65699599D01*
X73020300Y-65699599D01*
X73020300Y-65747443D01*
X73026701Y-65806971D01*
X73026703Y-65806978D01*
X73076945Y-65941685D01*
X73076949Y-65941692D01*
X73163109Y-66056786D01*
X73163112Y-66056789D01*
X73278206Y-66142949D01*
X73278213Y-66142953D01*
X73412920Y-66193195D01*
X73412927Y-66193197D01*
X73472455Y-66199598D01*
X73472472Y-66199599D01*
X73679050Y-66199599D01*
X73679050Y-65699599D01*
X74136250Y-65699599D01*
X74136250Y-66199599D01*
X74342828Y-66199599D01*
X74342844Y-66199598D01*
X74402372Y-66193197D01*
X74402379Y-66193195D01*
X74537086Y-66142953D01*
X74537093Y-66142949D01*
X74652187Y-66056789D01*
X74652190Y-66056786D01*
X74738350Y-65941692D01*
X74738354Y-65941685D01*
X74788596Y-65806978D01*
X74788598Y-65806971D01*
X74794999Y-65747443D01*
X74795000Y-65747426D01*
X74795000Y-65699599D01*
X74136250Y-65699599D01*
X73679050Y-65699599D01*
X73020300Y-65699599D01*
X72629734Y-65699599D01*
X72617779Y-65683144D01*
X72614588Y-65678285D01*
X72607368Y-65666077D01*
X72590870Y-65638179D01*
X72590868Y-65638177D01*
X72590865Y-65638173D01*
X72576706Y-65624014D01*
X72564068Y-65609218D01*
X72552294Y-65593012D01*
X72535878Y-65579432D01*
X72516394Y-65563313D01*
X72512071Y-65559379D01*
X72431995Y-65479303D01*
X72398511Y-65417979D01*
X72403496Y-65348288D01*
X72431993Y-65303944D01*
X72877665Y-64858272D01*
X72938985Y-64824790D01*
X73008677Y-64829774D01*
X73064610Y-64871646D01*
X73089027Y-64937110D01*
X73077317Y-64990982D01*
X73080046Y-64992000D01*
X73026703Y-65135019D01*
X73026701Y-65135026D01*
X73020300Y-65194554D01*
X73020300Y-65242399D01*
X73679050Y-65242399D01*
X73679050Y-64742399D01*
X74136250Y-64742399D01*
X74136250Y-65242399D01*
X74795000Y-65242399D01*
X74795000Y-65194571D01*
X74794999Y-65194554D01*
X74788598Y-65135026D01*
X74788596Y-65135019D01*
X74738354Y-65000312D01*
X74738350Y-65000305D01*
X74652190Y-64885211D01*
X74652187Y-64885208D01*
X74537093Y-64799048D01*
X74537086Y-64799044D01*
X74402379Y-64748802D01*
X74402372Y-64748800D01*
X74342844Y-64742399D01*
X74136250Y-64742399D01*
X73679050Y-64742399D01*
X73472455Y-64742399D01*
X73412927Y-64748800D01*
X73412920Y-64748802D01*
X73269901Y-64802145D01*
X73268881Y-64799411D01*
X73214985Y-64811124D01*
X73149526Y-64786693D01*
X73107667Y-64730750D01*
X73102698Y-64661057D01*
X73136175Y-64599763D01*
X74327121Y-63408819D01*
X74388445Y-63375334D01*
X74414803Y-63372500D01*
X76489257Y-63372500D01*
X76504877Y-63374224D01*
X76504904Y-63373939D01*
X76512660Y-63374671D01*
X76512667Y-63374673D01*
X76581814Y-63372500D01*
X76611350Y-63372500D01*
X76618228Y-63371630D01*
X76624041Y-63371172D01*
X76670627Y-63369709D01*
X76689869Y-63364117D01*
X76708912Y-63360174D01*
X76728792Y-63357664D01*
X76772122Y-63340507D01*
X76777646Y-63338617D01*
X76781396Y-63337527D01*
X76822390Y-63325618D01*
X76839629Y-63315422D01*
X76857103Y-63306862D01*
X76875729Y-63299487D01*
X76875730Y-63299487D01*
X76875730Y-63299486D01*
X76875732Y-63299486D01*
X76901613Y-63280681D01*
X76967417Y-63257200D01*
X77035472Y-63273024D01*
X77084168Y-63323128D01*
X77098500Y-63380998D01*
X77098500Y-64301255D01*
X77096775Y-64316872D01*
X77097061Y-64316899D01*
X77096326Y-64324665D01*
X77098500Y-64393814D01*
X77098500Y-64423343D01*
X77098501Y-64423360D01*
X77099368Y-64430231D01*
X77099826Y-64436050D01*
X77101290Y-64482624D01*
X77101291Y-64482627D01*
X77106880Y-64501867D01*
X77110824Y-64520911D01*
X77113336Y-64540792D01*
X77130490Y-64584119D01*
X77132382Y-64589647D01*
X77141573Y-64621282D01*
X77145382Y-64634390D01*
X77154496Y-64649802D01*
X77155580Y-64651634D01*
X77164136Y-64669100D01*
X77171514Y-64687732D01*
X77183521Y-64704259D01*
X77198898Y-64725423D01*
X77202106Y-64730307D01*
X77225827Y-64770416D01*
X77225833Y-64770424D01*
X77239990Y-64784580D01*
X77252627Y-64799375D01*
X77264406Y-64815587D01*
X77292578Y-64838893D01*
X77300309Y-64845288D01*
X77304620Y-64849210D01*
X77419414Y-64964004D01*
X77489762Y-65034352D01*
X77515066Y-65070940D01*
X77860485Y-65834790D01*
X77871500Y-65885882D01*
X77871500Y-66057000D01*
X77871501Y-66057019D01*
X77882000Y-66159796D01*
X77882001Y-66159799D01*
X77937185Y-66326331D01*
X77937187Y-66326336D01*
X77958344Y-66360637D01*
X78014065Y-66450976D01*
X78029289Y-66475657D01*
X78153344Y-66599712D01*
X78282679Y-66679486D01*
X78329404Y-66731434D01*
X78340627Y-66800396D01*
X78312783Y-66864479D01*
X78282684Y-66890561D01*
X78264658Y-66901680D01*
X78264655Y-66901682D01*
X78140684Y-67025653D01*
X78048643Y-67174874D01*
X78048641Y-67174879D01*
X77993494Y-67341301D01*
X77993493Y-67341308D01*
X77983000Y-67444012D01*
X77983000Y-67718999D01*
X79109000Y-67718999D01*
X79176039Y-67738684D01*
X79221794Y-67791488D01*
X79233000Y-67842999D01*
X79233000Y-69193998D01*
X79282972Y-69193998D01*
X79282986Y-69193997D01*
X79385697Y-69183504D01*
X79552119Y-69128357D01*
X79552124Y-69128355D01*
X79701345Y-69036314D01*
X79825318Y-68912341D01*
X79827165Y-68909347D01*
X79828969Y-68907723D01*
X79829798Y-68906676D01*
X79829976Y-68906817D01*
X79879110Y-68862620D01*
X79948073Y-68851395D01*
X80012156Y-68879235D01*
X80038243Y-68909340D01*
X80040288Y-68912655D01*
X80164344Y-69036711D01*
X80313666Y-69128813D01*
X80480203Y-69183998D01*
X80582991Y-69194499D01*
X80737939Y-69194498D01*
X80781296Y-69202324D01*
X80965533Y-69271084D01*
X81021458Y-69312967D01*
X81045862Y-69378436D01*
X81030996Y-69446706D01*
X80981581Y-69496101D01*
X80968748Y-69502179D01*
X80649822Y-69631422D01*
X80603251Y-69640500D01*
X80471999Y-69640500D01*
X80471980Y-69640501D01*
X80369203Y-69651000D01*
X80369200Y-69651001D01*
X80202668Y-69706185D01*
X80202663Y-69706187D01*
X80053342Y-69798289D01*
X79929288Y-69922343D01*
X79929283Y-69922349D01*
X79927241Y-69925661D01*
X79925247Y-69927453D01*
X79924807Y-69928011D01*
X79924711Y-69927935D01*
X79875291Y-69972383D01*
X79806328Y-69983602D01*
X79742247Y-69955755D01*
X79716168Y-69925656D01*
X79714319Y-69922659D01*
X79714316Y-69922655D01*
X79590345Y-69798684D01*
X79441124Y-69706643D01*
X79441119Y-69706641D01*
X79274697Y-69651494D01*
X79274690Y-69651493D01*
X79171986Y-69641000D01*
X79122000Y-69641000D01*
X79122000Y-70992000D01*
X79102315Y-71059039D01*
X79049511Y-71104794D01*
X78998000Y-71116000D01*
X77872001Y-71116000D01*
X77872001Y-71390986D01*
X77882494Y-71493697D01*
X77937641Y-71660119D01*
X77937643Y-71660124D01*
X78029684Y-71809345D01*
X78141304Y-71920965D01*
X78174789Y-71982288D01*
X78169805Y-72051980D01*
X78141305Y-72096327D01*
X78029287Y-72208345D01*
X77937187Y-72357663D01*
X77937185Y-72357668D01*
X77930288Y-72378482D01*
X77882001Y-72524203D01*
X77882001Y-72524204D01*
X77882000Y-72524204D01*
X77871500Y-72626983D01*
X77871500Y-73677001D01*
X77871501Y-73677019D01*
X77882000Y-73779796D01*
X77882001Y-73779799D01*
X77937185Y-73946331D01*
X77937187Y-73946336D01*
X77951166Y-73969000D01*
X78029288Y-74095656D01*
X78153344Y-74219712D01*
X78302666Y-74311814D01*
X78469203Y-74366999D01*
X78571991Y-74377500D01*
X79172008Y-74377499D01*
X79172016Y-74377498D01*
X79172019Y-74377498D01*
X79228302Y-74371748D01*
X79274797Y-74366999D01*
X79441334Y-74311814D01*
X79590656Y-74219712D01*
X79714712Y-74095656D01*
X79716752Y-74092347D01*
X79718745Y-74090555D01*
X79719193Y-74089989D01*
X79719289Y-74090065D01*
X79768694Y-74045623D01*
X79837656Y-74034395D01*
X79901740Y-74062234D01*
X79927829Y-74092339D01*
X79929681Y-74095341D01*
X79929683Y-74095344D01*
X80053654Y-74219315D01*
X80202875Y-74311356D01*
X80202880Y-74311358D01*
X80369302Y-74366505D01*
X80369309Y-74366506D01*
X80472019Y-74376999D01*
X80521999Y-74376998D01*
X80522000Y-74376998D01*
X80522000Y-73402000D01*
X81022000Y-73402000D01*
X81022000Y-74376999D01*
X81071972Y-74376999D01*
X81071986Y-74376998D01*
X81174697Y-74366505D01*
X81341119Y-74311358D01*
X81341124Y-74311356D01*
X81490345Y-74219315D01*
X81614315Y-74095345D01*
X81706356Y-73946124D01*
X81706358Y-73946119D01*
X81761505Y-73779697D01*
X81761506Y-73779690D01*
X81771999Y-73676986D01*
X81772000Y-73676973D01*
X81772000Y-73402000D01*
X81022000Y-73402000D01*
X80522000Y-73402000D01*
X80522000Y-73026000D01*
X80541685Y-72958961D01*
X80594489Y-72913206D01*
X80646000Y-72902000D01*
X81771999Y-72902000D01*
X81771999Y-72627028D01*
X81771998Y-72627013D01*
X81761505Y-72524302D01*
X81706358Y-72357880D01*
X81706356Y-72357875D01*
X81614315Y-72208654D01*
X81502695Y-72097034D01*
X81469210Y-72035711D01*
X81474194Y-71966019D01*
X81502691Y-71921676D01*
X81614712Y-71809656D01*
X81706814Y-71660334D01*
X81761999Y-71493797D01*
X81772500Y-71391009D01*
X81772499Y-71187452D01*
X81792183Y-71120413D01*
X81808813Y-71099776D01*
X82552788Y-70355801D01*
X82565042Y-70345986D01*
X82564859Y-70345764D01*
X82570866Y-70340792D01*
X82570877Y-70340786D01*
X82601775Y-70307882D01*
X82618227Y-70290364D01*
X82628671Y-70279918D01*
X82639120Y-70269471D01*
X82643379Y-70263978D01*
X82647152Y-70259561D01*
X82679062Y-70225582D01*
X82688713Y-70208024D01*
X82699396Y-70191761D01*
X82711673Y-70175936D01*
X82730185Y-70133153D01*
X82732738Y-70127941D01*
X82755197Y-70087092D01*
X82758131Y-70075665D01*
X82759144Y-70071720D01*
X82780621Y-70027401D01*
X82789556Y-70015677D01*
X82804467Y-69996108D01*
X82826875Y-69973457D01*
X82967507Y-69863880D01*
X83032487Y-69838204D01*
X83101034Y-69851734D01*
X83151384Y-69900176D01*
X83166895Y-69952860D01*
X83167244Y-69952823D01*
X83167451Y-69954749D01*
X83167542Y-69955058D01*
X83167599Y-69956127D01*
X83174001Y-70015670D01*
X83174003Y-70015677D01*
X83196377Y-70075665D01*
X83201361Y-70145357D01*
X83196377Y-70162331D01*
X83174003Y-70222318D01*
X83174001Y-70222326D01*
X83167600Y-70281854D01*
X83167600Y-70439291D01*
X83147915Y-70506330D01*
X83116485Y-70539609D01*
X83076171Y-70568899D01*
X83071287Y-70572108D01*
X83031181Y-70595826D01*
X83017013Y-70609994D01*
X83002227Y-70622622D01*
X82986014Y-70634402D01*
X82963580Y-70661520D01*
X82945855Y-70677185D01*
X82946730Y-70678243D01*
X82940720Y-70683214D01*
X82893370Y-70733635D01*
X82872489Y-70754516D01*
X82872477Y-70754530D01*
X82868221Y-70760015D01*
X82864437Y-70764445D01*
X82832537Y-70798416D01*
X82832536Y-70798418D01*
X82822884Y-70815974D01*
X82812210Y-70832224D01*
X82799929Y-70848059D01*
X82799924Y-70848066D01*
X82781415Y-70890836D01*
X82778845Y-70896082D01*
X82756403Y-70936904D01*
X82751422Y-70956305D01*
X82745121Y-70974708D01*
X82737162Y-70993100D01*
X82737161Y-70993103D01*
X82729871Y-71039125D01*
X82728687Y-71044844D01*
X82717101Y-71089970D01*
X82717100Y-71089980D01*
X82717100Y-71110014D01*
X82715573Y-71129411D01*
X82712440Y-71149194D01*
X82712783Y-71152821D01*
X82716825Y-71195581D01*
X82717100Y-71201419D01*
X82717100Y-74049855D01*
X82715375Y-74065472D01*
X82715661Y-74065499D01*
X82714926Y-74073265D01*
X82717100Y-74142414D01*
X82717100Y-74171943D01*
X82717101Y-74171960D01*
X82717968Y-74178831D01*
X82718426Y-74184650D01*
X82719890Y-74231224D01*
X82719891Y-74231227D01*
X82725480Y-74250467D01*
X82729424Y-74269511D01*
X82731936Y-74289392D01*
X82740813Y-74311814D01*
X82749090Y-74332719D01*
X82750982Y-74338247D01*
X82763981Y-74382988D01*
X82774180Y-74400234D01*
X82782738Y-74417703D01*
X82790114Y-74436332D01*
X82817498Y-74474023D01*
X82820706Y-74478907D01*
X82844427Y-74519016D01*
X82844433Y-74519024D01*
X82858590Y-74533180D01*
X82871228Y-74547976D01*
X82883005Y-74564186D01*
X82883006Y-74564187D01*
X82918909Y-74593888D01*
X82923220Y-74597810D01*
X82970013Y-74644603D01*
X83011762Y-74686352D01*
X83037066Y-74722940D01*
X83382485Y-75486790D01*
X83393500Y-75537882D01*
X83393500Y-75709000D01*
X83393501Y-75709019D01*
X83404000Y-75811796D01*
X83404001Y-75811799D01*
X83459185Y-75978331D01*
X83459187Y-75978336D01*
X83472774Y-76000364D01*
X83551288Y-76127656D01*
X83675344Y-76251712D01*
X83824666Y-76343814D01*
X83991203Y-76398999D01*
X84093991Y-76409500D01*
X84694008Y-76409499D01*
X84694016Y-76409498D01*
X84694019Y-76409498D01*
X84750302Y-76403748D01*
X84796797Y-76398999D01*
X84963334Y-76343814D01*
X85112656Y-76251712D01*
X85236712Y-76127656D01*
X85236717Y-76127646D01*
X85240961Y-76122281D01*
X85297980Y-76081902D01*
X85367779Y-76078759D01*
X85428197Y-76113851D01*
X85447155Y-76139929D01*
X85653424Y-76519080D01*
X85668500Y-76578338D01*
X85668500Y-76747255D01*
X85666775Y-76762872D01*
X85667061Y-76762899D01*
X85666326Y-76770665D01*
X85668500Y-76839814D01*
X85668500Y-76869343D01*
X85668501Y-76869360D01*
X85669368Y-76876231D01*
X85669826Y-76882050D01*
X85671290Y-76928624D01*
X85671291Y-76928627D01*
X85676880Y-76947867D01*
X85680824Y-76966911D01*
X85681131Y-76969334D01*
X85683336Y-76986791D01*
X85700490Y-77030119D01*
X85702382Y-77035647D01*
X85715381Y-77080388D01*
X85725580Y-77097634D01*
X85734136Y-77115100D01*
X85741514Y-77133732D01*
X85768898Y-77171423D01*
X85772106Y-77176307D01*
X85795827Y-77216416D01*
X85795833Y-77216424D01*
X85809989Y-77230579D01*
X85822628Y-77245376D01*
X85834406Y-77261588D01*
X85839744Y-77267271D01*
X85838610Y-77268335D01*
X85865826Y-77303999D01*
X86099051Y-77820719D01*
X86099056Y-77820729D01*
X86100455Y-77823491D01*
X86104123Y-77832371D01*
X86104178Y-77832347D01*
X86106818Y-77838277D01*
X86106821Y-77838284D01*
X86106824Y-77838289D01*
X86115264Y-77852910D01*
X86116869Y-77855874D01*
X86119679Y-77861418D01*
X86120871Y-77863305D01*
X86123746Y-77867600D01*
X86201465Y-78002214D01*
X86328129Y-78142888D01*
X86481265Y-78254148D01*
X86481270Y-78254151D01*
X86654192Y-78331142D01*
X86654197Y-78331144D01*
X86839354Y-78370500D01*
X86839355Y-78370500D01*
X87028644Y-78370500D01*
X87028646Y-78370500D01*
X87213803Y-78331144D01*
X87386730Y-78254151D01*
X87539871Y-78142888D01*
X87666533Y-78002216D01*
X87761179Y-77838284D01*
X87819674Y-77658256D01*
X87839460Y-77470000D01*
X87819674Y-77281744D01*
X87761179Y-77101716D01*
X87666533Y-76937784D01*
X87539871Y-76797112D01*
X87514686Y-76778814D01*
X87386734Y-76685851D01*
X87386729Y-76685848D01*
X87321243Y-76656692D01*
X87305106Y-76648026D01*
X87284719Y-76635051D01*
X87284718Y-76635050D01*
X87074691Y-76540253D01*
X87021686Y-76494731D01*
X87001705Y-76427779D01*
X87016779Y-76367976D01*
X87215197Y-76003254D01*
X87215200Y-76003248D01*
X87216582Y-76000364D01*
X87216681Y-76000411D01*
X87223995Y-75986145D01*
X87228814Y-75978334D01*
X87240547Y-75942924D01*
X87242164Y-75938594D01*
X87255251Y-75907219D01*
X87256630Y-75902632D01*
X87260464Y-75889211D01*
X87260466Y-75889191D01*
X87261428Y-75884450D01*
X87261736Y-75884512D01*
X87265580Y-75867378D01*
X87283999Y-75811797D01*
X87294500Y-75709009D01*
X87294499Y-74757450D01*
X87314183Y-74690412D01*
X87366987Y-74644657D01*
X87436146Y-74634713D01*
X87499702Y-74663738D01*
X87506167Y-74669757D01*
X87522764Y-74686355D01*
X87548064Y-74722938D01*
X87793614Y-75265939D01*
X87893485Y-75486790D01*
X87904500Y-75537882D01*
X87904500Y-75709000D01*
X87904501Y-75709019D01*
X87915000Y-75811796D01*
X87915001Y-75811799D01*
X87970185Y-75978331D01*
X87970187Y-75978336D01*
X87983774Y-76000364D01*
X88062288Y-76127656D01*
X88186344Y-76251712D01*
X88335666Y-76343814D01*
X88502203Y-76398999D01*
X88604991Y-76409500D01*
X89205008Y-76409499D01*
X89205016Y-76409498D01*
X89205019Y-76409498D01*
X89261302Y-76403748D01*
X89307797Y-76398999D01*
X89474334Y-76343814D01*
X89623656Y-76251712D01*
X89747712Y-76127656D01*
X89747717Y-76127646D01*
X89751961Y-76122281D01*
X89808980Y-76081902D01*
X89878779Y-76078759D01*
X89939197Y-76113851D01*
X89958155Y-76139929D01*
X90164424Y-76519080D01*
X90179500Y-76578338D01*
X90179500Y-76686255D01*
X90177775Y-76701872D01*
X90178061Y-76701899D01*
X90177326Y-76709665D01*
X90179500Y-76778814D01*
X90179500Y-76808343D01*
X90179501Y-76808360D01*
X90180368Y-76815231D01*
X90180826Y-76821050D01*
X90182290Y-76867624D01*
X90182291Y-76867627D01*
X90187880Y-76886867D01*
X90191824Y-76905911D01*
X90194336Y-76925792D01*
X90211490Y-76969119D01*
X90213382Y-76974647D01*
X90216910Y-76986791D01*
X90226382Y-77019390D01*
X90234334Y-77032837D01*
X90236580Y-77036634D01*
X90245138Y-77054103D01*
X90252514Y-77072732D01*
X90279898Y-77110423D01*
X90283106Y-77115307D01*
X90306827Y-77155416D01*
X90306833Y-77155424D01*
X90320990Y-77169580D01*
X90333628Y-77184376D01*
X90345405Y-77200586D01*
X90345406Y-77200587D01*
X90381309Y-77230288D01*
X90385620Y-77234210D01*
X90396786Y-77245376D01*
X90407340Y-77255930D01*
X90432680Y-77292598D01*
X90671051Y-77820719D01*
X90671056Y-77820729D01*
X90672455Y-77823491D01*
X90676123Y-77832371D01*
X90676178Y-77832347D01*
X90678818Y-77838277D01*
X90678821Y-77838284D01*
X90678824Y-77838289D01*
X90687264Y-77852910D01*
X90688869Y-77855874D01*
X90691679Y-77861418D01*
X90692871Y-77863305D01*
X90695746Y-77867600D01*
X90773465Y-78002214D01*
X90900129Y-78142888D01*
X91053265Y-78254148D01*
X91053270Y-78254151D01*
X91226192Y-78331142D01*
X91226197Y-78331144D01*
X91411354Y-78370500D01*
X91411355Y-78370500D01*
X91600644Y-78370500D01*
X91600646Y-78370500D01*
X91785803Y-78331144D01*
X91958730Y-78254151D01*
X92111871Y-78142888D01*
X92238533Y-78002216D01*
X92333179Y-77838284D01*
X92391674Y-77658256D01*
X92411460Y-77470000D01*
X92391674Y-77281744D01*
X92333179Y-77101716D01*
X92238533Y-76937784D01*
X92111871Y-76797112D01*
X92086686Y-76778814D01*
X91958734Y-76685851D01*
X91958729Y-76685848D01*
X91893243Y-76656692D01*
X91877106Y-76648026D01*
X91856719Y-76635051D01*
X91856718Y-76635050D01*
X91597716Y-76518148D01*
X91544711Y-76472626D01*
X91524730Y-76405675D01*
X91539804Y-76345872D01*
X91726197Y-76003254D01*
X91726200Y-76003248D01*
X91727582Y-76000364D01*
X91727681Y-76000411D01*
X91734995Y-75986145D01*
X91739814Y-75978334D01*
X91739968Y-75977870D01*
X96043500Y-75977870D01*
X96043501Y-75977876D01*
X96049908Y-76037483D01*
X96100202Y-76172328D01*
X96100206Y-76172335D01*
X96186452Y-76287544D01*
X96186455Y-76287547D01*
X96301664Y-76373793D01*
X96301671Y-76373797D01*
X96346618Y-76390561D01*
X96436517Y-76424091D01*
X96496127Y-76430500D01*
X96753976Y-76430499D01*
X96821015Y-76450183D01*
X96847295Y-76472843D01*
X97387820Y-77090586D01*
X97417151Y-77154001D01*
X97418500Y-77172241D01*
X97418500Y-77286546D01*
X97398815Y-77353585D01*
X97382181Y-77374227D01*
X97369071Y-77387337D01*
X97332403Y-77412677D01*
X97114733Y-77510924D01*
X96804277Y-77651052D01*
X96804268Y-77651056D01*
X96763536Y-77671705D01*
X96758610Y-77674816D01*
X96758294Y-77674316D01*
X96741200Y-77684515D01*
X96702271Y-77701847D01*
X96702267Y-77701849D01*
X96549129Y-77813111D01*
X96422466Y-77953785D01*
X96327821Y-78117715D01*
X96327818Y-78117722D01*
X96275292Y-78279382D01*
X96269326Y-78297744D01*
X96249540Y-78486000D01*
X96269326Y-78674256D01*
X96269327Y-78674259D01*
X96327818Y-78854277D01*
X96327821Y-78854284D01*
X96422467Y-79018216D01*
X96508408Y-79113663D01*
X96549129Y-79158888D01*
X96702265Y-79270148D01*
X96702270Y-79270151D01*
X96875192Y-79347142D01*
X96875197Y-79347144D01*
X97060354Y-79386500D01*
X97060355Y-79386500D01*
X97249644Y-79386500D01*
X97249646Y-79386500D01*
X97434803Y-79347144D01*
X97607730Y-79270151D01*
X97760871Y-79158888D01*
X97887533Y-79018216D01*
X97982179Y-78854284D01*
X97982182Y-78854272D01*
X97984819Y-78848352D01*
X97984974Y-78848421D01*
X97988235Y-78840808D01*
X97988124Y-78840758D01*
X97989944Y-78836724D01*
X97989948Y-78836719D01*
X98228318Y-78308597D01*
X98253653Y-78271936D01*
X98427788Y-78097801D01*
X98440042Y-78087986D01*
X98439859Y-78087764D01*
X98445866Y-78082792D01*
X98445877Y-78082786D01*
X98476775Y-78049882D01*
X98493227Y-78032364D01*
X98503671Y-78021918D01*
X98514120Y-78011471D01*
X98518379Y-78005978D01*
X98522152Y-78001561D01*
X98554062Y-77967582D01*
X98563715Y-77950020D01*
X98574389Y-77933770D01*
X98586673Y-77917936D01*
X98605180Y-77875167D01*
X98607749Y-77869924D01*
X98615473Y-77855874D01*
X98630197Y-77829092D01*
X98635177Y-77809691D01*
X98641478Y-77791288D01*
X98649438Y-77772896D01*
X98656730Y-77726849D01*
X98657911Y-77721152D01*
X98669500Y-77676019D01*
X98669500Y-77655982D01*
X98671027Y-77636582D01*
X98674160Y-77616804D01*
X98670207Y-77574990D01*
X98669775Y-77570415D01*
X98669500Y-77564577D01*
X98669500Y-77172240D01*
X98689185Y-77105201D01*
X98700180Y-77090586D01*
X99240702Y-76472844D01*
X99299662Y-76435355D01*
X99334022Y-76430499D01*
X99591871Y-76430499D01*
X99591872Y-76430499D01*
X99651483Y-76424091D01*
X99786331Y-76373796D01*
X99901546Y-76287546D01*
X99987796Y-76172331D01*
X100038091Y-76037483D01*
X100044500Y-75977873D01*
X100044499Y-73782128D01*
X100038091Y-73722517D01*
X100021121Y-73677019D01*
X99987797Y-73587671D01*
X99987793Y-73587664D01*
X99901547Y-73472455D01*
X99901544Y-73472452D01*
X99786335Y-73386206D01*
X99786328Y-73386202D01*
X99651482Y-73335908D01*
X99651483Y-73335908D01*
X99591883Y-73329501D01*
X99591881Y-73329500D01*
X99591873Y-73329500D01*
X99591864Y-73329500D01*
X96496129Y-73329500D01*
X96496123Y-73329501D01*
X96436515Y-73335909D01*
X96314360Y-73381469D01*
X96299871Y-73382505D01*
X96291283Y-73393978D01*
X96186452Y-73472455D01*
X96100206Y-73587664D01*
X96100202Y-73587671D01*
X96049908Y-73722517D01*
X96043750Y-73779799D01*
X96043501Y-73782123D01*
X96043500Y-73782135D01*
X96043500Y-75977870D01*
X91739968Y-75977870D01*
X91751547Y-75942924D01*
X91753164Y-75938594D01*
X91766251Y-75907219D01*
X91767630Y-75902632D01*
X91771464Y-75889211D01*
X91771466Y-75889191D01*
X91772428Y-75884450D01*
X91772736Y-75884512D01*
X91776580Y-75867378D01*
X91794999Y-75811797D01*
X91805500Y-75709009D01*
X91805499Y-74658992D01*
X91794999Y-74556203D01*
X91739814Y-74389666D01*
X91647712Y-74240344D01*
X91523656Y-74116288D01*
X91374334Y-74024186D01*
X91207797Y-73969001D01*
X91207795Y-73969000D01*
X91105010Y-73958500D01*
X90504998Y-73958500D01*
X90504980Y-73958501D01*
X90402203Y-73969000D01*
X90402200Y-73969001D01*
X90235668Y-74024185D01*
X90235663Y-74024187D01*
X90086342Y-74116289D01*
X89962288Y-74240343D01*
X89962282Y-74240351D01*
X89960531Y-74243190D01*
X89958823Y-74244725D01*
X89957807Y-74246011D01*
X89957587Y-74245837D01*
X89908579Y-74289910D01*
X89839615Y-74301125D01*
X89775536Y-74273275D01*
X89749459Y-74243176D01*
X89747712Y-74240344D01*
X89623656Y-74116288D01*
X89474334Y-74024186D01*
X89307797Y-73969001D01*
X89307795Y-73969000D01*
X89205016Y-73958500D01*
X89205009Y-73958500D01*
X88992924Y-73958500D01*
X88958789Y-73953709D01*
X88429858Y-73802250D01*
X88376312Y-73770722D01*
X85965802Y-71360211D01*
X85955979Y-71347949D01*
X85955758Y-71348133D01*
X85950785Y-71342122D01*
X85922738Y-71315784D01*
X85900363Y-71294772D01*
X85889918Y-71284327D01*
X85879474Y-71273882D01*
X85873985Y-71269624D01*
X85869560Y-71265846D01*
X85835581Y-71233937D01*
X85835579Y-71233935D01*
X85835576Y-71233934D01*
X85818028Y-71224287D01*
X85801762Y-71213603D01*
X85785935Y-71201326D01*
X85785934Y-71201325D01*
X85785932Y-71201324D01*
X85743167Y-71182817D01*
X85737921Y-71180247D01*
X85697092Y-71157802D01*
X85697091Y-71157801D01*
X85677692Y-71152821D01*
X85659280Y-71146517D01*
X85640897Y-71138561D01*
X85640891Y-71138559D01*
X85594873Y-71131271D01*
X85589151Y-71130086D01*
X85544020Y-71118499D01*
X85544018Y-71118499D01*
X85523983Y-71118499D01*
X85504585Y-71116972D01*
X85497161Y-71115796D01*
X85484804Y-71113839D01*
X85484803Y-71113839D01*
X85438415Y-71118224D01*
X85432577Y-71118499D01*
X85409699Y-71118499D01*
X85342660Y-71098814D01*
X85296905Y-71046010D01*
X85285699Y-70994499D01*
X85285699Y-70931827D01*
X85285698Y-70931821D01*
X85279291Y-70872214D01*
X85256689Y-70811616D01*
X85251705Y-70741925D01*
X85256690Y-70724948D01*
X85278797Y-70665677D01*
X85278797Y-70665676D01*
X85285199Y-70606143D01*
X85285200Y-70606126D01*
X85285200Y-70281871D01*
X85285199Y-70281854D01*
X85278798Y-70222326D01*
X85278797Y-70222322D01*
X85256422Y-70162332D01*
X85251438Y-70092640D01*
X85256423Y-70075663D01*
X85278797Y-70015677D01*
X85278797Y-70015675D01*
X85285199Y-69956142D01*
X85285200Y-69956125D01*
X85285200Y-69631870D01*
X85285199Y-69631853D01*
X85278798Y-69572325D01*
X85278797Y-69572321D01*
X85256689Y-69513047D01*
X85251705Y-69443355D01*
X85256690Y-69426378D01*
X85256955Y-69425669D01*
X85279291Y-69365782D01*
X85285700Y-69306172D01*
X85285699Y-68981827D01*
X85279291Y-68922216D01*
X85279222Y-68922032D01*
X85256956Y-68862334D01*
X85251970Y-68792642D01*
X85256955Y-68775668D01*
X85279291Y-68715784D01*
X85285700Y-68656174D01*
X85285699Y-68331829D01*
X85279291Y-68272218D01*
X85256954Y-68212331D01*
X85251971Y-68142642D01*
X85256956Y-68125666D01*
X85279288Y-68065790D01*
X85279289Y-68065787D01*
X85279288Y-68065787D01*
X85279291Y-68065782D01*
X85285700Y-68006172D01*
X85285699Y-67681827D01*
X85279291Y-67622216D01*
X85274480Y-67609318D01*
X85256956Y-67562334D01*
X85251970Y-67492642D01*
X85256955Y-67475668D01*
X85279291Y-67415784D01*
X85285700Y-67356174D01*
X85285699Y-67031829D01*
X85279291Y-66972218D01*
X85262167Y-66926307D01*
X85228997Y-66837372D01*
X85228993Y-66837365D01*
X85142747Y-66722156D01*
X85142744Y-66722153D01*
X85027535Y-66635907D01*
X85027528Y-66635903D01*
X84932567Y-66600485D01*
X84876633Y-66558614D01*
X84852216Y-66493149D01*
X84851900Y-66484303D01*
X84851900Y-63100137D01*
X84853624Y-63084523D01*
X84853338Y-63084496D01*
X84854072Y-63076733D01*
X84851900Y-63007602D01*
X84851900Y-62978051D01*
X84851900Y-62978050D01*
X84851029Y-62971159D01*
X84850572Y-62965345D01*
X84849109Y-62918774D01*
X84849109Y-62918772D01*
X84843520Y-62899537D01*
X84839574Y-62880484D01*
X84837064Y-62860608D01*
X84819901Y-62817259D01*
X84818014Y-62811746D01*
X84805017Y-62767010D01*
X84805016Y-62767008D01*
X84794821Y-62749769D01*
X84786260Y-62732293D01*
X84779749Y-62715849D01*
X84778886Y-62713668D01*
X84778886Y-62713667D01*
X84764232Y-62693499D01*
X84751483Y-62675950D01*
X84748300Y-62671105D01*
X84724570Y-62630979D01*
X84724565Y-62630973D01*
X84710405Y-62616813D01*
X84697770Y-62602020D01*
X84685993Y-62585812D01*
X84650093Y-62556113D01*
X84645781Y-62552190D01*
X84059234Y-61965642D01*
X84033930Y-61929054D01*
X83688514Y-61165208D01*
X83677499Y-61114116D01*
X83677499Y-60942998D01*
X83677498Y-60942981D01*
X83666999Y-60840203D01*
X83666998Y-60840200D01*
X83655968Y-60806913D01*
X83611814Y-60673666D01*
X83519712Y-60524344D01*
X83395656Y-60400288D01*
X83246334Y-60308186D01*
X83079797Y-60253001D01*
X83079795Y-60253000D01*
X82977010Y-60242500D01*
X82376998Y-60242500D01*
X82376980Y-60242501D01*
X82274203Y-60253000D01*
X82274200Y-60253001D01*
X82107668Y-60308185D01*
X82107663Y-60308187D01*
X81958342Y-60400289D01*
X81834285Y-60524346D01*
X81830029Y-60529729D01*
X81773005Y-60570103D01*
X81703205Y-60573238D01*
X81642792Y-60538139D01*
X81623844Y-60512073D01*
X81417575Y-60132917D01*
X81402500Y-60073660D01*
X81402500Y-59269742D01*
X81404224Y-59254122D01*
X81403939Y-59254095D01*
X81404673Y-59246333D01*
X81403413Y-59206216D01*
X81402500Y-59177171D01*
X81402500Y-59147650D01*
X81401631Y-59140779D01*
X81401173Y-59134952D01*
X81401167Y-59134761D01*
X81399710Y-59088373D01*
X81394119Y-59069130D01*
X81390173Y-59050078D01*
X81387664Y-59030208D01*
X81370504Y-58986867D01*
X81368624Y-58981379D01*
X81355618Y-58936610D01*
X81345422Y-58919370D01*
X81336861Y-58901894D01*
X81329487Y-58883270D01*
X81329486Y-58883268D01*
X81302079Y-58845545D01*
X81298888Y-58840686D01*
X81298313Y-58839714D01*
X81282975Y-58813777D01*
X81275172Y-58800583D01*
X81275165Y-58800574D01*
X81261006Y-58786415D01*
X81248368Y-58771619D01*
X81236591Y-58755409D01*
X81231254Y-58749726D01*
X81232385Y-58748663D01*
X81205171Y-58712997D01*
X80971948Y-58196279D01*
X80971948Y-58196280D01*
X80970555Y-58193531D01*
X80966877Y-58184626D01*
X80966821Y-58184652D01*
X80964180Y-58178721D01*
X80964179Y-58178716D01*
X80955729Y-58164080D01*
X80954133Y-58161133D01*
X80951316Y-58155576D01*
X80950126Y-58153690D01*
X80947256Y-58149403D01*
X80901307Y-58069818D01*
X80869533Y-58014784D01*
X80742871Y-57874112D01*
X80709919Y-57850171D01*
X80589734Y-57762851D01*
X80589729Y-57762848D01*
X80416807Y-57685857D01*
X80416802Y-57685855D01*
X80271000Y-57654865D01*
X80231646Y-57646500D01*
X80042354Y-57646500D01*
X80009897Y-57653398D01*
X79857197Y-57685855D01*
X79857192Y-57685857D01*
X79684270Y-57762848D01*
X79684265Y-57762851D01*
X79531129Y-57874111D01*
X79404466Y-58014785D01*
X79309821Y-58178715D01*
X79309818Y-58178722D01*
X79262849Y-58323279D01*
X79251326Y-58358744D01*
X79231540Y-58547000D01*
X79251326Y-58735256D01*
X79251327Y-58735259D01*
X79309818Y-58915277D01*
X79309821Y-58915284D01*
X79404467Y-59079216D01*
X79492667Y-59177172D01*
X79531129Y-59219888D01*
X79684265Y-59331148D01*
X79684267Y-59331149D01*
X79684270Y-59331151D01*
X79727013Y-59350181D01*
X79749757Y-59360308D01*
X79765898Y-59368977D01*
X79786271Y-59381943D01*
X79786279Y-59381948D01*
X79906558Y-59436236D01*
X80078513Y-59513849D01*
X80131518Y-59559369D01*
X80151499Y-59626321D01*
X80151500Y-59626869D01*
X80151500Y-60073659D01*
X80136425Y-60132916D01*
X79855793Y-60648762D01*
X79854417Y-60651637D01*
X79854322Y-60651591D01*
X79847007Y-60665847D01*
X79842185Y-60673665D01*
X79842184Y-60673667D01*
X79830456Y-60709059D01*
X79828826Y-60713421D01*
X79815749Y-60744775D01*
X79815744Y-60744791D01*
X79814365Y-60749380D01*
X79810534Y-60762789D01*
X79809570Y-60767549D01*
X79809265Y-60767487D01*
X79805415Y-60784629D01*
X79787001Y-60840199D01*
X79776500Y-60942983D01*
X79776500Y-61993001D01*
X79776501Y-61993019D01*
X79787000Y-62095796D01*
X79787001Y-62095799D01*
X79842185Y-62262331D01*
X79842187Y-62262336D01*
X79846849Y-62269894D01*
X79934288Y-62411656D01*
X80058344Y-62535712D01*
X80207666Y-62627814D01*
X80374203Y-62682999D01*
X80476991Y-62693500D01*
X81077008Y-62693499D01*
X81077016Y-62693498D01*
X81077019Y-62693498D01*
X81133302Y-62687748D01*
X81179797Y-62682999D01*
X81346334Y-62627814D01*
X81495656Y-62535712D01*
X81619712Y-62411656D01*
X81621456Y-62408828D01*
X81623160Y-62407295D01*
X81624193Y-62405989D01*
X81624416Y-62406165D01*
X81673396Y-62362101D01*
X81742357Y-62350871D01*
X81806442Y-62378707D01*
X81832534Y-62408814D01*
X81834283Y-62411650D01*
X81834288Y-62411656D01*
X81958344Y-62535712D01*
X82107666Y-62627814D01*
X82274203Y-62682999D01*
X82376991Y-62693500D01*
X82589077Y-62693499D01*
X82623213Y-62698290D01*
X82733296Y-62729812D01*
X83152139Y-62849747D01*
X83205685Y-62881275D01*
X83564581Y-63240171D01*
X83598066Y-63301494D01*
X83600900Y-63327852D01*
X83600900Y-66484303D01*
X83581215Y-66551342D01*
X83528411Y-66597097D01*
X83520233Y-66600485D01*
X83425271Y-66635903D01*
X83425268Y-66635905D01*
X83321891Y-66713293D01*
X83256426Y-66737710D01*
X83188153Y-66722858D01*
X83159899Y-66701707D01*
X82134410Y-65676218D01*
X82116710Y-65653888D01*
X82111088Y-65644823D01*
X82054634Y-65553788D01*
X81791118Y-65128857D01*
X81772499Y-65063506D01*
X81772499Y-65006998D01*
X81772498Y-65006981D01*
X81761999Y-64904203D01*
X81761998Y-64904200D01*
X81750774Y-64870329D01*
X81706814Y-64737666D01*
X81614712Y-64588344D01*
X81490656Y-64464288D01*
X81357464Y-64382135D01*
X81341336Y-64372187D01*
X81341331Y-64372185D01*
X81320433Y-64365260D01*
X81174797Y-64317001D01*
X81174795Y-64317000D01*
X81072010Y-64306500D01*
X80471998Y-64306500D01*
X80471980Y-64306501D01*
X80369203Y-64317000D01*
X80369200Y-64317001D01*
X80202668Y-64372185D01*
X80202663Y-64372187D01*
X80053342Y-64464289D01*
X79929285Y-64588346D01*
X79927537Y-64591182D01*
X79925829Y-64592717D01*
X79924807Y-64594011D01*
X79924585Y-64593836D01*
X79875589Y-64637905D01*
X79806626Y-64649126D01*
X79742544Y-64621282D01*
X79716463Y-64591182D01*
X79714714Y-64588346D01*
X79590657Y-64464289D01*
X79590656Y-64464288D01*
X79457464Y-64382135D01*
X79441336Y-64372187D01*
X79441331Y-64372185D01*
X79420433Y-64365260D01*
X79274797Y-64317001D01*
X79274795Y-64317000D01*
X79172016Y-64306500D01*
X79172009Y-64306500D01*
X78959924Y-64306500D01*
X78925789Y-64301709D01*
X78770098Y-64257127D01*
X78439364Y-64162421D01*
X78380334Y-64125042D01*
X78350883Y-64061682D01*
X78349500Y-64043212D01*
X78349500Y-62732899D01*
X78359038Y-62685207D01*
X78359959Y-62682998D01*
X78470642Y-62417358D01*
X78648040Y-61991601D01*
X78648018Y-61991663D01*
X78650761Y-61985478D01*
X78650480Y-61985362D01*
X78652813Y-61979728D01*
X78652814Y-61979727D01*
X78655656Y-61970355D01*
X78656553Y-61967627D01*
X78666175Y-61940534D01*
X78666194Y-61940398D01*
X78670236Y-61922292D01*
X78710024Y-61791132D01*
X78729341Y-61595000D01*
X78710024Y-61398868D01*
X78652814Y-61210273D01*
X78652811Y-61210269D01*
X78652811Y-61210266D01*
X78559913Y-61036467D01*
X78559909Y-61036460D01*
X78434883Y-60884116D01*
X78282539Y-60759090D01*
X78282532Y-60759086D01*
X78108733Y-60666188D01*
X78108727Y-60666186D01*
X77920132Y-60608976D01*
X77920129Y-60608975D01*
X77724000Y-60589659D01*
X77527870Y-60608975D01*
X77339266Y-60666188D01*
X77165467Y-60759086D01*
X77165460Y-60759090D01*
X77013116Y-60884116D01*
X76888090Y-61036460D01*
X76888086Y-61036467D01*
X76795186Y-61210270D01*
X76792856Y-61215897D01*
X76792485Y-61215743D01*
X76791655Y-61217830D01*
X76791864Y-61217916D01*
X76504066Y-61916852D01*
X76477087Y-61957320D01*
X76349226Y-62085182D01*
X76287906Y-62118666D01*
X76261547Y-62121500D01*
X74187088Y-62121500D01*
X74171471Y-62119776D01*
X74171444Y-62120062D01*
X74163682Y-62119327D01*
X74094554Y-62121500D01*
X74065000Y-62121500D01*
X74064279Y-62121590D01*
X74058107Y-62122369D01*
X74052295Y-62122826D01*
X74005723Y-62124290D01*
X74005722Y-62124290D01*
X73986479Y-62129881D01*
X73967429Y-62133825D01*
X73947561Y-62136334D01*
X73904234Y-62153488D01*
X73898708Y-62155379D01*
X73853964Y-62168379D01*
X73853960Y-62168381D01*
X73836716Y-62178579D01*
X73819255Y-62187133D01*
X73800624Y-62194510D01*
X73800612Y-62194517D01*
X73762920Y-62221902D01*
X73758037Y-62225109D01*
X73717930Y-62248829D01*
X73703764Y-62262995D01*
X73688974Y-62275627D01*
X73672764Y-62287404D01*
X73672761Y-62287407D01*
X73643060Y-62323309D01*
X73639127Y-62327631D01*
X71393701Y-64573055D01*
X71372156Y-64590264D01*
X71191527Y-64704156D01*
X71124321Y-64723261D01*
X71057454Y-64702999D01*
X71012156Y-64649802D01*
X71002070Y-64586307D01*
X71009460Y-64516000D01*
X70989674Y-64327744D01*
X70931179Y-64147716D01*
X70836533Y-63983784D01*
X70709871Y-63843112D01*
X70692511Y-63830499D01*
X70556734Y-63731851D01*
X70556729Y-63731848D01*
X70383807Y-63654857D01*
X70383802Y-63654855D01*
X70238000Y-63623865D01*
X70198646Y-63615500D01*
X70009354Y-63615500D01*
X69976897Y-63622398D01*
X69824197Y-63654855D01*
X69824192Y-63654857D01*
X69651270Y-63731848D01*
X69651265Y-63731851D01*
X69498129Y-63843111D01*
X69371466Y-63983785D01*
X69276821Y-64147715D01*
X69276818Y-64147722D01*
X69218327Y-64327740D01*
X69218326Y-64327744D01*
X69198540Y-64516000D01*
X69218326Y-64704256D01*
X69218327Y-64704259D01*
X69262072Y-64838893D01*
X69263406Y-64843631D01*
X69268771Y-64866070D01*
X69268772Y-64866073D01*
X69268773Y-64866076D01*
X69268774Y-64866081D01*
X69480273Y-65399519D01*
X69482178Y-65405078D01*
X69486880Y-65421264D01*
X69490824Y-65440313D01*
X69493334Y-65460187D01*
X69493335Y-65460190D01*
X69510490Y-65503519D01*
X69512382Y-65509047D01*
X69525381Y-65553788D01*
X69535580Y-65571034D01*
X69544136Y-65588500D01*
X69551514Y-65607132D01*
X69574066Y-65638173D01*
X69578898Y-65644823D01*
X69582106Y-65649707D01*
X69605827Y-65689816D01*
X69605833Y-65689824D01*
X69619990Y-65703980D01*
X69632628Y-65718776D01*
X69644405Y-65734986D01*
X69644406Y-65734987D01*
X69680309Y-65764688D01*
X69684620Y-65768610D01*
X70194169Y-66278160D01*
X70339533Y-66423524D01*
X70354805Y-66443078D01*
X70355094Y-66442876D01*
X70357635Y-66446498D01*
X70464659Y-66577946D01*
X70491721Y-66642362D01*
X70492500Y-66656233D01*
X70492501Y-66687496D01*
X70472819Y-66754536D01*
X70420016Y-66800293D01*
X70368501Y-66811500D01*
X69419603Y-66811500D01*
X69352564Y-66791815D01*
X69323750Y-66766165D01*
X69290883Y-66726116D01*
X69138539Y-66601090D01*
X69138532Y-66601086D01*
X68964733Y-66508188D01*
X68964727Y-66508186D01*
X68776132Y-66450976D01*
X68776129Y-66450975D01*
X68580000Y-66431659D01*
X68383870Y-66450975D01*
X68195266Y-66508188D01*
X68021467Y-66601086D01*
X68021460Y-66601090D01*
X67869116Y-66726116D01*
X67836250Y-66766165D01*
X67778505Y-66805499D01*
X67740397Y-66811500D01*
X66002951Y-66811500D01*
X65935912Y-66791815D01*
X65890157Y-66739011D01*
X65880213Y-66669853D01*
X65909238Y-66606297D01*
X65915270Y-66599819D01*
X69015090Y-63499999D01*
X72138786Y-60376302D01*
X72151048Y-60366480D01*
X72150865Y-60366259D01*
X72156867Y-60361292D01*
X72156877Y-60361286D01*
X72204241Y-60310848D01*
X72225120Y-60289970D01*
X72229373Y-60284486D01*
X72233150Y-60280063D01*
X72265062Y-60246082D01*
X72274714Y-60228523D01*
X72285389Y-60212272D01*
X72297674Y-60196436D01*
X72316186Y-60153652D01*
X72318742Y-60148435D01*
X72341197Y-60107592D01*
X72346180Y-60088180D01*
X72352477Y-60069791D01*
X72360438Y-60051395D01*
X72367729Y-60005353D01*
X72368908Y-59999662D01*
X72380500Y-59954519D01*
X72380500Y-59934483D01*
X72382027Y-59915082D01*
X72383432Y-59906211D01*
X72385160Y-59895304D01*
X72380775Y-59848915D01*
X72380500Y-59843077D01*
X72380500Y-58388951D01*
X72400185Y-58321912D01*
X72404737Y-58315307D01*
X72430790Y-58280014D01*
X72585956Y-58069816D01*
X72620617Y-58037925D01*
X72673656Y-58005212D01*
X72797712Y-57881156D01*
X72889814Y-57731834D01*
X72944999Y-57565297D01*
X72955500Y-57462509D01*
X72955499Y-56837492D01*
X72951672Y-56800032D01*
X72944999Y-56734703D01*
X72944998Y-56734700D01*
X72929424Y-56687700D01*
X72889814Y-56568166D01*
X72862492Y-56523870D01*
X82469500Y-56523870D01*
X82469501Y-56523876D01*
X82475908Y-56583483D01*
X82526202Y-56718328D01*
X82526206Y-56718335D01*
X82612452Y-56833544D01*
X82612455Y-56833547D01*
X82727664Y-56919793D01*
X82727671Y-56919797D01*
X82862517Y-56970091D01*
X82862516Y-56970091D01*
X82869444Y-56970835D01*
X82922127Y-56976500D01*
X84717872Y-56976499D01*
X84777483Y-56970091D01*
X84912331Y-56919796D01*
X85027546Y-56833546D01*
X85113796Y-56718331D01*
X85162810Y-56586916D01*
X85204681Y-56530984D01*
X85270145Y-56506566D01*
X85338418Y-56521417D01*
X85366672Y-56542569D01*
X85488599Y-56664495D01*
X85585384Y-56732265D01*
X85682165Y-56800032D01*
X85682167Y-56800033D01*
X85682170Y-56800035D01*
X85896337Y-56899903D01*
X85896343Y-56899904D01*
X85896344Y-56899905D01*
X85913669Y-56904547D01*
X86124592Y-56961063D01*
X86301034Y-56976500D01*
X86359999Y-56981659D01*
X86360000Y-56981659D01*
X86360001Y-56981659D01*
X86418966Y-56976500D01*
X86595408Y-56961063D01*
X86823663Y-56899903D01*
X87037830Y-56800035D01*
X87231401Y-56664495D01*
X87398495Y-56497401D01*
X87528426Y-56311840D01*
X87583001Y-56268217D01*
X87652499Y-56261023D01*
X87714854Y-56292546D01*
X87731574Y-56311841D01*
X87748078Y-56335411D01*
X87861505Y-56497401D01*
X88028599Y-56664495D01*
X88128862Y-56734700D01*
X88222168Y-56800034D01*
X88222170Y-56800035D01*
X88408606Y-56886972D01*
X88418926Y-56892350D01*
X88420886Y-56893037D01*
X88420935Y-56893055D01*
X88426614Y-56895369D01*
X88432142Y-56897946D01*
X88436337Y-56899903D01*
X88451413Y-56903942D01*
X88455884Y-56905325D01*
X88951425Y-57079291D01*
X89721897Y-57349775D01*
X89768503Y-57379094D01*
X90008820Y-57619411D01*
X90239581Y-57850171D01*
X90273066Y-57911494D01*
X90275900Y-57937852D01*
X90275900Y-62548947D01*
X90256215Y-62615986D01*
X90203411Y-62661741D01*
X90134253Y-62671685D01*
X90070697Y-62642660D01*
X90064219Y-62636628D01*
X89536469Y-62108878D01*
X89510885Y-62071665D01*
X89472482Y-61985478D01*
X89211106Y-61398870D01*
X89161734Y-61288063D01*
X89150999Y-61237595D01*
X89150999Y-61094998D01*
X89150998Y-61094981D01*
X89140499Y-60992203D01*
X89140498Y-60992200D01*
X89122430Y-60937674D01*
X89085314Y-60825666D01*
X88993212Y-60676344D01*
X88869156Y-60552288D01*
X88719834Y-60460186D01*
X88553297Y-60405001D01*
X88553295Y-60405000D01*
X88450510Y-60394500D01*
X87825498Y-60394500D01*
X87825480Y-60394501D01*
X87722703Y-60405000D01*
X87722700Y-60405001D01*
X87556168Y-60460185D01*
X87556163Y-60460187D01*
X87406845Y-60552287D01*
X87331754Y-60627378D01*
X87270430Y-60660862D01*
X87200739Y-60655877D01*
X87144805Y-60614006D01*
X87135540Y-60599668D01*
X86953967Y-60271070D01*
X86938500Y-60211098D01*
X86938500Y-59344742D01*
X86940224Y-59329122D01*
X86939939Y-59329095D01*
X86940673Y-59321333D01*
X86938500Y-59252172D01*
X86938500Y-59222656D01*
X86938500Y-59222650D01*
X86937631Y-59215779D01*
X86937173Y-59209952D01*
X86936582Y-59191134D01*
X86935710Y-59163373D01*
X86930119Y-59144130D01*
X86926173Y-59125078D01*
X86923664Y-59105208D01*
X86906504Y-59061867D01*
X86904624Y-59056379D01*
X86891618Y-59011610D01*
X86887867Y-59005268D01*
X86881423Y-58994371D01*
X86872861Y-58976894D01*
X86865487Y-58958270D01*
X86865486Y-58958268D01*
X86838079Y-58920545D01*
X86834888Y-58915686D01*
X86834650Y-58915284D01*
X86811170Y-58875580D01*
X86811168Y-58875578D01*
X86811165Y-58875574D01*
X86797006Y-58861415D01*
X86784368Y-58846619D01*
X86781886Y-58843203D01*
X86772594Y-58830413D01*
X86736688Y-58800709D01*
X86732376Y-58796786D01*
X86696657Y-58761067D01*
X86671317Y-58724399D01*
X86648569Y-58674000D01*
X86489653Y-58321912D01*
X86432948Y-58196279D01*
X86432948Y-58196280D01*
X86431555Y-58193531D01*
X86427877Y-58184626D01*
X86427821Y-58184652D01*
X86425180Y-58178721D01*
X86425179Y-58178716D01*
X86416729Y-58164080D01*
X86415133Y-58161133D01*
X86412316Y-58155576D01*
X86411126Y-58153690D01*
X86408256Y-58149403D01*
X86362307Y-58069818D01*
X86330533Y-58014784D01*
X86203871Y-57874112D01*
X86170919Y-57850171D01*
X86050734Y-57762851D01*
X86050729Y-57762848D01*
X85877807Y-57685857D01*
X85877802Y-57685855D01*
X85732001Y-57654865D01*
X85692646Y-57646500D01*
X85503354Y-57646500D01*
X85470897Y-57653398D01*
X85318197Y-57685855D01*
X85318192Y-57685857D01*
X85145270Y-57762848D01*
X85145265Y-57762851D01*
X84992129Y-57874111D01*
X84865466Y-58014785D01*
X84770821Y-58178715D01*
X84770818Y-58178722D01*
X84723849Y-58323279D01*
X84712326Y-58358744D01*
X84692540Y-58547000D01*
X84712326Y-58735256D01*
X84712327Y-58735259D01*
X84770818Y-58915277D01*
X84770821Y-58915284D01*
X84865467Y-59079216D01*
X84953667Y-59177172D01*
X84992129Y-59219888D01*
X85145265Y-59331148D01*
X85145267Y-59331149D01*
X85145270Y-59331151D01*
X85188013Y-59350181D01*
X85210757Y-59360308D01*
X85226898Y-59368977D01*
X85247271Y-59381943D01*
X85247274Y-59381945D01*
X85247278Y-59381946D01*
X85247280Y-59381948D01*
X85614515Y-59547701D01*
X85667518Y-59593221D01*
X85687499Y-59660173D01*
X85687500Y-59660721D01*
X85687500Y-60211096D01*
X85672033Y-60271068D01*
X85381118Y-60797543D01*
X85381113Y-60797553D01*
X85381071Y-60797657D01*
X85380951Y-60797891D01*
X85379596Y-60800711D01*
X85379528Y-60800678D01*
X85371993Y-60815440D01*
X85365685Y-60825666D01*
X85350758Y-60870709D01*
X85349221Y-60874848D01*
X85337447Y-60903391D01*
X85337443Y-60903403D01*
X85336002Y-60908458D01*
X85328426Y-60937674D01*
X85327263Y-60941614D01*
X85310501Y-60992198D01*
X85300000Y-61094983D01*
X85300000Y-62095001D01*
X85300001Y-62095019D01*
X85310500Y-62197796D01*
X85310501Y-62197799D01*
X85365685Y-62364331D01*
X85365687Y-62364336D01*
X85398391Y-62417358D01*
X85457788Y-62513656D01*
X85581844Y-62637712D01*
X85731166Y-62729814D01*
X85897703Y-62784999D01*
X86000491Y-62795500D01*
X86625508Y-62795499D01*
X86625516Y-62795498D01*
X86625519Y-62795498D01*
X86681802Y-62789748D01*
X86728297Y-62784999D01*
X86894834Y-62729814D01*
X87044156Y-62637712D01*
X87137819Y-62544049D01*
X87199142Y-62510564D01*
X87268834Y-62515548D01*
X87313180Y-62544049D01*
X87406844Y-62637712D01*
X87556166Y-62729814D01*
X87722703Y-62784999D01*
X87825491Y-62795500D01*
X88000350Y-62795499D01*
X88037689Y-62801253D01*
X88597569Y-62978051D01*
X88625504Y-62986872D01*
X88675845Y-63017435D01*
X89355781Y-63697372D01*
X89389265Y-63758693D01*
X89392099Y-63785051D01*
X89392099Y-66484303D01*
X89372414Y-66551342D01*
X89319610Y-66597097D01*
X89311433Y-66600485D01*
X89216469Y-66635904D01*
X89216464Y-66635907D01*
X89101255Y-66722153D01*
X89101252Y-66722156D01*
X89015006Y-66837365D01*
X89015002Y-66837372D01*
X88974617Y-66945652D01*
X88964709Y-66972218D01*
X88958300Y-67031828D01*
X88958300Y-67031835D01*
X88958300Y-67031836D01*
X88958300Y-67356170D01*
X88958301Y-67356177D01*
X88964708Y-67415784D01*
X88987044Y-67475668D01*
X88992028Y-67545360D01*
X88987044Y-67562333D01*
X88964710Y-67622213D01*
X88964710Y-67622215D01*
X88964709Y-67622219D01*
X88958300Y-67681829D01*
X88958300Y-67681836D01*
X88958300Y-67681837D01*
X88958300Y-68006171D01*
X88958301Y-68006178D01*
X88964709Y-68065787D01*
X88987043Y-68125669D01*
X88992027Y-68195361D01*
X88987044Y-68212332D01*
X88964710Y-68272214D01*
X88964709Y-68272218D01*
X88958300Y-68331828D01*
X88958300Y-68331835D01*
X88958300Y-68331836D01*
X88958300Y-68656170D01*
X88958301Y-68656177D01*
X88964708Y-68715784D01*
X88987044Y-68775668D01*
X88992028Y-68845360D01*
X88987044Y-68862333D01*
X88964710Y-68922213D01*
X88964710Y-68922215D01*
X88964709Y-68922219D01*
X88958300Y-68981829D01*
X88958300Y-68981836D01*
X88958300Y-68981837D01*
X88958300Y-69306171D01*
X88958301Y-69306175D01*
X88964709Y-69365787D01*
X88987043Y-69425669D01*
X88992027Y-69495361D01*
X88987044Y-69512332D01*
X88964710Y-69572214D01*
X88964709Y-69572218D01*
X88958300Y-69631828D01*
X88958300Y-69631835D01*
X88958300Y-69631836D01*
X88958300Y-69956170D01*
X88958301Y-69956177D01*
X88964709Y-70015786D01*
X88987043Y-70075668D01*
X88992027Y-70145360D01*
X88987043Y-70162332D01*
X88964710Y-70222210D01*
X88964709Y-70222214D01*
X88964709Y-70222216D01*
X88958300Y-70281826D01*
X88958300Y-70281833D01*
X88958300Y-70281834D01*
X88958300Y-70606168D01*
X88958301Y-70606175D01*
X88964708Y-70665782D01*
X88987044Y-70725666D01*
X88992028Y-70795358D01*
X88987045Y-70812330D01*
X88964708Y-70872219D01*
X88962143Y-70896082D01*
X88958301Y-70931827D01*
X88958300Y-70931837D01*
X88958300Y-71256170D01*
X88958301Y-71256177D01*
X88964709Y-71315786D01*
X88987043Y-71375668D01*
X88992027Y-71445360D01*
X88987043Y-71462332D01*
X88964710Y-71522210D01*
X88964709Y-71522214D01*
X88964709Y-71522216D01*
X88958300Y-71581826D01*
X88958300Y-71581833D01*
X88958300Y-71581834D01*
X88958300Y-71906168D01*
X88958301Y-71906175D01*
X88964708Y-71965782D01*
X89015002Y-72100627D01*
X89015006Y-72100634D01*
X89101252Y-72215843D01*
X89101255Y-72215846D01*
X89216464Y-72302092D01*
X89216471Y-72302096D01*
X89261418Y-72318859D01*
X89351317Y-72352390D01*
X89410927Y-72358799D01*
X89696447Y-72358798D01*
X89763486Y-72378482D01*
X89784128Y-72395117D01*
X90102795Y-72713784D01*
X90112620Y-72726048D01*
X90112841Y-72725866D01*
X90117811Y-72731873D01*
X90117814Y-72731876D01*
X90117815Y-72731877D01*
X90168252Y-72779241D01*
X90189131Y-72800120D01*
X90194605Y-72804366D01*
X90199043Y-72808156D01*
X90233019Y-72840062D01*
X90233023Y-72840064D01*
X90250574Y-72849713D01*
X90266832Y-72860392D01*
X90282665Y-72872674D01*
X90304616Y-72882172D01*
X90325438Y-72891183D01*
X90330682Y-72893752D01*
X90371509Y-72916197D01*
X90390913Y-72921179D01*
X90409311Y-72927478D01*
X90427706Y-72935438D01*
X90473730Y-72942726D01*
X90479433Y-72943907D01*
X90524582Y-72955500D01*
X90544617Y-72955500D01*
X90564014Y-72957026D01*
X90583797Y-72960160D01*
X90630184Y-72955775D01*
X90636023Y-72955500D01*
X93741212Y-72955500D01*
X93808251Y-72975185D01*
X93811450Y-72977311D01*
X94066508Y-73152664D01*
X94066510Y-73152665D01*
X94066509Y-73152665D01*
X94074904Y-73157609D01*
X94096096Y-73170092D01*
X94101601Y-73173759D01*
X94101663Y-73173793D01*
X94101666Y-73173794D01*
X94101669Y-73173796D01*
X94105341Y-73175165D01*
X94111315Y-73177759D01*
X94115730Y-73179960D01*
X94115733Y-73179961D01*
X94115735Y-73179962D01*
X94127714Y-73184182D01*
X94160268Y-73195652D01*
X94236517Y-73224091D01*
X94296127Y-73230500D01*
X94356766Y-73230499D01*
X94361248Y-73230661D01*
X94362474Y-73230749D01*
X94376861Y-73231792D01*
X94376863Y-73231791D01*
X94376864Y-73231792D01*
X94380611Y-73231527D01*
X94385793Y-73231161D01*
X94385798Y-73231160D01*
X94385803Y-73231160D01*
X94389580Y-73230792D01*
X94395599Y-73230499D01*
X95991871Y-73230499D01*
X95991872Y-73230499D01*
X96051483Y-73224091D01*
X96173638Y-73178529D01*
X96188127Y-73177493D01*
X96196715Y-73166022D01*
X96301546Y-73087546D01*
X96387796Y-72972331D01*
X96438091Y-72837483D01*
X96444500Y-72777873D01*
X96444499Y-71882128D01*
X96438091Y-71822517D01*
X96410421Y-71748332D01*
X96405438Y-71678642D01*
X96410420Y-71661672D01*
X96438091Y-71587483D01*
X96444500Y-71527873D01*
X96444499Y-70632128D01*
X96438091Y-70572517D01*
X96410421Y-70498332D01*
X96405438Y-70428642D01*
X96410420Y-70411672D01*
X96438091Y-70337483D01*
X96444500Y-70277873D01*
X96444499Y-69382128D01*
X96438091Y-69322517D01*
X96431995Y-69306174D01*
X96410422Y-69248332D01*
X96405438Y-69178640D01*
X96410418Y-69161676D01*
X96438091Y-69087483D01*
X96444500Y-69027873D01*
X96444499Y-68132128D01*
X96438091Y-68072517D01*
X96410154Y-67997616D01*
X96405171Y-67927927D01*
X96410156Y-67910950D01*
X96437597Y-67837379D01*
X96437597Y-67837377D01*
X96443999Y-67777844D01*
X96444000Y-67777827D01*
X96444000Y-67580000D01*
X93844000Y-67580000D01*
X93844000Y-67777844D01*
X93850401Y-67837372D01*
X93850403Y-67837379D01*
X93877844Y-67910952D01*
X93882828Y-67980643D01*
X93877844Y-67997618D01*
X93849908Y-68072517D01*
X93844194Y-68125669D01*
X93843501Y-68132123D01*
X93843500Y-68132135D01*
X93843500Y-68344547D01*
X93823815Y-68411586D01*
X93807181Y-68432228D01*
X93107227Y-69132182D01*
X93045904Y-69165667D01*
X93019546Y-69168501D01*
X92383039Y-69168501D01*
X92316000Y-69148816D01*
X92270245Y-69096012D01*
X92260301Y-69026854D01*
X92289326Y-68963298D01*
X92292649Y-68959615D01*
X92311460Y-68939584D01*
X92311459Y-68939584D01*
X92311462Y-68939582D01*
X92321114Y-68922023D01*
X92331789Y-68905772D01*
X92344074Y-68889936D01*
X92362586Y-68847152D01*
X92365142Y-68841935D01*
X92387597Y-68801092D01*
X92392580Y-68781680D01*
X92398877Y-68763291D01*
X92406838Y-68744895D01*
X92414129Y-68698853D01*
X92415308Y-68693162D01*
X92426900Y-68648019D01*
X92426900Y-68627983D01*
X92428427Y-68608582D01*
X92431560Y-68588804D01*
X92427175Y-68542415D01*
X92426900Y-68536577D01*
X92426900Y-66278160D01*
X92446585Y-66211121D01*
X92499389Y-66165366D01*
X92568547Y-66155422D01*
X92601908Y-66165137D01*
X93014399Y-66351318D01*
X93051066Y-66376657D01*
X93138197Y-66463788D01*
X93148022Y-66476051D01*
X93148243Y-66475869D01*
X93153214Y-66481878D01*
X93165217Y-66493149D01*
X93203635Y-66529226D01*
X93224529Y-66550120D01*
X93230011Y-66554373D01*
X93234443Y-66558157D01*
X93268418Y-66590062D01*
X93285976Y-66599714D01*
X93302235Y-66610395D01*
X93318064Y-66622673D01*
X93360838Y-66641182D01*
X93366056Y-66643738D01*
X93406908Y-66666197D01*
X93426316Y-66671180D01*
X93444717Y-66677480D01*
X93463104Y-66685437D01*
X93506488Y-66692308D01*
X93509119Y-66692725D01*
X93514839Y-66693909D01*
X93559981Y-66705500D01*
X93580016Y-66705500D01*
X93599414Y-66707026D01*
X93619194Y-66710159D01*
X93619195Y-66710160D01*
X93619195Y-66710159D01*
X93619196Y-66710160D01*
X93665583Y-66705775D01*
X93671422Y-66705500D01*
X93724948Y-66705500D01*
X93791987Y-66725185D01*
X93837742Y-66777989D01*
X93848237Y-66842756D01*
X93844000Y-66882155D01*
X93844000Y-67080000D01*
X96444000Y-67080000D01*
X96444000Y-66882172D01*
X96443999Y-66882155D01*
X96437598Y-66822623D01*
X96410155Y-66749047D01*
X96405171Y-66679355D01*
X96410148Y-66662399D01*
X96438091Y-66587483D01*
X96444500Y-66527873D01*
X96444499Y-65632128D01*
X96438091Y-65572517D01*
X96410421Y-65498332D01*
X96405438Y-65428642D01*
X96410420Y-65411672D01*
X96438091Y-65337483D01*
X96444500Y-65277873D01*
X96444499Y-64382128D01*
X96438653Y-64327744D01*
X96438091Y-64322516D01*
X96387797Y-64187671D01*
X96387793Y-64187664D01*
X96301547Y-64072455D01*
X96301544Y-64072452D01*
X96196717Y-63993978D01*
X96188128Y-63982505D01*
X96173638Y-63981469D01*
X96051482Y-63935908D01*
X96051483Y-63935908D01*
X95991883Y-63929501D01*
X95991881Y-63929500D01*
X95991873Y-63929500D01*
X95991864Y-63929500D01*
X94296129Y-63929500D01*
X94296123Y-63929501D01*
X94236516Y-63935908D01*
X94101671Y-63986202D01*
X94101664Y-63986206D01*
X93986455Y-64072452D01*
X93986452Y-64072455D01*
X93900206Y-64187664D01*
X93900202Y-64187671D01*
X93849908Y-64322517D01*
X93843997Y-64377500D01*
X93843501Y-64382123D01*
X93843500Y-64382135D01*
X93843500Y-64757535D01*
X93823815Y-64824574D01*
X93771011Y-64870329D01*
X93701853Y-64880273D01*
X93638297Y-64851248D01*
X93612113Y-64819535D01*
X93602073Y-64802145D01*
X93569533Y-64745784D01*
X93442871Y-64605112D01*
X93423698Y-64591182D01*
X93289734Y-64493851D01*
X93289729Y-64493848D01*
X93116807Y-64416857D01*
X93116802Y-64416855D01*
X92953452Y-64382135D01*
X92931646Y-64377500D01*
X92742354Y-64377500D01*
X92742352Y-64377500D01*
X92576680Y-64412714D01*
X92507013Y-64407398D01*
X92451280Y-64365260D01*
X92427175Y-64299680D01*
X92426900Y-64291424D01*
X92426900Y-63377870D01*
X96043500Y-63377870D01*
X96043501Y-63377876D01*
X96049908Y-63437483D01*
X96100202Y-63572328D01*
X96100206Y-63572335D01*
X96186452Y-63687544D01*
X96186455Y-63687547D01*
X96291282Y-63766021D01*
X96299870Y-63777493D01*
X96314361Y-63778530D01*
X96436517Y-63824091D01*
X96436516Y-63824091D01*
X96443444Y-63824835D01*
X96496127Y-63830500D01*
X99591872Y-63830499D01*
X99651483Y-63824091D01*
X99786331Y-63773796D01*
X99901546Y-63687546D01*
X99987796Y-63572331D01*
X100038091Y-63437483D01*
X100044500Y-63377873D01*
X100044499Y-61182128D01*
X100038091Y-61122517D01*
X100027824Y-61094991D01*
X99987797Y-60987671D01*
X99987793Y-60987664D01*
X99901547Y-60872455D01*
X99901544Y-60872452D01*
X99786335Y-60786206D01*
X99786328Y-60786202D01*
X99651482Y-60735908D01*
X99651483Y-60735908D01*
X99591883Y-60729501D01*
X99591881Y-60729500D01*
X99591873Y-60729500D01*
X99591865Y-60729500D01*
X99334023Y-60729500D01*
X99266984Y-60709815D01*
X99240703Y-60687154D01*
X98700180Y-60069412D01*
X98670849Y-60005998D01*
X98669500Y-59987758D01*
X98669500Y-59391742D01*
X98671224Y-59376122D01*
X98670939Y-59376095D01*
X98671673Y-59368333D01*
X98669500Y-59299172D01*
X98669500Y-59269656D01*
X98669500Y-59269650D01*
X98668631Y-59262779D01*
X98668173Y-59256952D01*
X98667844Y-59246481D01*
X98666710Y-59210373D01*
X98661119Y-59191130D01*
X98657173Y-59172078D01*
X98654664Y-59152208D01*
X98637504Y-59108867D01*
X98635624Y-59103379D01*
X98622618Y-59058610D01*
X98617534Y-59050014D01*
X98612423Y-59041371D01*
X98603861Y-59023894D01*
X98596487Y-59005270D01*
X98596486Y-59005268D01*
X98569079Y-58967545D01*
X98565888Y-58962686D01*
X98563276Y-58958270D01*
X98542170Y-58922580D01*
X98542168Y-58922578D01*
X98542165Y-58922574D01*
X98528005Y-58908414D01*
X98515369Y-58893620D01*
X98507849Y-58883270D01*
X98503594Y-58877413D01*
X98503589Y-58877409D01*
X98499372Y-58872918D01*
X98476740Y-58839043D01*
X98474634Y-58834378D01*
X98344925Y-58546999D01*
X98243948Y-58323279D01*
X98243948Y-58323280D01*
X98242555Y-58320531D01*
X98238877Y-58311626D01*
X98238821Y-58311652D01*
X98236180Y-58305721D01*
X98236179Y-58305716D01*
X98227729Y-58291080D01*
X98226133Y-58288133D01*
X98223316Y-58282576D01*
X98222126Y-58280690D01*
X98219256Y-58276403D01*
X98171409Y-58193531D01*
X98141533Y-58141784D01*
X98014871Y-58001112D01*
X98014870Y-58001111D01*
X97861734Y-57889851D01*
X97861729Y-57889848D01*
X97688807Y-57812857D01*
X97688802Y-57812855D01*
X97543001Y-57781865D01*
X97503646Y-57773500D01*
X97314354Y-57773500D01*
X97281897Y-57780398D01*
X97129197Y-57812855D01*
X97129192Y-57812857D01*
X96956270Y-57889848D01*
X96956265Y-57889851D01*
X96803129Y-58001111D01*
X96676466Y-58141785D01*
X96581821Y-58305715D01*
X96581818Y-58305722D01*
X96523327Y-58485740D01*
X96523326Y-58485744D01*
X96503540Y-58674000D01*
X96523326Y-58862256D01*
X96523327Y-58862259D01*
X96581818Y-59042277D01*
X96581821Y-59042284D01*
X96676467Y-59206216D01*
X96780119Y-59321333D01*
X96803129Y-59346888D01*
X96956265Y-59458148D01*
X96956267Y-59458149D01*
X96956270Y-59458151D01*
X96999013Y-59477181D01*
X97021757Y-59487308D01*
X97037898Y-59495977D01*
X97058271Y-59508943D01*
X97058279Y-59508948D01*
X97104414Y-59529771D01*
X97345513Y-59638592D01*
X97398518Y-59684112D01*
X97418499Y-59751064D01*
X97418500Y-59751612D01*
X97418500Y-59987756D01*
X97398815Y-60054795D01*
X97387820Y-60069411D01*
X96847294Y-60687155D01*
X96788334Y-60724645D01*
X96753974Y-60729500D01*
X96496130Y-60729500D01*
X96496123Y-60729501D01*
X96436516Y-60735908D01*
X96301671Y-60786202D01*
X96301664Y-60786206D01*
X96186455Y-60872452D01*
X96186452Y-60872455D01*
X96100206Y-60987664D01*
X96100202Y-60987671D01*
X96049908Y-61122517D01*
X96045319Y-61165208D01*
X96043501Y-61182123D01*
X96043500Y-61182135D01*
X96043500Y-63377870D01*
X92426900Y-63377870D01*
X92426900Y-54925741D01*
X92428624Y-54910127D01*
X92428338Y-54910100D01*
X92429072Y-54902337D01*
X92426900Y-54833206D01*
X92426900Y-54803655D01*
X92426900Y-54803654D01*
X92426029Y-54796763D01*
X92425572Y-54790949D01*
X92424126Y-54744934D01*
X92424109Y-54744376D01*
X92418520Y-54725141D01*
X92414574Y-54706088D01*
X92413321Y-54696168D01*
X92412064Y-54686212D01*
X92394901Y-54642863D01*
X92393014Y-54637350D01*
X92385068Y-54609999D01*
X95125639Y-54609999D01*
X95145064Y-54931147D01*
X95145064Y-54931152D01*
X95145065Y-54931153D01*
X95203060Y-55247623D01*
X95203061Y-55247627D01*
X95203062Y-55247631D01*
X95298772Y-55554776D01*
X95298776Y-55554787D01*
X95298777Y-55554790D01*
X95298779Y-55554795D01*
X95430825Y-55848190D01*
X95586043Y-56104951D01*
X95597273Y-56123528D01*
X95597279Y-56123537D01*
X95795699Y-56376801D01*
X96023198Y-56604300D01*
X96269975Y-56797638D01*
X96276470Y-56802726D01*
X96551810Y-56969175D01*
X96845205Y-57101221D01*
X96845215Y-57101224D01*
X96845223Y-57101227D01*
X97049986Y-57165033D01*
X97152377Y-57196940D01*
X97468847Y-57254935D01*
X97790000Y-57274361D01*
X98111153Y-57254935D01*
X98427623Y-57196940D01*
X98734795Y-57101221D01*
X99028190Y-56969175D01*
X99303530Y-56802726D01*
X99556798Y-56604303D01*
X99784303Y-56376798D01*
X99982726Y-56123530D01*
X100149175Y-55848190D01*
X100281221Y-55554795D01*
X100376940Y-55247623D01*
X100434935Y-54931153D01*
X100454361Y-54610000D01*
X100434935Y-54288847D01*
X100376940Y-53972377D01*
X100337099Y-53844524D01*
X100281227Y-53665223D01*
X100281223Y-53665212D01*
X100281221Y-53665205D01*
X100149175Y-53371810D01*
X99982726Y-53096470D01*
X99904433Y-52996537D01*
X99784300Y-52843198D01*
X99556801Y-52615699D01*
X99303537Y-52417279D01*
X99303532Y-52417276D01*
X99303530Y-52417274D01*
X99028190Y-52250825D01*
X98734795Y-52118779D01*
X98734790Y-52118777D01*
X98734787Y-52118776D01*
X98734776Y-52118772D01*
X98427631Y-52023062D01*
X98427627Y-52023061D01*
X98427623Y-52023060D01*
X98111153Y-51965065D01*
X98111152Y-51965064D01*
X98111147Y-51965064D01*
X97790000Y-51945639D01*
X97468852Y-51965064D01*
X97468846Y-51965065D01*
X97468847Y-51965065D01*
X97152377Y-52023060D01*
X97152374Y-52023060D01*
X97152368Y-52023062D01*
X96845223Y-52118772D01*
X96845212Y-52118776D01*
X96845206Y-52118778D01*
X96845205Y-52118779D01*
X96814058Y-52132797D01*
X96551814Y-52250823D01*
X96551812Y-52250824D01*
X96276471Y-52417273D01*
X96276462Y-52417279D01*
X96023198Y-52615699D01*
X95795699Y-52843198D01*
X95597279Y-53096462D01*
X95597273Y-53096471D01*
X95563604Y-53152167D01*
X95431412Y-53370840D01*
X95430824Y-53371812D01*
X95430823Y-53371814D01*
X95386240Y-53470873D01*
X95325898Y-53604950D01*
X95298776Y-53665212D01*
X95298772Y-53665223D01*
X95203062Y-53972368D01*
X95145064Y-54288852D01*
X95125639Y-54609999D01*
X92385068Y-54609999D01*
X92380017Y-54592614D01*
X92380016Y-54592612D01*
X92369821Y-54575373D01*
X92361260Y-54557897D01*
X92353886Y-54539273D01*
X92353886Y-54539271D01*
X92343874Y-54525492D01*
X92326483Y-54501554D01*
X92323300Y-54496709D01*
X92299570Y-54456583D01*
X92299565Y-54456577D01*
X92285405Y-54442417D01*
X92272770Y-54427624D01*
X92260993Y-54411416D01*
X92225093Y-54381717D01*
X92220781Y-54377794D01*
X91460198Y-53617211D01*
X91450376Y-53604950D01*
X91450155Y-53605134D01*
X91445182Y-53599123D01*
X91426555Y-53581631D01*
X91394760Y-53551773D01*
X91383288Y-53540301D01*
X91373871Y-53530883D01*
X91368382Y-53526625D01*
X91363957Y-53522847D01*
X91329978Y-53490938D01*
X91329976Y-53490936D01*
X91329973Y-53490935D01*
X91312425Y-53481288D01*
X91296159Y-53470604D01*
X91280329Y-53458325D01*
X91237564Y-53439818D01*
X91232318Y-53437248D01*
X91191489Y-53414803D01*
X91191488Y-53414802D01*
X91172089Y-53409822D01*
X91153677Y-53403518D01*
X91135294Y-53395562D01*
X91135288Y-53395560D01*
X91089270Y-53388272D01*
X91083548Y-53387087D01*
X91038417Y-53375500D01*
X91038415Y-53375500D01*
X91018380Y-53375500D01*
X90998982Y-53373973D01*
X90985350Y-53371814D01*
X90979201Y-53370840D01*
X90979200Y-53370840D01*
X90932812Y-53375225D01*
X90926974Y-53375500D01*
X85527738Y-53375500D01*
X85512121Y-53373776D01*
X85512094Y-53374062D01*
X85504332Y-53373327D01*
X85435204Y-53375500D01*
X85405650Y-53375500D01*
X85404929Y-53375590D01*
X85398757Y-53376369D01*
X85392945Y-53376826D01*
X85346373Y-53378290D01*
X85346372Y-53378290D01*
X85327129Y-53383881D01*
X85308079Y-53387825D01*
X85288211Y-53390334D01*
X85244884Y-53407488D01*
X85239358Y-53409379D01*
X85194614Y-53422379D01*
X85194610Y-53422381D01*
X85177366Y-53432579D01*
X85159905Y-53441133D01*
X85141274Y-53448510D01*
X85141262Y-53448517D01*
X85103570Y-53475902D01*
X85098687Y-53479109D01*
X85058580Y-53502829D01*
X85044414Y-53516995D01*
X85029624Y-53529627D01*
X85013414Y-53541404D01*
X85013411Y-53541407D01*
X84983710Y-53577309D01*
X84979777Y-53581631D01*
X84927990Y-53633418D01*
X84886566Y-53660786D01*
X83379924Y-54266549D01*
X83333667Y-54275500D01*
X82922129Y-54275500D01*
X82922123Y-54275501D01*
X82862516Y-54281908D01*
X82727671Y-54332202D01*
X82727664Y-54332206D01*
X82612455Y-54418452D01*
X82612452Y-54418455D01*
X82526206Y-54533664D01*
X82526202Y-54533671D01*
X82475908Y-54668517D01*
X82469501Y-54728116D01*
X82469500Y-54728135D01*
X82469500Y-56523870D01*
X72862492Y-56523870D01*
X72797712Y-56418844D01*
X72704049Y-56325181D01*
X72670564Y-56263858D01*
X72675548Y-56194166D01*
X72704049Y-56149819D01*
X72748917Y-56104951D01*
X72797712Y-56056156D01*
X72889814Y-55906834D01*
X72944999Y-55740297D01*
X72955500Y-55637509D01*
X72955499Y-55012492D01*
X72944999Y-54909703D01*
X72889814Y-54743166D01*
X72797712Y-54593844D01*
X72673656Y-54469788D01*
X72579019Y-54411416D01*
X72524336Y-54377687D01*
X72524331Y-54377685D01*
X72522862Y-54377198D01*
X72357797Y-54322501D01*
X72357795Y-54322500D01*
X72255010Y-54312000D01*
X71254998Y-54312000D01*
X71254980Y-54312001D01*
X71152203Y-54322500D01*
X71152200Y-54322501D01*
X71027851Y-54363707D01*
X70985666Y-54377686D01*
X70985664Y-54377686D01*
X70985664Y-54377687D01*
X70985659Y-54377689D01*
X70984719Y-54378269D01*
X70979107Y-54381340D01*
X70442159Y-54640198D01*
X70388311Y-54652500D01*
X67931902Y-54652500D01*
X67871930Y-54637033D01*
X67345462Y-54346122D01*
X67345458Y-54346120D01*
X67345388Y-54346091D01*
X67345337Y-54346070D01*
X67345072Y-54345935D01*
X67342298Y-54344602D01*
X67342330Y-54344535D01*
X67327561Y-54336994D01*
X67317333Y-54330685D01*
X67317331Y-54330684D01*
X67272342Y-54315776D01*
X67268194Y-54314235D01*
X67239687Y-54302471D01*
X67239673Y-54302466D01*
X67234604Y-54301020D01*
X67214423Y-54295786D01*
X67210961Y-54294888D01*
X67210959Y-54294887D01*
X67205323Y-54293426D01*
X67201390Y-54292265D01*
X67180022Y-54285185D01*
X67150798Y-54275501D01*
X67048010Y-54265000D01*
X66047998Y-54265000D01*
X66047980Y-54265001D01*
X65945203Y-54275500D01*
X65945200Y-54275501D01*
X65778668Y-54330685D01*
X65778663Y-54330687D01*
X65629342Y-54422789D01*
X65505289Y-54546842D01*
X65413187Y-54696163D01*
X65413185Y-54696168D01*
X65397176Y-54744480D01*
X65358001Y-54862703D01*
X65358001Y-54862704D01*
X65358000Y-54862704D01*
X65347500Y-54965483D01*
X65347499Y-54965496D01*
X65347499Y-55140345D01*
X65341744Y-55177683D01*
X65156124Y-55765505D01*
X65125560Y-55815847D01*
X61591501Y-59349906D01*
X61579244Y-59359727D01*
X61579427Y-59359948D01*
X61573416Y-59364920D01*
X61526065Y-59415343D01*
X61505182Y-59436226D01*
X61505170Y-59436239D01*
X61500914Y-59441724D01*
X61497130Y-59446154D01*
X61465230Y-59480125D01*
X61465229Y-59480127D01*
X61455577Y-59497683D01*
X61444903Y-59513933D01*
X61432622Y-59529768D01*
X61432617Y-59529775D01*
X61414108Y-59572545D01*
X61411538Y-59577791D01*
X61389096Y-59618613D01*
X61384115Y-59638014D01*
X61377814Y-59656417D01*
X61369855Y-59674809D01*
X61369854Y-59674812D01*
X61366570Y-59695546D01*
X61336638Y-59758680D01*
X61277325Y-59795609D01*
X61207463Y-59794609D01*
X61156416Y-59763825D01*
X60939112Y-59546521D01*
X60905627Y-59485198D01*
X60902793Y-59458840D01*
X60902793Y-58380934D01*
X60902793Y-57263188D01*
X60918257Y-57203225D01*
X61100085Y-56874166D01*
X61149737Y-56825011D01*
X61218083Y-56810502D01*
X61283425Y-56835247D01*
X61296298Y-56846459D01*
X61371447Y-56921608D01*
X61520668Y-57013649D01*
X61520673Y-57013651D01*
X61687095Y-57068798D01*
X61687102Y-57068799D01*
X61789812Y-57079292D01*
X61852292Y-57079291D01*
X61852293Y-57079291D01*
X61852293Y-56129293D01*
X62352293Y-56129293D01*
X62352293Y-57079292D01*
X62414765Y-57079292D01*
X62414779Y-57079291D01*
X62517490Y-57068798D01*
X62683912Y-57013651D01*
X62683917Y-57013649D01*
X62833138Y-56921608D01*
X62957108Y-56797638D01*
X63049149Y-56648417D01*
X63049151Y-56648412D01*
X63104298Y-56481990D01*
X63104299Y-56481983D01*
X63114792Y-56379279D01*
X63114793Y-56379266D01*
X63114793Y-56129293D01*
X62352293Y-56129293D01*
X61852293Y-56129293D01*
X61852293Y-54679293D01*
X62352293Y-54679293D01*
X62352293Y-55629293D01*
X63114792Y-55629293D01*
X63114792Y-55379321D01*
X63114791Y-55379306D01*
X63104298Y-55276595D01*
X63049151Y-55110173D01*
X63049149Y-55110168D01*
X62957108Y-54960947D01*
X62833138Y-54836977D01*
X62683917Y-54744936D01*
X62683912Y-54744934D01*
X62517490Y-54689787D01*
X62517483Y-54689786D01*
X62414779Y-54679293D01*
X62352293Y-54679293D01*
X61852293Y-54679293D01*
X61852292Y-54679292D01*
X61789821Y-54679293D01*
X61789804Y-54679294D01*
X61687095Y-54689787D01*
X61520673Y-54744934D01*
X61520668Y-54744936D01*
X61371450Y-54836975D01*
X61277827Y-54930598D01*
X61216503Y-54964082D01*
X61146812Y-54959098D01*
X61102465Y-54930597D01*
X61008450Y-54836582D01*
X61008449Y-54836581D01*
X60859127Y-54744479D01*
X60692590Y-54689294D01*
X60692588Y-54689293D01*
X60589803Y-54678793D01*
X59964791Y-54678793D01*
X59964773Y-54678794D01*
X59861996Y-54689293D01*
X59861993Y-54689294D01*
X59695461Y-54744478D01*
X59695456Y-54744480D01*
X59546135Y-54836582D01*
X59422082Y-54960635D01*
X59329980Y-55109956D01*
X59329978Y-55109961D01*
X59309487Y-55171799D01*
X59274794Y-55276496D01*
X59274794Y-55276497D01*
X59274793Y-55276497D01*
X59264293Y-55379276D01*
X59264293Y-56379294D01*
X59264294Y-56379312D01*
X59274793Y-56482089D01*
X59274794Y-56482092D01*
X59292782Y-56536374D01*
X59293782Y-56539702D01*
X59294455Y-56542195D01*
X59296497Y-56547587D01*
X59329980Y-56648630D01*
X59329981Y-56648633D01*
X59336148Y-56658631D01*
X59343182Y-56672913D01*
X59343557Y-56672740D01*
X59345412Y-56676751D01*
X59511044Y-56976498D01*
X59636325Y-57203223D01*
X59651792Y-57263194D01*
X59651792Y-59686547D01*
X59650069Y-59702165D01*
X59650354Y-59702192D01*
X59649619Y-59709959D01*
X59651792Y-59779107D01*
X59651792Y-59808644D01*
X59652661Y-59815525D01*
X59653119Y-59821344D01*
X59654583Y-59867917D01*
X59654584Y-59867920D01*
X59660173Y-59887160D01*
X59664117Y-59906204D01*
X59666629Y-59926085D01*
X59678949Y-59957202D01*
X59683783Y-59969412D01*
X59685675Y-59974940D01*
X59694517Y-60005374D01*
X59698675Y-60019683D01*
X59707349Y-60034351D01*
X59708873Y-60036927D01*
X59717431Y-60054396D01*
X59724807Y-60073026D01*
X59728328Y-60079429D01*
X59743376Y-60147659D01*
X59719147Y-60213193D01*
X59663334Y-60255225D01*
X59658672Y-60256874D01*
X59505959Y-60307479D01*
X59505956Y-60307480D01*
X59356635Y-60399582D01*
X59232582Y-60523635D01*
X59140480Y-60672956D01*
X59140478Y-60672961D01*
X59127071Y-60713421D01*
X59085294Y-60839496D01*
X59085294Y-60839497D01*
X59085293Y-60839497D01*
X59074793Y-60942276D01*
X59074793Y-61992294D01*
X59074794Y-61992312D01*
X59085293Y-62095089D01*
X59085295Y-62095096D01*
X59107855Y-62163178D01*
X59112295Y-62180821D01*
X59115857Y-62201191D01*
X59115859Y-62201202D01*
X59144166Y-62287814D01*
X59146281Y-62357651D01*
X59110303Y-62417546D01*
X59077314Y-62439355D01*
X58919549Y-62510564D01*
X58577277Y-62665052D01*
X58577268Y-62665056D01*
X58536536Y-62685705D01*
X58531610Y-62688816D01*
X58531294Y-62688316D01*
X58514200Y-62698515D01*
X58475271Y-62715847D01*
X58475267Y-62715849D01*
X58322129Y-62827111D01*
X58195466Y-62967785D01*
X58100821Y-63131715D01*
X58100818Y-63131722D01*
X58045656Y-63301494D01*
X58042326Y-63311744D01*
X58022540Y-63500000D01*
X58042326Y-63688256D01*
X58042327Y-63688259D01*
X58100818Y-63868277D01*
X58100821Y-63868284D01*
X58195467Y-64032216D01*
X58322129Y-64172888D01*
X58475265Y-64284148D01*
X58475270Y-64284151D01*
X58648192Y-64361142D01*
X58648197Y-64361144D01*
X58833354Y-64400500D01*
X58833355Y-64400500D01*
X59022644Y-64400500D01*
X59022646Y-64400500D01*
X59207803Y-64361144D01*
X59380730Y-64284151D01*
X59533871Y-64172888D01*
X59660533Y-64032216D01*
X59755179Y-63868284D01*
X59755182Y-63868272D01*
X59757819Y-63862352D01*
X59757974Y-63862421D01*
X59761235Y-63854808D01*
X59761124Y-63854758D01*
X59762944Y-63850724D01*
X59762948Y-63850719D01*
X60001318Y-63322597D01*
X60026653Y-63285936D01*
X60259248Y-63053340D01*
X60265699Y-63047724D01*
X60290877Y-63028701D01*
X60748057Y-62567388D01*
X60771025Y-62549143D01*
X60793949Y-62535005D01*
X60918005Y-62410949D01*
X60919754Y-62408112D01*
X60921462Y-62406576D01*
X60922486Y-62405282D01*
X60922707Y-62405456D01*
X60971699Y-62361389D01*
X61040661Y-62350165D01*
X61104744Y-62378006D01*
X61130830Y-62408110D01*
X61132581Y-62410949D01*
X61256637Y-62535005D01*
X61405959Y-62627107D01*
X61572496Y-62682292D01*
X61675284Y-62692793D01*
X62275301Y-62692792D01*
X62275309Y-62692791D01*
X62275312Y-62692791D01*
X62331595Y-62687041D01*
X62378090Y-62682292D01*
X62544627Y-62627107D01*
X62693949Y-62535005D01*
X62818005Y-62410949D01*
X62910107Y-62261627D01*
X62965292Y-62095090D01*
X62975793Y-61992302D01*
X62975792Y-60942285D01*
X62975723Y-60941614D01*
X62965292Y-60839499D01*
X62965292Y-60839497D01*
X62965292Y-60839496D01*
X62947265Y-60785097D01*
X62946877Y-60783777D01*
X62946426Y-60782562D01*
X62939874Y-60762789D01*
X62910107Y-60672959D01*
X62903464Y-60662189D01*
X62899792Y-60655300D01*
X62896491Y-60648041D01*
X62896490Y-60648038D01*
X62681581Y-60253001D01*
X62646946Y-60189336D01*
X62632201Y-60121040D01*
X62656720Y-60055614D01*
X62668183Y-60042405D01*
X63483925Y-59226663D01*
X63545246Y-59193180D01*
X63614938Y-59198164D01*
X63670871Y-59240036D01*
X63695053Y-59302675D01*
X63699725Y-59352081D01*
X63700000Y-59357920D01*
X63699999Y-64190088D01*
X63680314Y-64257127D01*
X63675551Y-64264017D01*
X63529273Y-64460994D01*
X63494819Y-64492603D01*
X63381844Y-64562287D01*
X63257789Y-64686342D01*
X63165687Y-64835663D01*
X63165685Y-64835668D01*
X63158194Y-64858275D01*
X63110501Y-65002203D01*
X63110501Y-65002204D01*
X63110500Y-65002204D01*
X63100000Y-65104983D01*
X63100000Y-65140096D01*
X63085381Y-65198507D01*
X62792296Y-65747342D01*
X62770596Y-65776612D01*
X59448174Y-69099032D01*
X59386851Y-69132517D01*
X59317159Y-69127533D01*
X59261226Y-69085661D01*
X59236809Y-69020197D01*
X59237022Y-68999910D01*
X59238546Y-68983470D01*
X59252396Y-68834000D01*
X59232056Y-68614494D01*
X59171728Y-68402462D01*
X59168465Y-68395909D01*
X59073469Y-68205131D01*
X59073464Y-68205123D01*
X58940615Y-68029203D01*
X58777705Y-67880692D01*
X58777703Y-67880690D01*
X58590280Y-67764643D01*
X58590274Y-67764640D01*
X58497137Y-67728559D01*
X58384717Y-67685007D01*
X58168023Y-67644500D01*
X57947577Y-67644500D01*
X57730883Y-67685007D01*
X57681501Y-67704137D01*
X57525325Y-67764640D01*
X57525319Y-67764643D01*
X57337896Y-67880690D01*
X57337894Y-67880692D01*
X57174984Y-68029203D01*
X57042135Y-68205123D01*
X57042130Y-68205131D01*
X56943873Y-68402458D01*
X56931490Y-68445979D01*
X56888580Y-68596796D01*
X56883543Y-68614498D01*
X56863204Y-68833999D01*
X56863204Y-68834000D01*
X56883543Y-69053501D01*
X56883543Y-69053503D01*
X56883544Y-69053506D01*
X56943872Y-69265538D01*
X56943873Y-69265541D01*
X57042130Y-69462868D01*
X57042135Y-69462876D01*
X57174984Y-69638796D01*
X57337894Y-69787307D01*
X57337896Y-69787309D01*
X57525319Y-69903356D01*
X57525325Y-69903359D01*
X57558752Y-69916308D01*
X57632487Y-69944874D01*
X57687887Y-69987446D01*
X57711478Y-70053213D01*
X57695767Y-70121293D01*
X57645743Y-70170072D01*
X57587692Y-70184500D01*
X57320930Y-70184500D01*
X57320923Y-70184501D01*
X57261316Y-70190908D01*
X57126471Y-70241202D01*
X57126464Y-70241206D01*
X57011255Y-70327452D01*
X57011252Y-70327455D01*
X56925006Y-70442664D01*
X56925002Y-70442671D01*
X56874708Y-70577517D01*
X56868301Y-70637116D01*
X56868300Y-70637135D01*
X56868300Y-72110870D01*
X56868301Y-72110876D01*
X56874708Y-72170483D01*
X56925002Y-72305328D01*
X56925006Y-72305335D01*
X57011252Y-72420544D01*
X57011255Y-72420547D01*
X57126464Y-72506793D01*
X57126471Y-72506797D01*
X57261317Y-72557091D01*
X57261316Y-72557091D01*
X57268244Y-72557835D01*
X57320927Y-72563500D01*
X58794672Y-72563499D01*
X58854283Y-72557091D01*
X58989131Y-72506796D01*
X59104346Y-72420546D01*
X59190596Y-72305331D01*
X59240891Y-72170483D01*
X59247300Y-72110873D01*
X59247299Y-71797909D01*
X59256939Y-71749975D01*
X59294603Y-71660119D01*
X59745816Y-70583637D01*
X59772491Y-70543897D01*
X62888321Y-67428067D01*
X62949642Y-67394584D01*
X63019334Y-67399568D01*
X63075267Y-67441440D01*
X63099684Y-67506904D01*
X63100000Y-67515749D01*
X63100000Y-67605000D01*
X63100001Y-67605019D01*
X63110500Y-67707796D01*
X63110501Y-67707799D01*
X63165685Y-67874331D01*
X63165687Y-67874336D01*
X63188271Y-67910950D01*
X63257788Y-68023656D01*
X63381844Y-68147712D01*
X63494820Y-68217395D01*
X63529276Y-68249005D01*
X63547028Y-68272910D01*
X63672849Y-68442340D01*
X63675552Y-68445979D01*
X63699717Y-68511537D01*
X63700000Y-68519908D01*
X63700000Y-68611047D01*
X63680315Y-68678086D01*
X63675762Y-68684691D01*
X63494540Y-68930183D01*
X63459876Y-68962077D01*
X63406844Y-68994787D01*
X63282789Y-69118842D01*
X63190687Y-69268163D01*
X63190685Y-69268166D01*
X63190686Y-69268166D01*
X63135501Y-69434703D01*
X63135501Y-69434704D01*
X63135500Y-69434704D01*
X63125000Y-69537483D01*
X63125000Y-70162501D01*
X63125001Y-70162519D01*
X63135500Y-70265296D01*
X63135501Y-70265299D01*
X63184003Y-70411666D01*
X63190686Y-70431834D01*
X63280543Y-70577517D01*
X63282789Y-70581157D01*
X63376451Y-70674819D01*
X63409936Y-70736142D01*
X63404952Y-70805834D01*
X63376451Y-70850181D01*
X63282789Y-70943842D01*
X63190687Y-71093163D01*
X63190685Y-71093168D01*
X63173007Y-71146517D01*
X63135501Y-71259703D01*
X63135501Y-71259704D01*
X63135500Y-71259704D01*
X63125000Y-71362483D01*
X63125000Y-71537347D01*
X63119245Y-71574686D01*
X62924721Y-72190698D01*
X62904462Y-72229351D01*
X62893828Y-72243062D01*
X62893824Y-72243068D01*
X62875315Y-72285838D01*
X62872745Y-72291084D01*
X62850303Y-72331906D01*
X62845322Y-72351307D01*
X62839021Y-72369710D01*
X62831062Y-72388102D01*
X62831061Y-72388106D01*
X62823771Y-72434127D01*
X62822587Y-72439846D01*
X62810999Y-72484983D01*
X62810999Y-72505019D01*
X62809473Y-72524407D01*
X62806340Y-72544192D01*
X62806340Y-72544195D01*
X62810725Y-72590583D01*
X62811000Y-72596421D01*
X62811000Y-72731761D01*
X62802989Y-72775607D01*
X62598106Y-73317598D01*
X62583918Y-73360945D01*
X62583480Y-73364344D01*
X62578432Y-73386778D01*
X62550828Y-73471737D01*
X62550826Y-73471743D01*
X62550752Y-73472452D01*
X62531040Y-73660000D01*
X62550826Y-73848256D01*
X62550827Y-73848259D01*
X62609318Y-74028277D01*
X62609321Y-74028284D01*
X62703967Y-74192216D01*
X62811243Y-74311358D01*
X62830629Y-74332888D01*
X62983765Y-74444148D01*
X62983770Y-74444151D01*
X63156692Y-74521142D01*
X63156697Y-74521144D01*
X63341854Y-74560500D01*
X63341855Y-74560500D01*
X63531144Y-74560500D01*
X63531146Y-74560500D01*
X63716303Y-74521144D01*
X63889230Y-74444151D01*
X64042371Y-74332888D01*
X64169033Y-74192216D01*
X64263679Y-74028284D01*
X64322174Y-73848256D01*
X64341960Y-73660000D01*
X64322174Y-73471744D01*
X64281874Y-73347715D01*
X64280314Y-73341998D01*
X64277538Y-73329501D01*
X64274894Y-73317600D01*
X64167598Y-73033766D01*
X64162307Y-72964098D01*
X64195520Y-72902628D01*
X64233115Y-72876659D01*
X64632434Y-72698733D01*
X64682902Y-72687999D01*
X64825502Y-72687999D01*
X64825508Y-72687999D01*
X64928297Y-72677499D01*
X65094834Y-72622314D01*
X65244156Y-72530212D01*
X65368212Y-72406156D01*
X65460314Y-72256834D01*
X65515499Y-72090297D01*
X65526000Y-71987509D01*
X65525999Y-71362492D01*
X65524513Y-71347949D01*
X65515499Y-71259703D01*
X65515498Y-71259700D01*
X65500223Y-71213603D01*
X65460314Y-71093166D01*
X65368212Y-70943844D01*
X65274545Y-70850177D01*
X65241063Y-70788859D01*
X65246047Y-70719167D01*
X65274544Y-70674823D01*
X65368212Y-70581156D01*
X65460314Y-70431834D01*
X65515499Y-70265297D01*
X65526000Y-70162509D01*
X65525999Y-69537492D01*
X65515499Y-69434703D01*
X65460314Y-69268166D01*
X65368212Y-69118844D01*
X65244156Y-68994788D01*
X65244154Y-68994786D01*
X65191121Y-68962076D01*
X65156454Y-68930181D01*
X65150577Y-68922219D01*
X64975235Y-68684688D01*
X64951258Y-68619064D01*
X64951000Y-68611076D01*
X64951000Y-68519906D01*
X64970685Y-68452867D01*
X64975448Y-68445980D01*
X64975449Y-68445979D01*
X65104687Y-68271946D01*
X65160457Y-68229862D01*
X65164040Y-68228572D01*
X65591713Y-68082185D01*
X65629702Y-68069182D01*
X65669858Y-68062500D01*
X67740397Y-68062500D01*
X67807436Y-68082185D01*
X67836250Y-68107835D01*
X67869116Y-68147883D01*
X68021460Y-68272909D01*
X68021467Y-68272913D01*
X68195266Y-68365811D01*
X68195269Y-68365811D01*
X68195273Y-68365814D01*
X68383868Y-68423024D01*
X68580000Y-68442341D01*
X68776132Y-68423024D01*
X68964727Y-68365814D01*
X68978007Y-68358716D01*
X69084902Y-68301579D01*
X69138538Y-68272910D01*
X69290883Y-68147883D01*
X69309116Y-68125666D01*
X69323750Y-68107835D01*
X69381495Y-68068501D01*
X69419603Y-68062500D01*
X70682573Y-68062500D01*
X70702699Y-68064144D01*
X70906773Y-68097711D01*
X70909066Y-68098015D01*
X70937799Y-68101832D01*
X70979287Y-68100100D01*
X71343200Y-68100100D01*
X71410239Y-68119785D01*
X71455994Y-68172589D01*
X71467200Y-68224100D01*
X71467200Y-69455846D01*
X71447515Y-69522885D01*
X71430881Y-69543527D01*
X66283412Y-74690995D01*
X66268621Y-74703629D01*
X66252412Y-74715405D01*
X66252412Y-74715406D01*
X66222712Y-74751307D01*
X66218779Y-74755630D01*
X66196844Y-74777563D01*
X66146504Y-74808125D01*
X65558684Y-74993745D01*
X65521346Y-74999500D01*
X65346499Y-74999500D01*
X65346480Y-74999501D01*
X65243703Y-75010000D01*
X65243700Y-75010001D01*
X65077168Y-75065185D01*
X65077163Y-75065187D01*
X64927842Y-75157289D01*
X64803789Y-75281342D01*
X64711687Y-75430663D01*
X64711685Y-75430666D01*
X64711686Y-75430666D01*
X64656501Y-75597203D01*
X64656501Y-75597204D01*
X64656500Y-75597204D01*
X64646000Y-75699983D01*
X64646000Y-76700001D01*
X64646001Y-76700019D01*
X64656500Y-76802796D01*
X64656501Y-76802799D01*
X64707676Y-76957233D01*
X64711686Y-76969334D01*
X64803788Y-77118656D01*
X64927844Y-77242712D01*
X65077166Y-77334814D01*
X65177338Y-77368007D01*
X65234782Y-77407780D01*
X65261605Y-77472295D01*
X65249290Y-77541071D01*
X65226014Y-77573394D01*
X64603228Y-78196181D01*
X64541905Y-78229666D01*
X64515547Y-78232500D01*
X63551657Y-78232500D01*
X63532259Y-78230973D01*
X63524006Y-78229666D01*
X63512478Y-78227840D01*
X63512477Y-78227840D01*
X63466089Y-78232225D01*
X63460251Y-78232500D01*
X62274743Y-78232500D01*
X62259122Y-78230775D01*
X62259096Y-78231061D01*
X62251334Y-78230327D01*
X62251333Y-78230327D01*
X62182186Y-78232500D01*
X62152649Y-78232500D01*
X62145766Y-78233369D01*
X62139949Y-78233826D01*
X62093373Y-78235290D01*
X62074129Y-78240881D01*
X62055079Y-78244825D01*
X62035211Y-78247334D01*
X61991884Y-78264488D01*
X61986358Y-78266379D01*
X61941614Y-78279379D01*
X61941610Y-78279381D01*
X61924366Y-78289579D01*
X61906905Y-78298133D01*
X61888274Y-78305510D01*
X61888262Y-78305517D01*
X61850570Y-78332902D01*
X61845687Y-78336109D01*
X61805580Y-78359829D01*
X61791414Y-78373995D01*
X61776624Y-78386627D01*
X61760414Y-78398404D01*
X61760411Y-78398407D01*
X61730710Y-78434309D01*
X61726777Y-78438631D01*
X61704847Y-78460561D01*
X61654505Y-78491125D01*
X61066684Y-78676745D01*
X61029346Y-78682500D01*
X60854499Y-78682500D01*
X60854480Y-78682501D01*
X60751703Y-78693000D01*
X60751700Y-78693001D01*
X60585168Y-78748185D01*
X60585163Y-78748187D01*
X60435842Y-78840289D01*
X60311789Y-78964342D01*
X60219687Y-79113663D01*
X60219685Y-79113668D01*
X60204701Y-79158888D01*
X60179768Y-79234132D01*
X60170035Y-79263503D01*
X60130262Y-79320948D01*
X60065746Y-79347771D01*
X59996971Y-79335456D01*
X59945771Y-79287913D01*
X59929477Y-79234064D01*
X59928820Y-79234132D01*
X59917999Y-79128203D01*
X59917998Y-79128200D01*
X59913181Y-79113663D01*
X59862814Y-78961666D01*
X59770712Y-78812344D01*
X59646656Y-78688288D01*
X59497334Y-78596186D01*
X59330797Y-78541001D01*
X59330795Y-78541000D01*
X59228010Y-78530500D01*
X58627998Y-78530500D01*
X58627980Y-78530501D01*
X58525203Y-78541000D01*
X58525200Y-78541001D01*
X58358668Y-78596185D01*
X58358663Y-78596187D01*
X58209342Y-78688289D01*
X58085285Y-78812346D01*
X58083537Y-78815182D01*
X58081829Y-78816717D01*
X58080807Y-78818011D01*
X58080585Y-78817836D01*
X58031589Y-78861905D01*
X57962626Y-78873126D01*
X57898544Y-78845282D01*
X57872463Y-78815182D01*
X57870714Y-78812346D01*
X57746657Y-78688289D01*
X57746656Y-78688288D01*
X57597334Y-78596186D01*
X57430797Y-78541001D01*
X57430795Y-78541000D01*
X57328010Y-78530500D01*
X56727998Y-78530500D01*
X56727980Y-78530501D01*
X56625203Y-78541000D01*
X56625200Y-78541001D01*
X56458668Y-78596185D01*
X56458663Y-78596187D01*
X56309342Y-78688289D01*
X56185289Y-78812342D01*
X56093187Y-78961663D01*
X56093185Y-78961668D01*
X56078000Y-79007494D01*
X56038001Y-79128203D01*
X56038001Y-79128204D01*
X56038000Y-79128204D01*
X56027500Y-79230983D01*
X56027500Y-80281001D01*
X50800500Y-80281001D01*
X50800500Y-54609999D01*
X51945639Y-54609999D01*
X51965064Y-54931147D01*
X51965064Y-54931152D01*
X51965065Y-54931153D01*
X52023060Y-55247623D01*
X52023061Y-55247627D01*
X52023062Y-55247631D01*
X52118772Y-55554776D01*
X52118776Y-55554787D01*
X52118777Y-55554790D01*
X52118779Y-55554795D01*
X52250825Y-55848190D01*
X52406043Y-56104951D01*
X52417273Y-56123528D01*
X52417279Y-56123537D01*
X52615699Y-56376801D01*
X52843198Y-56604300D01*
X53089975Y-56797638D01*
X53096470Y-56802726D01*
X53371810Y-56969175D01*
X53665205Y-57101221D01*
X53665215Y-57101224D01*
X53665223Y-57101227D01*
X53869986Y-57165033D01*
X53972377Y-57196940D01*
X54288847Y-57254935D01*
X54610000Y-57274361D01*
X54931153Y-57254935D01*
X55247623Y-57196940D01*
X55554795Y-57101221D01*
X55848190Y-56969175D01*
X56123530Y-56802726D01*
X56376798Y-56604303D01*
X56604303Y-56376798D01*
X56802726Y-56123530D01*
X56969175Y-55848190D01*
X57101221Y-55554795D01*
X57196940Y-55247623D01*
X57254935Y-54931153D01*
X57274361Y-54610000D01*
X57254935Y-54288847D01*
X57196940Y-53972377D01*
X57157099Y-53844524D01*
X57101227Y-53665223D01*
X57101223Y-53665212D01*
X57101221Y-53665205D01*
X56969175Y-53371810D01*
X56802726Y-53096470D01*
X56724433Y-52996537D01*
X56604300Y-52843198D01*
X56376801Y-52615699D01*
X56123537Y-52417279D01*
X56123532Y-52417276D01*
X56123530Y-52417274D01*
X55848190Y-52250825D01*
X55554795Y-52118779D01*
X55554790Y-52118777D01*
X55554787Y-52118776D01*
X55554776Y-52118772D01*
X55247631Y-52023062D01*
X55247627Y-52023061D01*
X55247623Y-52023060D01*
X54931153Y-51965065D01*
X54931152Y-51965064D01*
X54931147Y-51965064D01*
X54637847Y-51947323D01*
X54610000Y-51945639D01*
X54609999Y-51945639D01*
X54288852Y-51965064D01*
X54288846Y-51965065D01*
X54288847Y-51965065D01*
X53972377Y-52023060D01*
X53972374Y-52023060D01*
X53972368Y-52023062D01*
X53665223Y-52118772D01*
X53665212Y-52118776D01*
X53665206Y-52118778D01*
X53665205Y-52118779D01*
X53634058Y-52132797D01*
X53371814Y-52250823D01*
X53371812Y-52250824D01*
X53096471Y-52417273D01*
X53096462Y-52417279D01*
X52843198Y-52615699D01*
X52615699Y-52843198D01*
X52417279Y-53096462D01*
X52417273Y-53096471D01*
X52383604Y-53152167D01*
X52251412Y-53370840D01*
X52250824Y-53371812D01*
X52250823Y-53371814D01*
X52206240Y-53470873D01*
X52145898Y-53604950D01*
X52118776Y-53665212D01*
X52118772Y-53665223D01*
X52023062Y-53972368D01*
X51965064Y-54288852D01*
X51945639Y-54609999D01*
X50800500Y-54609999D01*
X50800500Y-54485570D01*
X50800709Y-54480484D01*
X50813082Y-54330684D01*
X50832413Y-54105624D01*
X50833189Y-54099826D01*
X50865824Y-53921076D01*
X50903528Y-53725456D01*
X50904779Y-53720220D01*
X50956281Y-53540275D01*
X51012756Y-53354505D01*
X51014398Y-53349801D01*
X51084159Y-53173575D01*
X51158976Y-52996537D01*
X51160909Y-52992404D01*
X51248217Y-52822679D01*
X51340675Y-52655255D01*
X51342835Y-52651643D01*
X51446798Y-52490613D01*
X51556040Y-52334073D01*
X51558256Y-52331101D01*
X51677864Y-52180579D01*
X51802788Y-52036411D01*
X51805046Y-52033947D01*
X51938038Y-51896694D01*
X51940144Y-51894625D01*
X52078459Y-51765234D01*
X52080624Y-51763304D01*
X52226430Y-51639747D01*
X52229099Y-51637611D01*
X52278532Y-51600237D01*
X52381229Y-51522592D01*
X52539377Y-51413276D01*
X52542528Y-51411240D01*
X52705966Y-51312682D01*
X52873591Y-51219658D01*
X52877279Y-51217774D01*
X53050528Y-51136651D01*
X53225656Y-51060855D01*
X53229947Y-51059187D01*
X53411580Y-50996323D01*
X53592029Y-50938462D01*
X53596832Y-50937136D01*
X53785979Y-50893151D01*
X53968909Y-50853756D01*
X53974274Y-50852848D01*
X54171991Y-50828252D01*
X54352461Y-50807600D01*
X54358300Y-50807210D01*
X54584220Y-50802908D01*
X54735516Y-50800523D01*
X54738463Y-50800547D01*
X54772054Y-50801621D01*
X54785467Y-50800500D01*
X97788471Y-50800500D01*
X97791513Y-50800575D01*
G37*
%TD.AperFunction*%
%TD*%
%TA.AperFunction,Conductor*%
%TO.N,GND*%
G36*
X59411014Y-62851643D02*
G01*
X59576356Y-63016985D01*
X59579783Y-63025258D01*
X59578747Y-63030071D01*
X59302206Y-63642760D01*
X59295679Y-63648891D01*
X59287090Y-63648767D01*
X58931804Y-63502563D01*
X58925457Y-63496245D01*
X58925436Y-63496195D01*
X58779232Y-63140909D01*
X58779253Y-63131955D01*
X58785237Y-63125794D01*
X59397928Y-62849251D01*
X59406878Y-62848972D01*
X59411014Y-62851643D01*
G37*
%TD.AperFunction*%
%TD*%
%TA.AperFunction,Conductor*%
%TO.N,GND*%
G36*
X60081242Y-61478519D02*
G01*
X60084073Y-61482049D01*
X60434772Y-62153813D01*
X60435563Y-62162733D01*
X60432710Y-62167464D01*
X59931830Y-62672870D01*
X59923573Y-62676334D01*
X59915284Y-62672944D01*
X59748760Y-62506420D01*
X59745913Y-62501784D01*
X59596347Y-62044156D01*
X59597034Y-62035228D01*
X59598520Y-62032984D01*
X60064757Y-61479922D01*
X60072708Y-61475806D01*
X60081242Y-61478519D01*
G37*
%TD.AperFunction*%
%TD*%
%TA.AperFunction,Conductor*%
%TO.N,Net-(C3-Pad2)*%
G36*
X59426496Y-79553219D02*
G01*
X59432660Y-79559199D01*
X59850574Y-80483363D01*
X59862459Y-80509644D01*
X59862745Y-80518594D01*
X59860071Y-80522738D01*
X59693888Y-80688921D01*
X59685615Y-80692348D01*
X59682394Y-80691896D01*
X58954147Y-80483363D01*
X58947137Y-80477791D01*
X58945673Y-80472418D01*
X58927499Y-79763340D01*
X58930713Y-79754983D01*
X58934732Y-79752226D01*
X59417541Y-79553204D01*
X59426496Y-79553219D01*
G37*
%TD.AperFunction*%
%TD*%
%TA.AperFunction,Conductor*%
%TO.N,Net-(C3-Pad2)*%
G36*
X62490015Y-79675049D02*
G01*
X62985732Y-79879417D01*
X62992075Y-79885739D01*
X62992966Y-79889832D01*
X63016478Y-80574117D01*
X63013337Y-80582503D01*
X63008308Y-80585676D01*
X62222639Y-80833772D01*
X62213718Y-80832995D01*
X62210843Y-80830888D01*
X62044776Y-80664821D01*
X62041349Y-80656548D01*
X62042361Y-80651790D01*
X62474870Y-79681104D01*
X62481367Y-79674943D01*
X62490015Y-79675049D01*
G37*
%TD.AperFunction*%
%TD*%
%TA.AperFunction,Conductor*%
%TO.N,GND*%
G36*
X57155970Y-80637754D02*
G01*
X57675130Y-80989227D01*
X57680060Y-80996703D01*
X57678260Y-81005475D01*
X57676859Y-81007175D01*
X57407441Y-81277546D01*
X57399174Y-81280987D01*
X57399124Y-81280987D01*
X57013983Y-81280024D01*
X57005718Y-81276576D01*
X57002453Y-81270137D01*
X56905118Y-80649254D01*
X56907222Y-80640551D01*
X56914865Y-80635884D01*
X56916677Y-80635743D01*
X57149411Y-80635743D01*
X57155970Y-80637754D01*
G37*
%TD.AperFunction*%
%TD*%
%TA.AperFunction,Conductor*%
%TO.N,GND*%
G36*
X57034837Y-79764554D02*
G01*
X57036386Y-79766079D01*
X57503488Y-80320168D01*
X57506201Y-80328702D01*
X57504477Y-80333890D01*
X57171545Y-80868917D01*
X57169884Y-80871009D01*
X57004496Y-81036397D01*
X56996223Y-81039824D01*
X56987950Y-81036397D01*
X56986280Y-81034290D01*
X56557796Y-80343295D01*
X56556348Y-80334458D01*
X56558673Y-80329733D01*
X57018376Y-79766223D01*
X57026260Y-79761980D01*
X57034837Y-79764554D01*
G37*
%TD.AperFunction*%
%TD*%
%TA.AperFunction,Conductor*%
%TO.N,Net-(C1-Pad1)*%
G36*
X62101611Y-60245720D02*
G01*
X62103616Y-60248402D01*
X62452447Y-60889608D01*
X62453390Y-60898513D01*
X62451122Y-60902731D01*
X61984246Y-61457651D01*
X61976297Y-61461776D01*
X61967761Y-61459072D01*
X61966340Y-61457651D01*
X61499463Y-60902731D01*
X61496759Y-60894195D01*
X61498137Y-60889611D01*
X61846969Y-60248402D01*
X61853934Y-60242772D01*
X61857248Y-60242293D01*
X62093338Y-60242293D01*
X62101611Y-60245720D01*
G37*
%TD.AperFunction*%
%TD*%
%TA.AperFunction,Conductor*%
%TO.N,Net-(C1-Pad1)*%
G36*
X66541169Y-55277033D02*
G01*
X66549317Y-55280742D01*
X66551582Y-55284267D01*
X66755948Y-55779983D01*
X66755933Y-55788937D01*
X66749893Y-55795129D01*
X65779213Y-56227637D01*
X65770261Y-56227874D01*
X65766178Y-56225223D01*
X65600111Y-56059156D01*
X65596684Y-56050883D01*
X65597225Y-56047366D01*
X65845323Y-55261688D01*
X65851081Y-55254833D01*
X65856880Y-55253520D01*
X66541169Y-55277033D01*
G37*
%TD.AperFunction*%
%TD*%
%TA.AperFunction,Conductor*%
%TO.N,GND*%
G36*
X79635291Y-72217120D02*
G01*
X79637888Y-72219078D01*
X79804071Y-72385261D01*
X79807498Y-72393534D01*
X79806459Y-72398355D01*
X79376661Y-73348798D01*
X79370129Y-73354924D01*
X79361541Y-73354794D01*
X78878736Y-73155775D01*
X78872393Y-73149454D01*
X78871499Y-73144658D01*
X78889673Y-72435581D01*
X78893310Y-72427402D01*
X78898145Y-72424636D01*
X79626395Y-72216103D01*
X79635291Y-72217120D01*
G37*
%TD.AperFunction*%
%TD*%
%TA.AperFunction,Conductor*%
%TO.N,GND*%
G36*
X82173109Y-69344712D02*
G01*
X82389759Y-69562448D01*
X82444648Y-69617612D01*
X82448054Y-69625893D01*
X82445660Y-69632956D01*
X82062562Y-70135680D01*
X82054822Y-70140183D01*
X82046164Y-70137894D01*
X82044983Y-70136861D01*
X81880295Y-69972173D01*
X81877040Y-69965896D01*
X81819385Y-69632956D01*
X81771367Y-69355669D01*
X81773332Y-69346935D01*
X81780899Y-69342147D01*
X81782867Y-69341975D01*
X82164832Y-69341301D01*
X82173109Y-69344712D01*
G37*
%TD.AperFunction*%
%TD*%
%TA.AperFunction,Conductor*%
%TO.N,GND*%
G36*
X81809909Y-69193232D02*
G01*
X81952763Y-69252018D01*
X82165195Y-69339436D01*
X82171542Y-69345754D01*
X82171563Y-69345804D01*
X82317767Y-69701090D01*
X82317746Y-69710044D01*
X82311760Y-69716206D01*
X81699071Y-69992747D01*
X81690121Y-69993027D01*
X81685985Y-69990356D01*
X81520643Y-69825014D01*
X81517216Y-69816741D01*
X81518252Y-69811928D01*
X81564238Y-69710044D01*
X81794794Y-69199238D01*
X81801320Y-69193108D01*
X81809909Y-69193232D01*
G37*
%TD.AperFunction*%
%TD*%
%TA.AperFunction,Conductor*%
%TO.N,GND*%
G36*
X81504963Y-69834008D02*
G01*
X81508676Y-69836510D01*
X81674563Y-70002397D01*
X81677990Y-70010670D01*
X81677188Y-70014927D01*
X81276183Y-71041577D01*
X81269981Y-71048036D01*
X81261219Y-71048291D01*
X80778562Y-70869401D01*
X80771995Y-70863312D01*
X80770941Y-70858965D01*
X80738674Y-70149263D01*
X80741722Y-70140845D01*
X80745963Y-70137893D01*
X81496011Y-69833940D01*
X81504963Y-69834008D01*
G37*
%TD.AperFunction*%
%TD*%
%TA.AperFunction,Conductor*%
%TO.N,GND*%
G36*
X81699071Y-68691252D02*
G01*
X82311760Y-68967793D01*
X82317891Y-68974320D01*
X82317767Y-68982909D01*
X82171563Y-69338195D01*
X82165245Y-69344542D01*
X82165195Y-69344563D01*
X81809909Y-69490767D01*
X81800955Y-69490746D01*
X81794793Y-69484760D01*
X81730676Y-69342707D01*
X81568279Y-68982909D01*
X81518252Y-68872071D01*
X81517972Y-68863121D01*
X81520641Y-68858987D01*
X81685986Y-68693642D01*
X81694258Y-68690216D01*
X81699071Y-68691252D01*
G37*
%TD.AperFunction*%
%TD*%
%TA.AperFunction,Conductor*%
%TO.N,GND*%
G36*
X81381297Y-67780624D02*
G01*
X81387350Y-67786849D01*
X81803382Y-68795367D01*
X81803369Y-68804322D01*
X81800839Y-68808102D01*
X81634900Y-68974041D01*
X81626627Y-68977468D01*
X81622536Y-68976729D01*
X80872782Y-68696911D01*
X80866229Y-68690808D01*
X80865176Y-68685674D01*
X80882106Y-67976126D01*
X80885729Y-67967940D01*
X80889608Y-67965487D01*
X81372346Y-67780387D01*
X81381297Y-67780624D01*
G37*
%TD.AperFunction*%
%TD*%
%TA.AperFunction,Conductor*%
%TO.N,Net-(U3-LIN)*%
G36*
X81277896Y-65260425D02*
G01*
X81709053Y-65955682D01*
X81710501Y-65964519D01*
X81707383Y-65970121D01*
X81539528Y-66137976D01*
X81533907Y-66141098D01*
X81126733Y-66235860D01*
X81117898Y-66234398D01*
X81113575Y-66229614D01*
X81070189Y-66141098D01*
X80776166Y-65541236D01*
X80775603Y-65532301D01*
X80780956Y-65525882D01*
X81262239Y-65256382D01*
X81271129Y-65255330D01*
X81277896Y-65260425D01*
G37*
%TD.AperFunction*%
%TD*%
%TA.AperFunction,Conductor*%
%TO.N,Net-(U2-OUT)*%
G36*
X78117603Y-64596102D02*
G01*
X78845852Y-64804636D01*
X78852862Y-64810208D01*
X78854327Y-64815584D01*
X78872500Y-65524658D01*
X78869286Y-65533016D01*
X78865263Y-65535775D01*
X78382458Y-65734794D01*
X78373503Y-65734779D01*
X78367339Y-65728799D01*
X77937539Y-64778353D01*
X77937254Y-64769405D01*
X77939926Y-64765263D01*
X78106112Y-64599077D01*
X78114384Y-64595651D01*
X78117603Y-64596102D01*
G37*
%TD.AperFunction*%
%TD*%
%TA.AperFunction,Conductor*%
%TO.N,Net-(U2-OUT)*%
G36*
X77728496Y-61595872D02*
G01*
X78175135Y-61781843D01*
X78181456Y-61788187D01*
X78181439Y-61797141D01*
X78181438Y-61797144D01*
X77852000Y-62587800D01*
X77845655Y-62594119D01*
X77841200Y-62595000D01*
X77606800Y-62595000D01*
X77598527Y-62591573D01*
X77596000Y-62587800D01*
X77266561Y-61797144D01*
X77266542Y-61788189D01*
X77272859Y-61781845D01*
X77719504Y-61595871D01*
X77728455Y-61595855D01*
X77728496Y-61595872D01*
G37*
%TD.AperFunction*%
%TD*%
%TA.AperFunction,Conductor*%
%TO.N,Net-(C1-Pad1)*%
G36*
X60285133Y-55887069D02*
G01*
X60285978Y-55887914D01*
X60765170Y-56418769D01*
X60768170Y-56427207D01*
X60766726Y-56432268D01*
X60405631Y-57085752D01*
X60398630Y-57091335D01*
X60395390Y-57091793D01*
X60159196Y-57091793D01*
X60150923Y-57088366D01*
X60148955Y-57085752D01*
X59787859Y-56432268D01*
X59786858Y-56423369D01*
X59789415Y-56418769D01*
X60268608Y-55887914D01*
X60276695Y-55884069D01*
X60285133Y-55887069D01*
G37*
%TD.AperFunction*%
%TD*%
%TA.AperFunction,Conductor*%
%TO.N,Net-(C1-Pad1)*%
G36*
X67100975Y-54788566D02*
G01*
X67754460Y-55149662D01*
X67760042Y-55156662D01*
X67760500Y-55159902D01*
X67760500Y-55396097D01*
X67757073Y-55404370D01*
X67754459Y-55406338D01*
X67100975Y-55767433D01*
X67092076Y-55768434D01*
X67087476Y-55765877D01*
X66556621Y-55286685D01*
X66552776Y-55278598D01*
X66555776Y-55270160D01*
X66556621Y-55269315D01*
X67087476Y-54790122D01*
X67095914Y-54787122D01*
X67100975Y-54788566D01*
G37*
%TD.AperFunction*%
%TD*%
%TA.AperFunction,Conductor*%
%TO.N,Net-(C1-Pad1)*%
G36*
X71215166Y-54836799D02*
G01*
X71746335Y-55316276D01*
X71750180Y-55324363D01*
X71747180Y-55332801D01*
X71746296Y-55333681D01*
X71213072Y-55810751D01*
X71204622Y-55813713D01*
X71199085Y-55811962D01*
X70548014Y-55406434D01*
X70542804Y-55399151D01*
X70542500Y-55396503D01*
X70542500Y-55160348D01*
X70545927Y-55152075D01*
X70549119Y-55149809D01*
X71202245Y-54834945D01*
X71211186Y-54834439D01*
X71215166Y-54836799D01*
G37*
%TD.AperFunction*%
%TD*%
%TA.AperFunction,Conductor*%
%TO.N,Net-(C1-Pad1)*%
G36*
X61220896Y-60531395D02*
G01*
X61949145Y-60739929D01*
X61956155Y-60745501D01*
X61957620Y-60750877D01*
X61975793Y-61459951D01*
X61972579Y-61468309D01*
X61968556Y-61471068D01*
X61485751Y-61670087D01*
X61476796Y-61670072D01*
X61470632Y-61664092D01*
X61040832Y-60713646D01*
X61040547Y-60704698D01*
X61043219Y-60700556D01*
X61209405Y-60534370D01*
X61217677Y-60530944D01*
X61220896Y-60531395D01*
G37*
%TD.AperFunction*%
%TD*%
%TA.AperFunction,Conductor*%
%TO.N,GND*%
G36*
X86439370Y-60385927D02*
G01*
X86441338Y-60388541D01*
X86802433Y-61042024D01*
X86803434Y-61050923D01*
X86800877Y-61055523D01*
X86321685Y-61586378D01*
X86313598Y-61590223D01*
X86305160Y-61587223D01*
X86304315Y-61586378D01*
X85825122Y-61055523D01*
X85822122Y-61047085D01*
X85823565Y-61042025D01*
X86184661Y-60388541D01*
X86191663Y-60382958D01*
X86194903Y-60382500D01*
X86431097Y-60382500D01*
X86439370Y-60385927D01*
G37*
%TD.AperFunction*%
%TD*%
%TA.AperFunction,Conductor*%
%TO.N,GND*%
G36*
X70462049Y-64664295D02*
G01*
X70468375Y-64670633D01*
X70468366Y-64679588D01*
X70468065Y-64680254D01*
X70202152Y-65222178D01*
X70199921Y-65225297D01*
X70037109Y-65388109D01*
X70028836Y-65391536D01*
X70020563Y-65388109D01*
X70017961Y-65384150D01*
X69738684Y-64679759D01*
X69738821Y-64670805D01*
X69745057Y-64664649D01*
X70098800Y-64517165D01*
X70107752Y-64517145D01*
X70462049Y-64664295D01*
G37*
%TD.AperFunction*%
%TD*%
%TA.AperFunction,Conductor*%
%TO.N,GND*%
G36*
X90812532Y-75192220D02*
G01*
X90813953Y-75193641D01*
X91280829Y-75748561D01*
X91283533Y-75757097D01*
X91282154Y-75761684D01*
X90933323Y-76402891D01*
X90926359Y-76408521D01*
X90923045Y-76409000D01*
X90686955Y-76409000D01*
X90678682Y-76405573D01*
X90676677Y-76402891D01*
X90327845Y-75761684D01*
X90326902Y-75752779D01*
X90329168Y-75748562D01*
X90796047Y-75193640D01*
X90803996Y-75189516D01*
X90812532Y-75192220D01*
G37*
%TD.AperFunction*%
%TD*%
%TA.AperFunction,Conductor*%
%TO.N,GND*%
G36*
X80903318Y-60246427D02*
G01*
X80905323Y-60249109D01*
X81254154Y-60890315D01*
X81255097Y-60899220D01*
X81252829Y-60903438D01*
X80785953Y-61458358D01*
X80778004Y-61462483D01*
X80769468Y-61459779D01*
X80768047Y-61458358D01*
X80301170Y-60903438D01*
X80298466Y-60894902D01*
X80299844Y-60890318D01*
X80648676Y-60249109D01*
X80655641Y-60243479D01*
X80658955Y-60243000D01*
X80895045Y-60243000D01*
X80903318Y-60246427D01*
G37*
%TD.AperFunction*%
%TD*%
%TA.AperFunction,Conductor*%
%TO.N,GND*%
G36*
X63561688Y-72863427D02*
G01*
X63564359Y-72867563D01*
X63802051Y-73496344D01*
X63801771Y-73505294D01*
X63795609Y-73511280D01*
X63441001Y-73659123D01*
X63432048Y-73659143D01*
X63271055Y-73592023D01*
X63077390Y-73511280D01*
X63071072Y-73504933D01*
X63070948Y-73496345D01*
X63308641Y-72867562D01*
X63314772Y-72861036D01*
X63319585Y-72860000D01*
X63553415Y-72860000D01*
X63561688Y-72863427D01*
G37*
%TD.AperFunction*%
%TD*%
%TA.AperFunction,Conductor*%
%TO.N,GND*%
G36*
X98052065Y-74887497D02*
G01*
X98052476Y-74887908D01*
X99036640Y-75922265D01*
X99039860Y-75930621D01*
X99036969Y-75938035D01*
X98172496Y-76926005D01*
X98164469Y-76929974D01*
X98163691Y-76930000D01*
X97924309Y-76930000D01*
X97916036Y-76926573D01*
X97915504Y-76926005D01*
X97051029Y-75938033D01*
X97048161Y-75929552D01*
X97051358Y-75922266D01*
X98035524Y-74887907D01*
X98043709Y-74884277D01*
X98052065Y-74887497D01*
G37*
%TD.AperFunction*%
%TD*%
%TA.AperFunction,Conductor*%
%TO.N,GND*%
G36*
X91036071Y-76819252D02*
G01*
X91648760Y-77095793D01*
X91654891Y-77102320D01*
X91654767Y-77110909D01*
X91508563Y-77466195D01*
X91502245Y-77472542D01*
X91502195Y-77472563D01*
X91146909Y-77618767D01*
X91137955Y-77618746D01*
X91131793Y-77612760D01*
X91067676Y-77470707D01*
X90905279Y-77110909D01*
X90855252Y-77000071D01*
X90854972Y-76991121D01*
X90857641Y-76986987D01*
X91022986Y-76821642D01*
X91031258Y-76818216D01*
X91036071Y-76819252D01*
G37*
%TD.AperFunction*%
%TD*%
%TA.AperFunction,Conductor*%
%TO.N,GND*%
G36*
X70927176Y-65945853D02*
G01*
X71443801Y-66188058D01*
X71449838Y-66194673D01*
X71449998Y-66202157D01*
X71383598Y-66413612D01*
X71377850Y-66420479D01*
X71372572Y-66421806D01*
X70998645Y-66426170D01*
X70990332Y-66422840D01*
X70989435Y-66421858D01*
X70989312Y-66421707D01*
X70810557Y-66202157D01*
X70749637Y-66127334D01*
X70747071Y-66118755D01*
X70750436Y-66111675D01*
X70913938Y-65948173D01*
X70922210Y-65944747D01*
X70927176Y-65945853D01*
G37*
%TD.AperFunction*%
%TD*%
%TA.AperFunction,Conductor*%
%TO.N,GND*%
G36*
X94350167Y-65683079D02*
G01*
X94821576Y-65918490D01*
X95124039Y-66069533D01*
X95129910Y-66076295D01*
X95129279Y-66085227D01*
X95124039Y-66090467D01*
X94350171Y-66476918D01*
X94341239Y-66477549D01*
X94338316Y-66476092D01*
X93949072Y-66208487D01*
X93944196Y-66200976D01*
X93944000Y-66198846D01*
X93944000Y-65961154D01*
X93947427Y-65952881D01*
X93949072Y-65951513D01*
X93949072Y-65951512D01*
X94338317Y-65683906D01*
X94347074Y-65682044D01*
X94350167Y-65683079D01*
G37*
%TD.AperFunction*%
%TD*%
%TA.AperFunction,Conductor*%
%TO.N,GND*%
G36*
X85966044Y-58398253D02*
G01*
X85972206Y-58404239D01*
X86248747Y-59016928D01*
X86249027Y-59025878D01*
X86246356Y-59030014D01*
X86081014Y-59195356D01*
X86072741Y-59198783D01*
X86067928Y-59197747D01*
X85455239Y-58921206D01*
X85449108Y-58914679D01*
X85449232Y-58906090D01*
X85595437Y-58550802D01*
X85601753Y-58544457D01*
X85957090Y-58398232D01*
X85966044Y-58398253D01*
G37*
%TD.AperFunction*%
%TD*%
%TA.AperFunction,Conductor*%
%TO.N,GND*%
G36*
X93205044Y-65129253D02*
G01*
X93211206Y-65135239D01*
X93487747Y-65747928D01*
X93488027Y-65756878D01*
X93485356Y-65761014D01*
X93320014Y-65926356D01*
X93311741Y-65929783D01*
X93306928Y-65928747D01*
X92694239Y-65652206D01*
X92688108Y-65645679D01*
X92688232Y-65637090D01*
X92834437Y-65281802D01*
X92840753Y-65275457D01*
X93196090Y-65129232D01*
X93205044Y-65129253D01*
G37*
%TD.AperFunction*%
%TD*%
%TA.AperFunction,Conductor*%
%TO.N,GND*%
G36*
X98171964Y-60233427D02*
G01*
X98172490Y-60233988D01*
X99036969Y-61221964D01*
X99039838Y-61230447D01*
X99036640Y-61237734D01*
X98052476Y-62272091D01*
X98044291Y-62275722D01*
X98035935Y-62272502D01*
X98035524Y-62272091D01*
X97051359Y-61237734D01*
X97048139Y-61229378D01*
X97051028Y-61221967D01*
X97915504Y-60233994D01*
X97923531Y-60230026D01*
X97924309Y-60230000D01*
X98163691Y-60230000D01*
X98171964Y-60233427D01*
G37*
%TD.AperFunction*%
%TD*%
%TA.AperFunction,Conductor*%
%TO.N,GND*%
G36*
X97777044Y-58525253D02*
G01*
X97783206Y-58531239D01*
X98059747Y-59143928D01*
X98060027Y-59152878D01*
X98057356Y-59157014D01*
X97892014Y-59322356D01*
X97883741Y-59325783D01*
X97878928Y-59324747D01*
X97266239Y-59048206D01*
X97260108Y-59041679D01*
X97260232Y-59033090D01*
X97406437Y-58677802D01*
X97412753Y-58671457D01*
X97768090Y-58525232D01*
X97777044Y-58525253D01*
G37*
%TD.AperFunction*%
%TD*%
%TA.AperFunction,Conductor*%
%TO.N,GND*%
G36*
X82181879Y-68943341D02*
G01*
X82898044Y-69017907D01*
X82905917Y-69022172D01*
X82908532Y-69029544D01*
X82908532Y-69263283D01*
X82905105Y-69271556D01*
X82904023Y-69272512D01*
X82459983Y-69618500D01*
X82451351Y-69620882D01*
X82444533Y-69617559D01*
X82171453Y-69345441D01*
X82168012Y-69337174D01*
X82168012Y-69337124D01*
X82168967Y-68954947D01*
X82172415Y-68946684D01*
X82180696Y-68943278D01*
X82181879Y-68943341D01*
G37*
%TD.AperFunction*%
%TD*%
%TA.AperFunction,Conductor*%
%TO.N,GND*%
G36*
X64318669Y-71674033D02*
G01*
X64326817Y-71677742D01*
X64329082Y-71681267D01*
X64533448Y-72176983D01*
X64533433Y-72185937D01*
X64527393Y-72192129D01*
X63556713Y-72624637D01*
X63547761Y-72624874D01*
X63543678Y-72622223D01*
X63377611Y-72456156D01*
X63374184Y-72447883D01*
X63374725Y-72444366D01*
X63622824Y-71658688D01*
X63628582Y-71651833D01*
X63634381Y-71650520D01*
X64318669Y-71674033D01*
G37*
%TD.AperFunction*%
%TD*%
%TA.AperFunction,Conductor*%
%TO.N,GND*%
G36*
X97638014Y-77837643D02*
G01*
X97803356Y-78002985D01*
X97806783Y-78011258D01*
X97805747Y-78016071D01*
X97529206Y-78628760D01*
X97522679Y-78634891D01*
X97514090Y-78634767D01*
X97158804Y-78488563D01*
X97152457Y-78482245D01*
X97152436Y-78482195D01*
X97006232Y-78126909D01*
X97006253Y-78117955D01*
X97012237Y-78111794D01*
X97624928Y-77835251D01*
X97633878Y-77834972D01*
X97638014Y-77837643D01*
G37*
%TD.AperFunction*%
%TD*%
%TA.AperFunction,Conductor*%
%TO.N,GND*%
G36*
X86464071Y-76819252D02*
G01*
X87076760Y-77095793D01*
X87082891Y-77102320D01*
X87082767Y-77110909D01*
X86936563Y-77466195D01*
X86930245Y-77472542D01*
X86930195Y-77472563D01*
X86574909Y-77618767D01*
X86565955Y-77618746D01*
X86559793Y-77612760D01*
X86495676Y-77470707D01*
X86333279Y-77110909D01*
X86283252Y-77000071D01*
X86282972Y-76991121D01*
X86285641Y-76986987D01*
X86450986Y-76821642D01*
X86459258Y-76818216D01*
X86464071Y-76819252D01*
G37*
%TD.AperFunction*%
%TD*%
%TA.AperFunction,Conductor*%
%TO.N,GND*%
G36*
X80505044Y-58398253D02*
G01*
X80511206Y-58404239D01*
X80787747Y-59016928D01*
X80788027Y-59025878D01*
X80785356Y-59030014D01*
X80620014Y-59195356D01*
X80611741Y-59198783D01*
X80606928Y-59197747D01*
X79994239Y-58921206D01*
X79988108Y-58914679D01*
X79988232Y-58906090D01*
X80134437Y-58550802D01*
X80140753Y-58544457D01*
X80496090Y-58398232D01*
X80505044Y-58398253D01*
G37*
%TD.AperFunction*%
%TD*%
%TA.AperFunction,Conductor*%
%TO.N,GND*%
G36*
X86301532Y-75192220D02*
G01*
X86302953Y-75193641D01*
X86769829Y-75748561D01*
X86772533Y-75757097D01*
X86771154Y-75761684D01*
X86422323Y-76402891D01*
X86415359Y-76408521D01*
X86412045Y-76409000D01*
X86175955Y-76409000D01*
X86167682Y-76405573D01*
X86165677Y-76402891D01*
X85816845Y-75761684D01*
X85815902Y-75752779D01*
X85818168Y-75748562D01*
X86285047Y-75193640D01*
X86292996Y-75189516D01*
X86301532Y-75192220D01*
G37*
%TD.AperFunction*%
%TD*%
%TA.AperFunction,Conductor*%
%TO.N,Net-(U2-+IN)*%
G36*
X64333739Y-67312173D02*
G01*
X64818301Y-67792885D01*
X64821761Y-67801144D01*
X64819454Y-67808167D01*
X64454008Y-68300276D01*
X64446325Y-68304874D01*
X64444615Y-68305000D01*
X64206385Y-68305000D01*
X64198112Y-68301573D01*
X64196992Y-68300276D01*
X63831545Y-67808167D01*
X63829364Y-67799481D01*
X63832696Y-67792887D01*
X64317260Y-67312173D01*
X64325547Y-67308780D01*
X64333739Y-67312173D01*
G37*
%TD.AperFunction*%
%TD*%
%TA.AperFunction,Conductor*%
%TO.N,Net-(U2-+IN)*%
G36*
X64452867Y-68828427D02*
G01*
X64454007Y-68829751D01*
X64831950Y-69341736D01*
X64834106Y-69350428D01*
X64830716Y-69357051D01*
X64333678Y-69843003D01*
X64325367Y-69846336D01*
X64317320Y-69843003D01*
X64070818Y-69601999D01*
X63820282Y-69357051D01*
X63816762Y-69348817D01*
X63819047Y-69341737D01*
X64196992Y-68829751D01*
X64204663Y-68825130D01*
X64206406Y-68825000D01*
X64444594Y-68825000D01*
X64452867Y-68828427D01*
G37*
%TD.AperFunction*%
%TD*%
%TA.AperFunction,Conductor*%
%TO.N,Net-(U2-+IN)*%
G36*
X70998521Y-67185317D02*
G01*
X70999233Y-67185663D01*
X71361699Y-67361470D01*
X71367647Y-67368164D01*
X71367120Y-67377103D01*
X71362528Y-67382080D01*
X70996652Y-67597451D01*
X70988818Y-67598913D01*
X70774201Y-67563612D01*
X70766594Y-67558888D01*
X70764400Y-67552067D01*
X70764400Y-67318822D01*
X70767827Y-67310549D01*
X70770333Y-67308642D01*
X70987658Y-67185662D01*
X70996544Y-67184571D01*
X70998521Y-67185317D01*
G37*
%TD.AperFunction*%
%TD*%
%TA.AperFunction,Conductor*%
%TO.N,Net-(U2-+IN)*%
G36*
X71763178Y-57156995D02*
G01*
X72019963Y-57408053D01*
X72260216Y-57642947D01*
X72263736Y-57651181D01*
X72261450Y-57658262D01*
X71883507Y-58170249D01*
X71875837Y-58174869D01*
X71874094Y-58175000D01*
X71635906Y-58175000D01*
X71627633Y-58171573D01*
X71626493Y-58170249D01*
X71248549Y-57658262D01*
X71246393Y-57649570D01*
X71249783Y-57642947D01*
X71746821Y-57156995D01*
X71755132Y-57153663D01*
X71763178Y-57156995D01*
G37*
%TD.AperFunction*%
%TD*%
%TA.AperFunction,Conductor*%
%TO.N,Net-(U2-+IN)*%
G36*
X64983844Y-66883193D02*
G01*
X65215720Y-67058661D01*
X65545860Y-67308489D01*
X65550389Y-67316213D01*
X65550500Y-67317818D01*
X65550500Y-67553638D01*
X65547073Y-67561911D01*
X65542589Y-67564707D01*
X64902430Y-67783827D01*
X64893493Y-67783265D01*
X64891109Y-67781711D01*
X64620026Y-67553638D01*
X64336542Y-67315131D01*
X64332418Y-67307184D01*
X64335122Y-67298648D01*
X64337670Y-67296389D01*
X64970383Y-66882729D01*
X64979181Y-66881071D01*
X64983844Y-66883193D01*
G37*
%TD.AperFunction*%
%TD*%
%TA.AperFunction,Conductor*%
%TO.N,Net-(U2-+IN)*%
G36*
X65092238Y-66372928D02*
G01*
X65258421Y-66539111D01*
X65261848Y-66547384D01*
X65261396Y-66550605D01*
X65052863Y-67278851D01*
X65047291Y-67285861D01*
X65041915Y-67287326D01*
X64332841Y-67305500D01*
X64324483Y-67302286D01*
X64321724Y-67298263D01*
X64122704Y-66815458D01*
X64122719Y-66806503D01*
X64128698Y-66800339D01*
X65079146Y-66370539D01*
X65088094Y-66370254D01*
X65092238Y-66372928D01*
G37*
%TD.AperFunction*%
%TD*%
%TA.AperFunction,Conductor*%
%TO.N,Net-(U2--IN)*%
G36*
X74288400Y-67433959D02*
G01*
X74295996Y-67438701D01*
X74297397Y-67441306D01*
X74383559Y-67665763D01*
X74383325Y-67674715D01*
X74380909Y-67678229D01*
X74216114Y-67843024D01*
X74207841Y-67846451D01*
X74201601Y-67844648D01*
X73821273Y-67604842D01*
X73816102Y-67597531D01*
X73816686Y-67590510D01*
X73903402Y-67378932D01*
X73909709Y-67372578D01*
X73916152Y-67371831D01*
X74288400Y-67433959D01*
G37*
%TD.AperFunction*%
%TD*%
%TA.AperFunction,Conductor*%
%TO.N,Net-(U2--IN)*%
G36*
X66924496Y-83744219D02*
G01*
X66930660Y-83750199D01*
X67348574Y-84674363D01*
X67360459Y-84700644D01*
X67360745Y-84709594D01*
X67358071Y-84713738D01*
X67191888Y-84879921D01*
X67183615Y-84883348D01*
X67180394Y-84882896D01*
X66452147Y-84674363D01*
X66445137Y-84668791D01*
X66443673Y-84663418D01*
X66425499Y-83954340D01*
X66428713Y-83945983D01*
X66432732Y-83943226D01*
X66915541Y-83744204D01*
X66924496Y-83744219D01*
G37*
%TD.AperFunction*%
%TD*%
%TA.AperFunction,Conductor*%
%TO.N,Net-(U2--IN)*%
G36*
X61945281Y-78933004D02*
G01*
X61948156Y-78935111D01*
X62114223Y-79101178D01*
X62117650Y-79109451D01*
X62116637Y-79114213D01*
X61684129Y-80084893D01*
X61677632Y-80091055D01*
X61668983Y-80090948D01*
X61173267Y-79886582D01*
X61166924Y-79880260D01*
X61166034Y-79876172D01*
X61142521Y-79191881D01*
X61145662Y-79183496D01*
X61150688Y-79180324D01*
X61936362Y-78932227D01*
X61945281Y-78933004D01*
G37*
%TD.AperFunction*%
%TD*%
%TA.AperFunction,Conductor*%
%TO.N,Net-(U2--IN)*%
G36*
X66982015Y-75992049D02*
G01*
X67477732Y-76196417D01*
X67484075Y-76202739D01*
X67484966Y-76206832D01*
X67508478Y-76891117D01*
X67505337Y-76899503D01*
X67500308Y-76902676D01*
X66714639Y-77150772D01*
X66705718Y-77149995D01*
X66702843Y-77147888D01*
X66536776Y-76981821D01*
X66533349Y-76973548D01*
X66534361Y-76968790D01*
X66966870Y-75998104D01*
X66973367Y-75991943D01*
X66982015Y-75992049D01*
G37*
%TD.AperFunction*%
%TD*%
%TA.AperFunction,Conductor*%
%TO.N,Net-(U2--IN)*%
G36*
X66552318Y-82725427D02*
G01*
X66554323Y-82728109D01*
X66903154Y-83369315D01*
X66904097Y-83378220D01*
X66901829Y-83382438D01*
X66434952Y-83937358D01*
X66427003Y-83941483D01*
X66418467Y-83938779D01*
X66417046Y-83937358D01*
X65950170Y-83382438D01*
X65947466Y-83373902D01*
X65948844Y-83369318D01*
X66297676Y-82728109D01*
X66304641Y-82722479D01*
X66307955Y-82722000D01*
X66544045Y-82722000D01*
X66552318Y-82725427D01*
G37*
%TD.AperFunction*%
%TD*%
%TA.AperFunction,Conductor*%
%TO.N,Net-(U2-OUT)*%
G36*
X71688814Y-64998975D02*
G01*
X71853609Y-65163770D01*
X71857036Y-65172043D01*
X71856259Y-65176236D01*
X71770097Y-65400692D01*
X71763933Y-65407188D01*
X71761100Y-65408039D01*
X71388853Y-65470168D01*
X71380129Y-65468150D01*
X71376101Y-65463065D01*
X71353548Y-65408039D01*
X71289387Y-65251490D01*
X71289420Y-65242536D01*
X71293971Y-65237159D01*
X71674301Y-64997350D01*
X71683127Y-64995837D01*
X71688814Y-64998975D01*
G37*
%TD.AperFunction*%
%TD*%
%TA.AperFunction,Conductor*%
%TO.N,Net-(U2-OUT)*%
G36*
X71688814Y-64998975D02*
G01*
X71853609Y-65163770D01*
X71857036Y-65172043D01*
X71856259Y-65176236D01*
X71770097Y-65400692D01*
X71763933Y-65407188D01*
X71761100Y-65408039D01*
X71388853Y-65470168D01*
X71380129Y-65468150D01*
X71376101Y-65463065D01*
X71353548Y-65408039D01*
X71289387Y-65251490D01*
X71289420Y-65242536D01*
X71293971Y-65237159D01*
X71674301Y-64997350D01*
X71683127Y-64995837D01*
X71688814Y-64998975D01*
G37*
%TD.AperFunction*%
%TD*%
%TA.AperFunction,Conductor*%
%TO.N,Net-(U2-OUT)*%
G36*
X68452318Y-82725427D02*
G01*
X68454323Y-82728109D01*
X68803154Y-83369315D01*
X68804097Y-83378220D01*
X68801829Y-83382438D01*
X68334953Y-83937358D01*
X68327004Y-83941483D01*
X68318468Y-83938779D01*
X68317047Y-83937358D01*
X67850170Y-83382438D01*
X67847466Y-83373902D01*
X67848844Y-83369318D01*
X68197676Y-82728109D01*
X68204641Y-82722479D01*
X68207955Y-82722000D01*
X68444045Y-82722000D01*
X68452318Y-82725427D01*
G37*
%TD.AperFunction*%
%TD*%
%TA.AperFunction,Conductor*%
%TO.N,Net-(U2-OUT)*%
G36*
X77720203Y-61592437D02*
G01*
X77726546Y-61598757D01*
X77726563Y-61598797D01*
X77910883Y-62046119D01*
X77910866Y-62055073D01*
X77904522Y-62061394D01*
X77904520Y-62061395D01*
X77112494Y-62387524D01*
X77103539Y-62387505D01*
X77099766Y-62384978D01*
X76934021Y-62219233D01*
X76930594Y-62210960D01*
X76931474Y-62206509D01*
X77257604Y-61414478D01*
X77263923Y-61408134D01*
X77272876Y-61408115D01*
X77720203Y-61592437D01*
G37*
%TD.AperFunction*%
%TD*%
%TA.AperFunction,Conductor*%
%TO.N,Net-(U2-OUT)*%
G36*
X66437281Y-75250004D02*
G01*
X66440156Y-75252111D01*
X66606223Y-75418178D01*
X66609650Y-75426451D01*
X66608637Y-75431213D01*
X66176129Y-76401893D01*
X66169632Y-76408055D01*
X66160983Y-76407948D01*
X65665267Y-76203582D01*
X65658924Y-76197260D01*
X65658034Y-76193172D01*
X65634521Y-75508881D01*
X65637662Y-75500496D01*
X65642688Y-75497324D01*
X66428362Y-75249227D01*
X66437281Y-75250004D01*
G37*
%TD.AperFunction*%
%TD*%
%TA.AperFunction,Conductor*%
%TO.N,Net-(U2-OUT)*%
G36*
X66437281Y-75250004D02*
G01*
X66440156Y-75252111D01*
X66606223Y-75418178D01*
X66609650Y-75426451D01*
X66608637Y-75431213D01*
X66176129Y-76401893D01*
X66169632Y-76408055D01*
X66160983Y-76407948D01*
X65665267Y-76203582D01*
X65658924Y-76197260D01*
X65658034Y-76193172D01*
X65634521Y-75508881D01*
X65637662Y-75500496D01*
X65642688Y-75497324D01*
X66428362Y-75249227D01*
X66437281Y-75250004D01*
G37*
%TD.AperFunction*%
%TD*%
%TA.AperFunction,Conductor*%
%TO.N,Net-(U2-OUT)*%
G36*
X71770367Y-65469157D02*
G01*
X71771261Y-65470136D01*
X71826568Y-65538064D01*
X72011062Y-65764664D01*
X72013628Y-65773243D01*
X72010262Y-65780324D01*
X71846762Y-65943824D01*
X71838489Y-65947251D01*
X71833523Y-65946145D01*
X71316898Y-65703940D01*
X71310861Y-65697325D01*
X71310701Y-65689841D01*
X71377101Y-65478386D01*
X71382849Y-65471519D01*
X71388122Y-65470193D01*
X71762056Y-65465827D01*
X71770367Y-65469157D01*
G37*
%TD.AperFunction*%
%TD*%
%TA.AperFunction,Conductor*%
%TO.N,Net-(U3-GSEL)*%
G36*
X83639603Y-74248102D02*
G01*
X84367852Y-74456636D01*
X84374862Y-74462208D01*
X84376327Y-74467584D01*
X84394500Y-75176658D01*
X84391286Y-75185016D01*
X84387263Y-75187775D01*
X83904458Y-75386794D01*
X83895503Y-75386779D01*
X83889339Y-75380799D01*
X83459539Y-74430353D01*
X83459254Y-74421405D01*
X83461926Y-74417263D01*
X83628112Y-74251077D01*
X83636384Y-74247651D01*
X83639603Y-74248102D01*
G37*
%TD.AperFunction*%
%TD*%
%TA.AperFunction,Conductor*%
%TO.N,Net-(U3-REGO)*%
G36*
X88150603Y-74248102D02*
G01*
X88878852Y-74456636D01*
X88885862Y-74462208D01*
X88887327Y-74467584D01*
X88905500Y-75176658D01*
X88902286Y-75185016D01*
X88898263Y-75187775D01*
X88415458Y-75386794D01*
X88406503Y-75386779D01*
X88400339Y-75380799D01*
X87970539Y-74430353D01*
X87970254Y-74421405D01*
X87972926Y-74417263D01*
X88139112Y-74251077D01*
X88147384Y-74247651D01*
X88150603Y-74248102D01*
G37*
%TD.AperFunction*%
%TD*%
%TA.AperFunction,Conductor*%
%TO.N,Net-(U3-VCOM)*%
G36*
X83175496Y-61265219D02*
G01*
X83181660Y-61271199D01*
X83599574Y-62195363D01*
X83611459Y-62221644D01*
X83611745Y-62230594D01*
X83609071Y-62234738D01*
X83442888Y-62400921D01*
X83434615Y-62404348D01*
X83431394Y-62403896D01*
X82703147Y-62195363D01*
X82696137Y-62189791D01*
X82694673Y-62184418D01*
X82676499Y-61475340D01*
X82679713Y-61466983D01*
X82683732Y-61464226D01*
X83166541Y-61265204D01*
X83175496Y-61265219D01*
G37*
%TD.AperFunction*%
%TD*%
%TA.AperFunction,Conductor*%
%TO.N,Net-(U3-CKS)*%
G36*
X88648937Y-61387066D02*
G01*
X88655129Y-61393106D01*
X89087637Y-62363786D01*
X89087874Y-62372738D01*
X89085223Y-62376821D01*
X88919156Y-62542888D01*
X88910883Y-62546315D01*
X88907360Y-62545772D01*
X88121691Y-62297676D01*
X88114834Y-62291917D01*
X88113521Y-62286117D01*
X88137034Y-61601829D01*
X88140742Y-61593682D01*
X88144263Y-61591419D01*
X88639984Y-61387051D01*
X88648937Y-61387066D01*
G37*
%TD.AperFunction*%
%TD*%
%TA.AperFunction,Conductor*%
%TO.N,Net-(J1-Pin_1)*%
G36*
X85184434Y-54089547D02*
G01*
X85188117Y-54092036D01*
X85353963Y-54257882D01*
X85357390Y-54266155D01*
X85356545Y-54270520D01*
X84674405Y-55967124D01*
X84668140Y-55973521D01*
X84659185Y-55973614D01*
X84659083Y-55973573D01*
X84643469Y-55967124D01*
X83823783Y-55628561D01*
X83817446Y-55622236D01*
X83472426Y-54786914D01*
X83472435Y-54777961D01*
X83478771Y-54771636D01*
X85175481Y-54089454D01*
X85184434Y-54089547D01*
G37*
%TD.AperFunction*%
%TD*%
%TA.AperFunction,Conductor*%
%TO.N,Net-(J1-Pin_2)*%
G36*
X87566821Y-54331781D02*
G01*
X87572696Y-54338539D01*
X87573300Y-54342251D01*
X87573299Y-54574219D01*
X87572771Y-54577696D01*
X87149104Y-55939049D01*
X87143373Y-55945930D01*
X87134455Y-55946744D01*
X87133459Y-55946383D01*
X86363487Y-55627856D01*
X86357153Y-55621527D01*
X86357146Y-55621511D01*
X86039503Y-54852287D01*
X86039512Y-54843332D01*
X86045851Y-54837007D01*
X86046585Y-54836732D01*
X87557889Y-54331155D01*
X87566821Y-54331781D01*
G37*
%TD.AperFunction*%
%TD*%
%TA.AperFunction,Conductor*%
%TO.N,Net-(J1-Pin_3)*%
G36*
X89682838Y-55305441D02*
G01*
X89689163Y-55311780D01*
X89689388Y-55312370D01*
X90188031Y-56732748D01*
X90187539Y-56741690D01*
X90185265Y-56744897D01*
X90018897Y-56911265D01*
X90010624Y-56914692D01*
X90006748Y-56914031D01*
X88586370Y-56415388D01*
X88579699Y-56409415D01*
X88579207Y-56400473D01*
X88579423Y-56399905D01*
X88897438Y-55629783D01*
X88903759Y-55623448D01*
X89673884Y-55305432D01*
X89682838Y-55305441D01*
G37*
%TD.AperFunction*%
%TD*%
%TA.AperFunction,Conductor*%
%TO.N,Net-(C2-Pad1)*%
G36*
X66541169Y-57102033D02*
G01*
X66549317Y-57105742D01*
X66551582Y-57109267D01*
X66755948Y-57604983D01*
X66755933Y-57613937D01*
X66749893Y-57620129D01*
X65779213Y-58052637D01*
X65770261Y-58052874D01*
X65766178Y-58050223D01*
X65600111Y-57884156D01*
X65596684Y-57875883D01*
X65597225Y-57872366D01*
X65845323Y-57086688D01*
X65851081Y-57079833D01*
X65856880Y-57078520D01*
X66541169Y-57102033D01*
G37*
%TD.AperFunction*%
%TD*%
%TA.AperFunction,Conductor*%
%TO.N,Net-(C2-Pad1)*%
G36*
X64318851Y-65403307D02*
G01*
X64326595Y-65407801D01*
X64328449Y-65411366D01*
X64481334Y-65893603D01*
X64480568Y-65902525D01*
X64473717Y-65908292D01*
X64473476Y-65908366D01*
X63385697Y-66227583D01*
X63376793Y-66226624D01*
X63374129Y-66224629D01*
X63208395Y-66058895D01*
X63204968Y-66050622D01*
X63206346Y-66045113D01*
X63596675Y-65314176D01*
X63603594Y-65308494D01*
X63608544Y-65308093D01*
X64318851Y-65403307D01*
G37*
%TD.AperFunction*%
%TD*%
%TA.AperFunction,Conductor*%
%TO.N,Net-(C2-Pad1)*%
G36*
X59151160Y-70114968D02*
G01*
X59316831Y-70280639D01*
X59320258Y-70288912D01*
X59319348Y-70293435D01*
X58751297Y-71648661D01*
X58744939Y-71654966D01*
X58736043Y-71654953D01*
X58061588Y-71376562D01*
X58055248Y-71370238D01*
X58055237Y-71370211D01*
X57776846Y-70695755D01*
X57776857Y-70686800D01*
X57783136Y-70680502D01*
X59138367Y-70112450D01*
X59147319Y-70112413D01*
X59151160Y-70114968D01*
G37*
%TD.AperFunction*%
%TD*%
%TA.AperFunction,Conductor*%
%TO.N,Net-(C2-Pad1)*%
G36*
X64452888Y-64408427D02*
G01*
X64454008Y-64409724D01*
X64819454Y-64901831D01*
X64821635Y-64910517D01*
X64818301Y-64917113D01*
X64333740Y-65397825D01*
X64325453Y-65401219D01*
X64317260Y-65397825D01*
X63832698Y-64917113D01*
X63829238Y-64908854D01*
X63831544Y-64901832D01*
X64196991Y-64409724D01*
X64204675Y-64405126D01*
X64206385Y-64405000D01*
X64444615Y-64405000D01*
X64452888Y-64408427D01*
G37*
%TD.AperFunction*%
%TD*%
%TA.AperFunction,Conductor*%
%TO.N,Net-(U3-MCLK)*%
G36*
X94350273Y-69504067D02*
G01*
X95120864Y-69819532D01*
X95127222Y-69825838D01*
X95127259Y-69834793D01*
X95121667Y-69840823D01*
X94350551Y-70226721D01*
X94341619Y-70227359D01*
X94338189Y-70225538D01*
X94076623Y-70024684D01*
X94076049Y-70024180D01*
X93908910Y-69857041D01*
X93905483Y-69848768D01*
X93908910Y-69840495D01*
X93909982Y-69839548D01*
X94338651Y-69505664D01*
X94347283Y-69503284D01*
X94350273Y-69504067D01*
G37*
%TD.AperFunction*%
%TD*%
%TA.AperFunction,Conductor*%
%TO.N,Net-(U3-LRCK)*%
G36*
X94350184Y-70692326D02*
G01*
X95123693Y-71069607D01*
X95129627Y-71076314D01*
X95129080Y-71085252D01*
X95123791Y-71090590D01*
X94350002Y-71477002D01*
X94341070Y-71477633D01*
X94338383Y-71476335D01*
X93949306Y-71222463D01*
X93944250Y-71215072D01*
X93944000Y-71212664D01*
X93944000Y-70975096D01*
X93947427Y-70966823D01*
X93948992Y-70965510D01*
X94338357Y-70693255D01*
X94347099Y-70691323D01*
X94350184Y-70692326D01*
G37*
%TD.AperFunction*%
%TD*%
%TA.AperFunction,Conductor*%
%TO.N,Net-(U3-SDTO)*%
G36*
X94350167Y-71933079D02*
G01*
X94821576Y-72168490D01*
X95124039Y-72319533D01*
X95129910Y-72326295D01*
X95129279Y-72335227D01*
X95124039Y-72340467D01*
X94350171Y-72726918D01*
X94341239Y-72727549D01*
X94338316Y-72726092D01*
X93949072Y-72458487D01*
X93944196Y-72450976D01*
X93944000Y-72448846D01*
X93944000Y-72211154D01*
X93947427Y-72202881D01*
X93949072Y-72201513D01*
X93949072Y-72201512D01*
X94338317Y-71933906D01*
X94347074Y-71932044D01*
X94350167Y-71933079D01*
G37*
%TD.AperFunction*%
%TD*%
M02*
