%TF.GenerationSoftware,KiCad,Pcbnew,7.0.7*%
%TF.CreationDate,2024-03-25T16:43:20-04:00*%
%TF.ProjectId,MicBoard,4d696342-6f61-4726-942e-6b696361645f,rev?*%
%TF.SameCoordinates,Original*%
%TF.FileFunction,Soldermask,Top*%
%TF.FilePolarity,Negative*%
%FSLAX46Y46*%
G04 Gerber Fmt 4.6, Leading zero omitted, Abs format (unit mm)*
G04 Created by KiCad (PCBNEW 7.0.7) date 2024-03-25 16:43:20*
%MOMM*%
%LPD*%
G01*
G04 APERTURE LIST*
G04 Aperture macros list*
%AMRoundRect*
0 Rectangle with rounded corners*
0 $1 Rounding radius*
0 $2 $3 $4 $5 $6 $7 $8 $9 X,Y pos of 4 corners*
0 Add a 4 corners polygon primitive as box body*
4,1,4,$2,$3,$4,$5,$6,$7,$8,$9,$2,$3,0*
0 Add four circle primitives for the rounded corners*
1,1,$1+$1,$2,$3*
1,1,$1+$1,$4,$5*
1,1,$1+$1,$6,$7*
1,1,$1+$1,$8,$9*
0 Add four rect primitives between the rounded corners*
20,1,$1+$1,$2,$3,$4,$5,0*
20,1,$1+$1,$4,$5,$6,$7,0*
20,1,$1+$1,$6,$7,$8,$9,0*
20,1,$1+$1,$8,$9,$2,$3,0*%
G04 Aperture macros list end*
%ADD10C,0.010000*%
%ADD11RoundRect,0.250000X-0.262500X-0.450000X0.262500X-0.450000X0.262500X0.450000X-0.262500X0.450000X0*%
%ADD12RoundRect,0.250000X-0.250000X-0.475000X0.250000X-0.475000X0.250000X0.475000X-0.250000X0.475000X0*%
%ADD13RoundRect,0.250000X0.250000X0.475000X-0.250000X0.475000X-0.250000X-0.475000X0.250000X-0.475000X0*%
%ADD14RoundRect,0.250000X-0.475000X0.250000X-0.475000X-0.250000X0.475000X-0.250000X0.475000X0.250000X0*%
%ADD15RoundRect,0.102000X-0.689000X-0.689000X0.689000X-0.689000X0.689000X0.689000X-0.689000X0.689000X0*%
%ADD16C,1.582000*%
%ADD17C,1.000000*%
%ADD18R,1.117600X0.228600*%
%ADD19R,0.774700X0.457200*%
%ADD20RoundRect,0.250000X-0.450000X0.262500X-0.450000X-0.262500X0.450000X-0.262500X0.450000X0.262500X0*%
%ADD21R,1.700000X1.700000*%
%ADD22O,1.700000X1.700000*%
G04 APERTURE END LIST*
%TO.C,J2*%
D10*
X99620200Y-76006200D02*
X96467800Y-76006200D01*
X96467800Y-73753800D01*
X99620200Y-73753800D01*
X99620200Y-76006200D01*
G36*
X99620200Y-76006200D02*
G01*
X96467800Y-76006200D01*
X96467800Y-73753800D01*
X99620200Y-73753800D01*
X99620200Y-76006200D01*
G37*
X96020200Y-72806200D02*
X94267800Y-72806200D01*
X94267800Y-71853800D01*
X96020200Y-71853800D01*
X96020200Y-72806200D01*
G36*
X96020200Y-72806200D02*
G01*
X94267800Y-72806200D01*
X94267800Y-71853800D01*
X96020200Y-71853800D01*
X96020200Y-72806200D01*
G37*
X96020200Y-71556200D02*
X94267800Y-71556200D01*
X94267800Y-70603800D01*
X96020200Y-70603800D01*
X96020200Y-71556200D01*
G36*
X96020200Y-71556200D02*
G01*
X94267800Y-71556200D01*
X94267800Y-70603800D01*
X96020200Y-70603800D01*
X96020200Y-71556200D01*
G37*
X96020200Y-70306200D02*
X94267800Y-70306200D01*
X94267800Y-69353800D01*
X96020200Y-69353800D01*
X96020200Y-70306200D01*
G36*
X96020200Y-70306200D02*
G01*
X94267800Y-70306200D01*
X94267800Y-69353800D01*
X96020200Y-69353800D01*
X96020200Y-70306200D01*
G37*
X96020200Y-69056200D02*
X94267800Y-69056200D01*
X94267800Y-68103800D01*
X96020200Y-68103800D01*
X96020200Y-69056200D01*
G36*
X96020200Y-69056200D02*
G01*
X94267800Y-69056200D01*
X94267800Y-68103800D01*
X96020200Y-68103800D01*
X96020200Y-69056200D01*
G37*
X96020200Y-67806200D02*
X94267800Y-67806200D01*
X94267800Y-66853800D01*
X96020200Y-66853800D01*
X96020200Y-67806200D01*
G36*
X96020200Y-67806200D02*
G01*
X94267800Y-67806200D01*
X94267800Y-66853800D01*
X96020200Y-66853800D01*
X96020200Y-67806200D01*
G37*
X96020200Y-66556200D02*
X94267800Y-66556200D01*
X94267800Y-65603800D01*
X96020200Y-65603800D01*
X96020200Y-66556200D01*
G36*
X96020200Y-66556200D02*
G01*
X94267800Y-66556200D01*
X94267800Y-65603800D01*
X96020200Y-65603800D01*
X96020200Y-66556200D01*
G37*
X96020200Y-65306200D02*
X94267800Y-65306200D01*
X94267800Y-64353800D01*
X96020200Y-64353800D01*
X96020200Y-65306200D01*
G36*
X96020200Y-65306200D02*
G01*
X94267800Y-65306200D01*
X94267800Y-64353800D01*
X96020200Y-64353800D01*
X96020200Y-65306200D01*
G37*
X99620200Y-63406200D02*
X96467800Y-63406200D01*
X96467800Y-61153800D01*
X99620200Y-61153800D01*
X99620200Y-63406200D01*
G36*
X99620200Y-63406200D02*
G01*
X96467800Y-63406200D01*
X96467800Y-61153800D01*
X99620200Y-61153800D01*
X99620200Y-63406200D01*
G37*
%TD*%
D11*
%TO.C,R7*%
X86313000Y-61595000D03*
X88138000Y-61595000D03*
%TD*%
D12*
%TO.C,C10*%
X88905000Y-75184000D03*
X90805000Y-75184000D03*
%TD*%
%TO.C,C4*%
X66426000Y-83947000D03*
X68326000Y-83947000D03*
%TD*%
D13*
%TO.C,C1*%
X61975293Y-61467293D03*
X60075293Y-61467293D03*
%TD*%
D14*
%TO.C,C2*%
X64325500Y-65405000D03*
X64325500Y-67305000D03*
%TD*%
D11*
%TO.C,R1*%
X60277293Y-55879293D03*
X62102293Y-55879293D03*
%TD*%
D15*
%TO.C,MK1*%
X58057800Y-71374000D03*
D16*
X58057800Y-68834000D03*
%TD*%
D13*
%TO.C,C5*%
X80772000Y-70866000D03*
X78872000Y-70866000D03*
%TD*%
D17*
%TO.C,TP3*%
X77724000Y-61595000D03*
%TD*%
D11*
%TO.C,R5*%
X61167000Y-79883000D03*
X62992000Y-79883000D03*
%TD*%
D18*
%TO.C,U3*%
X84226400Y-67194001D03*
X84226400Y-67843999D03*
X84226400Y-68494001D03*
X84226400Y-69143999D03*
X84226400Y-69793998D03*
X84226400Y-70443999D03*
X84226400Y-71093998D03*
X84226400Y-71743999D03*
X90017600Y-71743999D03*
X90017600Y-71094001D03*
X90017600Y-70443999D03*
X90017600Y-69794001D03*
X90017600Y-69144002D03*
X90017600Y-68494001D03*
X90017600Y-67844002D03*
X90017600Y-67194001D03*
%TD*%
D13*
%TO.C,C6*%
X78872000Y-73152000D03*
X80772000Y-73152000D03*
%TD*%
D19*
%TO.C,U2*%
X71380350Y-65470999D03*
X71380350Y-66421000D03*
X71380350Y-67371001D03*
X73907650Y-67371001D03*
X73907650Y-65470999D03*
%TD*%
D13*
%TO.C,C11*%
X82677000Y-61468000D03*
X80777000Y-61468000D03*
%TD*%
D20*
%TO.C,R3*%
X64325500Y-69850000D03*
X64325500Y-71675000D03*
%TD*%
%TO.C,R2*%
X66548000Y-55278000D03*
X66548000Y-57103000D03*
%TD*%
D17*
%TO.C,TP2*%
X68580000Y-67437000D03*
%TD*%
D13*
%TO.C,C8*%
X80883000Y-67968999D03*
X78983000Y-67968999D03*
%TD*%
D11*
%TO.C,R6*%
X65659000Y-76200000D03*
X67484000Y-76200000D03*
%TD*%
D12*
%TO.C,C3*%
X57028000Y-79756000D03*
X58928000Y-79756000D03*
%TD*%
%TO.C,C7*%
X78872000Y-65532000D03*
X80772000Y-65532000D03*
%TD*%
D21*
%TO.C,J1*%
X83820000Y-55626000D03*
D22*
X86360000Y-55626000D03*
X88900000Y-55626000D03*
%TD*%
D20*
%TO.C,R4*%
X71755000Y-55325000D03*
X71755000Y-57150000D03*
%TD*%
D12*
%TO.C,C9*%
X84394000Y-75184000D03*
X86294000Y-75184000D03*
%TD*%
M02*
